<?xml version="1.0" standalone="no"?>
<!DOCTYPE svg PUBLIC "-//W3C//DTD SVG 1.1//EN" "http://www.w3.org/Graphics/SVG/1.1/DTD/svg11.dtd" >
<svg xmlns="http://www.w3.org/2000/svg">
<metadata>
Created by FontPrep 20130207 at Mon Apr 18 16:33:02 2016
 By Callum Flack
Copyright (c) 2015 by Hubert &#38; Fischer. All rights reserved.
</metadata>
<defs>
<font id="b069281d3dabdfe37595b29ccf3d02db" horiz-adv-x='1024' >
  <font-face 
    font-family="Rubik-Bold"
    font-weight="700"
    font-stretch="normal"
    units-per-em="2048"
    panose-1="2 0 6 4 0 0 0 2 0 4"
    ascent="1638"
    descent="-410"
    x-height="1065"
    cap-height="1434"
    bbox="-473 -512 2511 1915"
    underline-thickness="102"
    underline-position="-102"
    unicode-range="U+000D-FB4A"
  />
<missing-glyph horiz-adv-x="593" 
 />
    <glyph glyph-name="f_f" unicode="ff" horiz-adv-x="1705" 
d="M1458 1198q-88 0 -88 -88v-45h252q23 0 39 -16.5t16 -38.5v-207q0 -23 -16 -39t-39 -16h-252v-693q0 -23 -16.5 -39t-38.5 -16h-258q-23 0 -39.5 16.5t-16.5 38.5v693h-393v-693q0 -23 -16.5 -39t-38.5 -16h-258q-23 0 -39 16.5t-16 38.5v693h-142q-23 0 -39 16t-16 39
v207q0 23 16.5 39t38.5 16h142v55q0 186 125 291t321 105h195q23 0 39 -16.5t16 -39.5v-207q0 -23 -16.5 -39t-38.5 -16h-185q-88 0 -88 -88v-45h393v55q0 185 125.5 290.5t321.5 105.5h194q23 0 39.5 -16.5t16.5 -39.5v-207q0 -23 -16.5 -39t-39.5 -16h-184z" />
    <glyph glyph-name="fi" unicode="fi" horiz-adv-x="1464" 
d="M696 1198q-88 0 -88 -88v-45h682q23 0 39.5 -16.5t16.5 -38.5v-955q0 -23 -16.5 -39t-39.5 -16h-258q-23 0 -39 16.5t-16 38.5v693h-369v-693q0 -23 -16.5 -39t-38.5 -16h-258q-23 0 -39 16.5t-16 38.5v693h-142q-23 0 -39 16t-16 39v207q0 23 16.5 39t38.5 16h142v55
q0 186 125 291t321 105h604q23 0 39.5 -16.5t16.5 -39.5v-207q0 -23 -16.5 -39t-39.5 -16h-594z" />
    <glyph glyph-name="fl" unicode="fl" horiz-adv-x="1488" 
d="M696 1198q-88 0 -88 -88v-45h393v395q0 23 16.5 39.5t39.5 16.5h258q23 0 39 -16.5t16 -39.5v-1405q0 -23 -16.5 -39t-38.5 -16h-258q-23 0 -39.5 16.5t-16.5 38.5v693h-393v-693q0 -23 -16.5 -39t-38.5 -16h-258q-23 0 -39 16.5t-16 38.5v693h-142q-23 0 -39 16t-16 39
v207q0 23 16.5 39t38.5 16h142v55q0 186 125 291t321 105h195q23 0 39 -16.5t16 -39.5v-207q0 -23 -16.5 -39t-38.5 -16h-185z" />
    <glyph glyph-name="f_f_i" unicode="ffi" horiz-adv-x="2226" 
d="M1458 1198q-88 0 -88 -88v-45h682q23 0 39 -16.5t16 -38.5v-955q0 -23 -16 -39t-39 -16h-258q-23 0 -39 16.5t-16 38.5v693h-369v-693q0 -23 -16.5 -39t-38.5 -16h-258q-23 0 -39.5 16.5t-16.5 38.5v693h-393v-693q0 -23 -16.5 -39t-38.5 -16h-258q-23 0 -39 16.5
t-16 38.5v693h-142q-23 0 -39 16t-16 39v207q0 23 16.5 39t38.5 16h142v55q0 186 125 291t321 105h195q23 0 39 -16.5t16 -39.5v-207q0 -23 -16.5 -39t-38.5 -16h-185q-88 0 -88 -88v-45h393v55q0 185 125.5 290.5t321.5 105.5h604q23 0 39 -16.5t16 -39.5v-207
q0 -23 -16 -39t-39 -16h-594z" />
    <glyph glyph-name="f_f_l" unicode="ffl" horiz-adv-x="2250" 
d="M1458 1198q-88 0 -88 -88v-45h393v395q0 23 16.5 39.5t39.5 16.5h258q23 0 39 -16.5t16 -39.5v-1405q0 -23 -16.5 -39t-38.5 -16h-258q-23 0 -39.5 16.5t-16.5 38.5v693h-393v-693q0 -23 -16.5 -39t-38.5 -16h-258q-23 0 -39.5 16.5t-16.5 38.5v693h-393v-693
q0 -23 -16.5 -39t-38.5 -16h-258q-23 0 -39 16.5t-16 38.5v693h-142q-23 0 -39 16t-16 39v207q0 23 16.5 39t38.5 16h142v55q0 186 125 291t321 105h195q23 0 39 -16.5t16 -39.5v-207q0 -23 -16.5 -39t-38.5 -16h-185q-88 0 -88 -88v-45h393v55q0 185 125.5 290.5
t321.5 105.5h194q23 0 39.5 -16.5t16.5 -39.5v-207q0 -23 -16.5 -39t-39.5 -16h-184z" />
    <glyph glyph-name=".notdef" horiz-adv-x="593" 
 />
    <glyph glyph-name=".null" horiz-adv-x="0" 
 />
    <glyph glyph-name=".null" horiz-adv-x="0" 
 />
    <glyph glyph-name="nonmarkingreturn" unicode="&#xd;" horiz-adv-x="593" 
 />
    <glyph glyph-name="space" unicode=" " horiz-adv-x="434" 
 />
    <glyph glyph-name="exclam" unicode="!" horiz-adv-x="618" 
d="M494 55q0 -23 -16.5 -39t-39.5 -16h-258q-23 0 -39 16.5t-16 38.5v207q0 23 16.5 39t38.5 16h258q23 0 39.5 -16t16.5 -39v-207zM494 496q0 -23 -16.5 -39.5t-39.5 -16.5h-258q-23 0 -39 16.5t-16 39.5v882q0 23 16.5 39.5t38.5 16.5h258q23 0 39.5 -16.5t16.5 -39.5
v-882z" />
    <glyph glyph-name="quotedbl" unicode="&#x22;" horiz-adv-x="999" 
d="M186 897q-49 0 -57 57l-45 426q-4 31 9 52.5t46 21.5h254q33 0 46.5 -21.5t9.5 -52.5l-46 -426q-8 -57 -57 -57h-160zM653 897q-49 0 -57 57l-45 426q-4 31 9 52.5t46 21.5h254q33 0 46.5 -21.5t8.5 -52.5l-45 -426q-8 -57 -57 -57h-160z" />
    <glyph glyph-name="numbersign" unicode="#" horiz-adv-x="1411" 
d="M612 604h154l31 213h-152zM1262 1124q23 0 39 -16t16 -39v-197q0 -23 -16.5 -39t-38.5 -16h-152l-33 -213h131q23 0 39.5 -16.5t16.5 -38.5v-197q0 -23 -16.5 -39t-39.5 -16h-176l-26 -174q-10 -43 -52 -43h-215q-18 0 -31.5 13t-13.5 32v4l25 168h-152l-26 -174
q-10 -43 -52 -43h-215q-18 0 -31.5 13t-13.5 32v4l25 168h-104q-23 0 -39.5 16.5t-16.5 38.5v197q0 23 16.5 39t39.5 16h151l31 213h-129q-23 0 -39.5 16.5t-16.5 38.5v197q0 23 16.5 39t39.5 16h176l27 174q11 43 49 43h217q18 0 31.5 -13t13.5 -32v-6l-27 -166h154l26 174
q11 43 50 43h217q18 0 31.5 -13t13.5 -32v-6l-27 -166h107z" />
    <glyph glyph-name="dollar" unicode="$" horiz-adv-x="1382" 
d="M942 416q0 31 -26.5 51t-80 37.5t-136.5 34t-195 41.5q-211 45 -308.5 150.5t-97.5 266.5t104 275t287 160v151q0 23 16.5 39t39.5 16h268q23 0 39 -16t16 -39v-153q178 -44 293 -156t119 -223q0 -18 -13.5 -31.5t-29.5 -13.5h-268q-53 0 -108.5 60t-182.5 60
q-201 0 -201 -67.5t19.5 -88t65.5 -38t122 -33.5t247 -50t280.5 -135t109.5 -278t-122.5 -292t-330.5 -148v-146q0 -23 -16 -39t-39 -16h-268q-23 0 -39.5 16.5t-16.5 38.5v152q-190 45 -309 157.5t-123 243.5q0 18 13.5 32t29.5 14h269q44 -1 64 -19q21 -18 68 -70.5
t187 -52.5q254 0 254 109z" />
    <glyph glyph-name="percent" unicode="%" horiz-adv-x="1734" 
d="M1466 1434q23 0 36.5 -11.5t13.5 -25.5t-9 -27l-1011 -1331q-30 -39 -74 -39h-168q-23 0 -36 11.5t-13 25.5t8 26l1012 1332q30 39 73 39h168zM1341 184q45 0 71.5 41t12.5 201q-4 53 -21.5 79.5t-62.5 26.5t-71.5 -41.5t-12.5 -199.5q4 -53 21.5 -80t62.5 -27zM1304 -10
q-117 0 -196.5 81.5t-87.5 209.5q-4 41 -4 76.5t4 87.5t24.5 104.5t59.5 92.5t98.5 62.5t176.5 22.5t196.5 -81.5t89.5 -230.5q10 -150 -28 -254t-127 -137.5t-206 -33.5zM391 901q45 0 71.5 40.5t12.5 201.5q-4 53 -21.5 79.5t-62.5 26.5t-71.5 -40.5t-12.5 -200.5
q4 -53 21.5 -80t62.5 -27zM354 707q-117 0 -196.5 80.5t-87.5 209.5q-4 41 -4 77t4 88t24.5 104.5t59.5 92.5t98 62.5t176.5 22.5t197 -81.5t89.5 -231.5q11 -150 -27.5 -253.5t-127.5 -137t-206 -33.5z" />
    <glyph glyph-name="ampersand" unicode="&#x26;" horiz-adv-x="1566" 
d="M575 1088q0 -42 25 -78.5t57 -71.5q123 74 123 143q0 53 -32.5 76t-71.5 23t-70 -25t-31 -67zM467 384q0 -130 164 -130q90 0 174 43l-219 221q-119 -68 -119 -134zM100 393q0 121 64.5 209t179.5 162q-109 127 -122 199.5t-13 136.5t37 132t100.5 117.5t149.5 77
t231.5 27.5t283.5 -108t138 -265q0 -94 -57 -195t-191 -194l143 -145q42 82 54 142.5t78 60.5h243q23 0 39.5 -16.5t16.5 -45.5q0 -75 -42.5 -187t-127.5 -216l219 -222q12 -12 12 -27t-10 -25.5t-27 -10.5h-371q-31 0 -51 20l-45 46q-176 -86 -401 -86q-351 0 -441 146
t-90 267z" />
    <glyph glyph-name="quotesingle" unicode="'" horiz-adv-x="532" 
d="M186 897q-49 0 -57 57l-45 426q-4 31 9 52.5t46 21.5h254q33 0 46.5 -21.5t9.5 -52.5l-46 -426q-8 -57 -57 -57h-160z" />
    <glyph glyph-name="parenleft" unicode="(" horiz-adv-x="835" 
d="M80 632.5q0 491.5 167 724t478 232.5q23 0 39 -16.5t16 -38.5v-207q0 -23 -16 -38t-39 -17q-225 -21 -250.5 -263.5t-25.5 -458t60.5 -379.5t215.5 -179q23 -2 39 -17.5t16 -37.5v-207q0 -23 -16 -39.5t-39 -16.5q-311 0 -478 233.5t-167 725z" />
    <glyph glyph-name="parenright" unicode=")" horiz-adv-x="835" 
d="M756 632.5q0 -491.5 -168 -725t-477 -233.5q-23 0 -39.5 16.5t-16.5 39.5v207q0 23 16.5 38t39.5 17q223 22 249.5 265t26.5 454.5t-60 378.5t-216 182q-23 2 -39.5 17.5t-16.5 37.5v207q0 23 16.5 39t39.5 16q309 0 477 -232.5t168 -724z" />
    <glyph glyph-name="asterisk" unicode="*" horiz-adv-x="921" 
d="M313 1455q0 11 13.5 25.5t31.5 14.5h205q18 0 31.5 -14.5t13.5 -25.5t-2 -21l-45 -164l144 94q4 2 7 2t13 5t27.5 -4t23.5 -26l64 -194q6 -16 -4.5 -35t-40.5 -25l-172 -10l135 -106q39 -51 0 -76l-164 -121q-16 -10 -34.5 -6t-29.5 16l-8 15l-61 159l-62 -159l-8 -15
q-10 -12 -28.5 -16t-34.5 6l-164 121q-16 10 -18.5 28.5t5.5 28.5q7 11 8 13t5 6l135 106l-172 10q-30 6 -40.5 24.5t-4.5 35.5l63 194q6 16 23.5 25.5t27.5 5.5t10 -5q1 -1 11 -3l143 -94l-45 164q-2 10 -2 21z" />
    <glyph glyph-name="plus" unicode="+" horiz-adv-x="1255" 
d="M813 457v-338q0 -23 -16.5 -39.5t-38.5 -16.5h-258q-23 0 -39.5 16.5t-16.5 39.5v338h-317q-23 0 -39 16t-16 39v207q0 23 16 39t39 16h317v338q0 23 16.5 39t39.5 16h258q23 0 39 -16t16 -39v-338h315q23 0 39.5 -16.5t16.5 -38.5v-207q0 -23 -16.5 -39t-39.5 -16h-315z
" />
    <glyph glyph-name="comma" unicode="," horiz-adv-x="587" 
d="M211 379h252q18 0 31.5 -13.5t13.5 -26.5t-2 -20l-160 -407q-26 -66 -88 -66h-154q-18 0 -31.5 13.5t-13.5 31.5v5l64 403q4 29 25.5 54.5t62.5 25.5z" />
    <glyph glyph-name="hyphen" unicode="-" horiz-adv-x="980" 
d="M168 457q-23 0 -39 16t-16 39v207q0 23 16 39t39 16h645q23 0 39 -16.5t16 -38.5v-207q0 -23 -16 -39t-39 -16h-645z" />
    <glyph glyph-name="period" unicode="." horiz-adv-x="587" 
d="M483 55q0 -23 -16 -39t-39 -16h-268q-23 0 -39.5 16.5t-16.5 38.5v269q0 23 16.5 39t39.5 16h268q23 0 39 -16.5t16 -38.5v-269z" />
    <glyph glyph-name="slash" unicode="/" horiz-adv-x="1175" 
d="M1083 1610q18 0 31.5 -13.5t13.5 -26.5t-4 -24l-690 -1657q-24 -61 -90 -61h-250q-18 0 -31.5 13.5t-13.5 26.5t4 23l686 1657q27 62 90 62h254z" />
    <glyph glyph-name="zero" unicode="0" horiz-adv-x="1409" 
d="M704.5 1126q-115.5 0 -165.5 -65t-57 -203q-7 -140 -1 -252t17.5 -155t37 -75t66.5 -50.5t129 -18.5t138.5 63.5t56.5 205.5q6 144 0 254t-17.5 153t-50 93t-154 50zM704.5 1454q288.5 0 435.5 -153.5t163 -401.5q4 -88 4 -184.5t-5 -193.5t-41 -198.5t-109 -177
t-183.5 -120.5t-331 -45t-368 152.5t-163.5 402.5q-4 84 -4 179.5t5 195.5t41 201t152 222t404.5 121z" />
    <glyph glyph-name="one" unicode="1" horiz-adv-x="1030" 
d="M590 1434h250q23 0 39 -16.5t16 -39.5v-1323q0 -23 -16.5 -39t-38.5 -16h-269q-23 0 -39 16.5t-16 38.5v895l-244 -184q-18 -14 -40.5 -11t-36.5 21l-152 197q-14 18 -10 40.5t22 37.5l441 338q16 12 39.5 28.5t54.5 16.5z" />
    <glyph glyph-name="two" unicode="2" horiz-adv-x="1363" 
d="M1241 990q0 -146 -57.5 -246.5t-192.5 -198.5l-286 -217h514q23 0 39 -16.5t16 -39.5v-217q0 -23 -16.5 -39t-38.5 -16h-1082q-23 0 -39 16.5t-16 38.5v176q0 80 59 121l613 439q108 81 108 169q0 105 -57 135.5t-155.5 30.5t-144.5 -135q-15 -45 -37 -54t-50 -9h-252
q-18 0 -31.5 13t-13.5 32q4 189 152 335t411 146t374 -106.5t147 -194t36 -163.5z" />
    <glyph glyph-name="three" unicode="3" horiz-adv-x="1384" 
d="M676 307q239 0 239 104.5t-64.5 137.5t-162.5 33h-170q-23 0 -39 16t-16 39v176q0 23 14.5 41t28.5 33l217 219h-535q-23 0 -39 16.5t-16 38.5v217q0 23 16.5 39.5t38.5 16.5h979q23 0 39.5 -16.5t16.5 -39.5v-217q0 -30 -41 -71l-248 -250q160 -41 260 -138.5
t100 -257.5q0 -231 -160 -347.5t-444 -116.5t-449 122.5t-169 282.5q0 18 13 31.5t32 13.5h258q43 0 65.5 -19.5t74 -61.5t161.5 -42z" />
    <glyph glyph-name="four" unicode="4" horiz-adv-x="1439" 
d="M774 592v377l-299 -377h299zM819 0q-23 0 -39 16.5t-16 38.5v209h-645q-23 0 -39.5 16.5t-16.5 38.5v218q0 53 27 88l612 772q18 23 34 30t42 7h309q23 0 39.5 -16.5t16.5 -39.5v-786h176q23 0 39 -16.5t16 -38.5v-218q0 -23 -16.5 -39t-38.5 -16h-176v-209
q0 -23 -16.5 -39t-39.5 -16h-268z" />
    <glyph glyph-name="five" unicode="5" horiz-adv-x="1339" 
d="M714 971q233 0 390.5 -129t157.5 -361t-167.5 -366.5t-433.5 -134.5t-425.5 128t-163.5 306q0 18 13 31.5t32 13.5h260q49 1 69 -25q46 -60 92 -93.5t108 -33.5q108 0 172.5 46.5t64.5 124.5q0 77 -54.5 121t-148.5 44q-44 0 -101.5 -25.5t-70.5 -25.5h-320
q-25 0 -41 16.5t-14 38.5l62 731q2 23 17 39.5t38 16.5h876q23 0 39.5 -16.5t16.5 -39.5v-217q0 -23 -16.5 -39t-39.5 -16h-596l-14 -182q86 47 198 47z" />
    <glyph glyph-name="six" unicode="6" horiz-adv-x="1353" 
d="M451 494q0 -45 20.5 -80t53 -58.5t74.5 -36t85 -12.5t85 12.5t73.5 36t52 58.5t20.5 80t-20.5 79.5t-52 58t-73.5 36t-85 12.5t-85 -12.5t-74.5 -36t-53 -58t-20.5 -79.5zM1294 488q0 -115 -49 -210.5t-133 -161t-194.5 -101t-298 -35.5t-367.5 139t-180 375
q0 151 64.5 243t88.5 127l391 529q10 10 22.5 25.5t41.5 15.5h326q18 0 29.5 -13.5t11.5 -30.5t-11 -28l-266 -361q224 -25 374 -160t150 -353z" />
    <glyph glyph-name="seven" unicode="7" horiz-adv-x="1206" 
d="M276 43q0 14 7 31l442 1032h-610q-23 0 -39.5 16.5t-16.5 38.5v217q0 23 16.5 39.5t39.5 16.5h979q23 0 39 -16.5t16 -39.5v-190q0 -33 -33 -105l-444 -1034q-22 -49 -60 -49h-286q-20 0 -35 14.5t-15 28.5z" />
    <glyph glyph-name="eight" unicode="8" horiz-adv-x="1404" 
d="M506 1007.5q0 -59.5 52 -99.5t144.5 -40t144.5 40t52 99.5t-52 99.5t-144.5 40t-144.5 -40t-52 -99.5zM475 426q0 -59 56.5 -99t171 -40t171 40t56.5 99t-56.5 99t-171 40t-171 -40t-56.5 -99zM127 1004q0 197 168 323.5t407.5 126.5t407.5 -126.5t168 -323.5
q0 -162 -111 -275q142 -123 142 -309q0 -187 -173.5 -313.5t-432.5 -126.5t-433 126t-174 314t140 309q-109 118 -109 275z" />
    <glyph glyph-name="nine" unicode="9" horiz-adv-x="1325" 
d="M881 944q0 41 -18.5 75t-49.5 57.5t-71 36.5t-83 13t-82.5 -13t-70.5 -36.5t-49.5 -57.5t-18.5 -75t18.5 -74.5t49.5 -57.5t70.5 -37t82.5 -13t83 13t71 37t49.5 57.5t18.5 74.5zM59 949q0 114 50.5 209t134.5 160.5t192.5 100.5t286.5 35t357.5 -140t179.5 -370
q0 -142 -61.5 -235t-88.5 -129l-389 -539q-10 -10 -22.5 -25.5t-41.5 -15.5h-325q-18 0 -29.5 13t-11.5 31t10 28l262 368q-211 30 -357.5 165t-146.5 344z" />
    <glyph glyph-name="colon" unicode=":" horiz-adv-x="604" 
d="M492 772q0 -23 -16.5 -39t-39.5 -16h-268q-23 0 -39 16.5t-16 38.5v268q0 23 16 39.5t39 16.5h268q23 0 39.5 -16.5t16.5 -39.5v-268zM492 55q0 -23 -16.5 -39t-39.5 -16h-268q-23 0 -39 16.5t-16 38.5v269q0 23 16 39t39 16h268q23 0 39.5 -16.5t16.5 -38.5v-269z" />
    <glyph glyph-name="semicolon" unicode=";" horiz-adv-x="628" 
d="M520 772q0 -23 -16.5 -39t-38.5 -16h-268q-23 0 -39.5 16.5t-16.5 38.5v268q0 23 16.5 39.5t39.5 16.5h268q23 0 39 -16.5t16 -39.5v-268zM223 379h252q18 0 31.5 -13.5t13.5 -26.5t-2 -20l-160 -405q-26 -66 -88 -66h-153q-18 0 -31.5 13.5t-13.5 32.5v4l63 401
q4 29 25.5 54.5t62.5 25.5z" />
    <glyph glyph-name="less" unicode="&#x3c;" horiz-adv-x="1071" 
d="M55 760q0 33 15.5 50t44.5 36l768 520q12 6 26 6t26.5 -12t12.5 -31v-280q0 -35 -22.5 -55.5t-42.5 -35.5l-361 -241l361 -242q20 -14 42.5 -34.5t22.5 -55.5v-281q0 -18 -12 -30.5t-27 -12.5t-26 7l-768 520q-29 18 -44.5 35.5t-15.5 50.5v86z" />
    <glyph glyph-name="equal" unicode="=" horiz-adv-x="1169" 
d="M180 205q-23 0 -39 16.5t-16 38.5v207q0 23 16.5 39t38.5 16h809q23 0 39 -16.5t16 -38.5v-207q0 -23 -16 -39t-39 -16h-809zM180 709q-23 0 -39 16t-16 39v207q0 23 16.5 39t38.5 16h809q23 0 39 -16.5t16 -38.5v-207q0 -23 -16 -39t-39 -16h-809z" />
    <glyph glyph-name="greater" unicode="&#x3e;" horiz-adv-x="1071" 
d="M1016 674q0 -33 -15.5 -50.5t-44.5 -35.5l-768 -520q-14 -7 -27 -7t-25.5 12.5t-12.5 30.5v281q0 35 22.5 55.5t42.5 34.5l361 242l-361 241q-20 14 -42.5 35t-22.5 56v280q0 18 12.5 30.5t26.5 12.5t26 -6l768 -520q29 -18 44.5 -35.5t15.5 -50.5v-86z" />
    <glyph glyph-name="question" unicode="?" horiz-adv-x="1236" 
d="M494 440q-56 0 -56 78q0 91 68.5 165.5t117 111t117 93.5t68.5 119q0 130 -184 130q-92 0 -132 -28t-58.5 -60.5t-32 -60t-52.5 -27.5h-250q-18 0 -31.5 12t-13.5 33q2 72 41 150.5t112 145t177.5 109.5t229.5 43q243 0 403 -120.5t160 -297.5q0 -178 -145 -294
t-183.5 -158.5t-47.5 -76.5q-18 -67 -59 -67h-249zM803 55q0 -23 -16.5 -39t-38.5 -16h-259q-23 0 -39 16.5t-16 38.5v207q0 23 16.5 39t38.5 16h259q23 0 39 -16t16 -39v-207z" />
    <glyph glyph-name="at" unicode="@" horiz-adv-x="1794" 
d="M737 559q0 -100 41.5 -145t99.5 -45t99 44t41 145t-41 147.5t-98 46.5t-99.5 -46.5t-42.5 -146.5zM1332 162q-80 0 -144 29.5t-92 64.5q-44 -55 -95.5 -85t-146.5 -30q-94 0 -155.5 30t-105.5 85t-67.5 132t-23.5 217.5t86 257t237 116.5q84 0 125 -25.5t68 -64.5v18
q0 23 16.5 39.5t38.5 16.5h127q23 0 39 -16.5t16 -39.5v-415q0 -49 28 -76t74 -27t69.5 27.5t27.5 87.5t4 111t-9 134q-22 205 -145.5 309.5t-426.5 104.5q-377 0 -458 -189.5t-83 -279.5t-2 -176t9 -156q9 -71 89 -242t445 -171q179 0 249 22.5t98.5 40t53.5 34.5t38 24.5
t36 7.5h180q23 0 40 -15t16 -37q0 -22 -28 -52q-92 -99 -263 -176t-387 -77q-217 0 -357.5 54.5t-293.5 198.5t-157 337t-4 279t7 176t56.5 210t200 267.5t515.5 147.5q419 0 600 -177.5t211 -484.5q4 -53 4 -124t-4 -137t-35 -125.5t-77 -99.5t-105 -60.5t-139 -20.5z" />
    <glyph glyph-name="A" unicode="A" 
d="M569 539h332l-166 491zM901 1434q41 0 62.5 -22.5t29.5 -45.5l447 -1290q8 -20 8 -34t-13.5 -28t-31.5 -14h-258q-41 0 -58.5 17.5t-21.5 33.5l-57 170h-545l-57 -170q-4 -16 -21.5 -33.5t-58.5 -17.5h-258q-18 0 -31.5 13.5t-13.5 27.5t8 35l446 1290q8 23 29.5 45.5
t62.5 22.5h332z" />
    <glyph glyph-name="B" unicode="B" horiz-adv-x="1458" 
d="M522 317h338q61 0 98 36t37 89.5t-36.5 89t-98.5 35.5h-338v-250zM965 999.5q0 53.5 -32 85t-93 31.5h-318v-233h318q61 0 93 31.5t32 85zM1374 454q0 -198 -115.5 -326t-357.5 -128h-702q-23 0 -39.5 16.5t-16.5 38.5v1323q0 23 16.5 39.5t39.5 16.5h659
q256 0 372 -125.5t116 -295.5t-115 -265q80 -55 111.5 -127.5t31.5 -166.5z" />
    <glyph glyph-name="C" unicode="C" horiz-adv-x="1437" 
d="M908 354q57 47 73 98q16 50 28.5 63t47.5 13h268q18 0 31.5 -13t13.5 -32q-4 -212 -188 -357.5t-459 -145.5t-445.5 157t-183.5 398q-4 84 -4 180.5t4 196.5t49 201t173 221t404 120t461 -145t189 -359q0 -18 -13.5 -31.5t-31.5 -13.5h-268q-35 0 -47.5 13.5t-21.5 42.5
t-24.5 57.5t-44 52t-73.5 39.5t-143.5 16t-159.5 -64.5t-70 -172.5q-4 -54 -4 -172.5t4 -168.5t18.5 -93t63 -95.5t172.5 -52.5t181 47z" />
    <glyph glyph-name="D" unicode="D" horiz-adv-x="1480" 
d="M731 1106h-209v-778h219q258 0 269 235q2 43 2 53v110q0 101 -2 144q-12 236 -279 236zM741 1434q281 0 457.5 -157.5t190.5 -414.5q2 -43 2 -52v-178q0 -170 -51.5 -283t-180.5 -231t-407 -118h-553q-23 0 -39.5 16.5t-16.5 38.5v1323q0 23 16.5 39.5t39.5 16.5h542z
" />
    <glyph glyph-name="E" unicode="E" horiz-adv-x="1316" 
d="M1169 328q23 0 39.5 -16.5t16.5 -39.5v-217q0 -23 -16.5 -39t-39.5 -16h-970q-23 0 -39.5 16.5t-16.5 38.5v1323q0 23 16.5 39.5t39.5 16.5h954q23 0 39 -16.5t16 -39.5v-217q0 -23 -16 -39t-39 -16h-631v-221h586q23 0 39 -16.5t16 -39.5v-217q0 -23 -16.5 -39
t-38.5 -16h-586v-229h647z" />
    <glyph glyph-name="F" unicode="F" horiz-adv-x="1263" 
d="M1135 1434q23 0 39 -16.5t16 -39.5v-217q0 -23 -16.5 -39t-38.5 -16h-613v-281h572q23 0 39 -16t16 -39v-217q0 -23 -16.5 -39t-38.5 -16h-572v-443q0 -23 -16.5 -39t-38.5 -16h-268q-23 0 -39.5 16.5t-16.5 38.5v1323q0 23 16.5 39.5t39.5 16.5h936z" />
    <glyph glyph-name="G" unicode="G" horiz-adv-x="1456" 
d="M746 1126q-203 0 -239.5 -108.5t-38 -179t-1.5 -191.5t20.5 -178t67.5 -109.5t176 -52.5q180 0 219 82t39 143h-172q-23 0 -39 16.5t-16 39.5v217q0 23 16.5 39t38.5 16h496q23 0 39 -16.5t16 -38.5v-262q0 -257 -180.5 -410t-460.5 -153t-450 157t-183 398
q-4 84 -4 180.5t4 196.5t49 201t173 221t406 120t410 -106.5t177 -183.5t49 -146q2 -18 -12.5 -31.5t-32.5 -13.5h-273q-31 0 -48 18.5t-34 36.5q-77 98 -212 98z" />
    <glyph glyph-name="H" unicode="H" horiz-adv-x="1499" 
d="M1300 1434q23 0 39.5 -16.5t16.5 -39.5v-1323q0 -23 -16.5 -39t-39.5 -16h-268q-23 0 -39 16.5t-16 38.5v502h-455v-502q0 -23 -16.5 -39t-38.5 -16h-268q-23 0 -39.5 15.5t-16.5 39.5v1323q0 23 16.5 39.5t39.5 16.5h268q23 0 39 -16.5t16 -39.5v-493h455v493
q0 23 16.5 39.5t38.5 16.5h268z" />
    <glyph glyph-name="I" unicode="I" horiz-adv-x="665" 
d="M199 0q-23 0 -39.5 16.5t-16.5 38.5v1323q0 23 16.5 39.5t39.5 16.5h268q23 0 39 -16.5t16 -39.5v-1323q0 -23 -16.5 -39t-38.5 -16h-268z" />
    <glyph glyph-name="J" unicode="J" horiz-adv-x="1402" 
d="M662 307q233 0 233 228v571h-700q-23 0 -39.5 16.5t-16.5 38.5v217q0 23 16.5 39.5t39.5 16.5h1022q23 0 39 -16.5t16 -39.5v-856q0 -258 -174 -400t-438 -142t-434.5 131.5t-174.5 351.5q0 18 13.5 31.5t31.5 13.5h262q39 0 51.5 -12.5t30.5 -64.5t70.5 -88t151.5 -36z
" />
    <glyph glyph-name="K" unicode="K" horiz-adv-x="1378" 
d="M1364 44q0 -16 -13.5 -30t-31.5 -14h-326q-43 0 -84 47l-387 488v-480q0 -23 -16.5 -39t-38.5 -16h-268q-23 0 -39.5 16.5t-16.5 38.5v1323q0 23 16.5 39.5t39.5 16.5h268q23 0 39 -16.5t16 -39.5v-432l361 443q10 12 26.5 28.5t55.5 16.5h319q18 0 31.5 -13.5
t13.5 -29.5t-6 -25l-506 -618l541 -680q6 -8 6 -24z" />
    <glyph glyph-name="L" unicode="L" horiz-adv-x="1234" 
d="M1147 328q23 0 39 -16.5t16 -39.5v-217q0 -23 -16.5 -39t-38.5 -16h-948q-23 0 -39.5 16.5t-16.5 38.5v1323q0 23 16.5 39.5t39.5 16.5h268q23 0 39 -16.5t16 -39.5v-1050h625z" />
    <glyph glyph-name="M" unicode="M" horiz-adv-x="1712" 
d="M791 344q-44 0 -76 51l-193 338v-678q0 -23 -16.5 -39t-38.5 -16h-268q-23 0 -39.5 16.5t-16.5 38.5v1323q0 23 16.5 39.5t39.5 16.5h237q57 0 88 -56l332 -567l332 567q34 56 88 56h237q23 0 39.5 -16.5t16.5 -39.5v-1323q0 -23 -16.5 -39t-39.5 -16h-268
q-23 0 -39 16.5t-16 38.5v678l-193 -338q-32 -51 -75 -51h-131z" />
    <glyph glyph-name="N" unicode="N" horiz-adv-x="1486" 
d="M1075 0q-35 0 -56.5 18.5t-27.5 28.5l-469 701v-693q0 -23 -16.5 -39t-38.5 -16h-268q-23 0 -39.5 16.5t-16.5 38.5v1323q0 23 16.5 39.5t39.5 16.5h213q53 0 84 -48l469 -700v692q0 23 16 39.5t39 16.5h268q23 0 39 -16.5t16 -39.5v-1323q0 -23 -16 -39t-39 -16h-213z
" />
    <glyph glyph-name="O" unicode="O" 
d="M548.5 1060.5q-65.5 -65.5 -73.5 -171.5q-6 -52 -6 -170.5t6 -173.5q8 -102 70.5 -170t189.5 -68t188.5 68t71.5 170q6 111 6 175t-5 142t-22.5 121t-66.5 93t-171 50t-187.5 -65.5zM1191.5 1298q169.5 -156 182.5 -399q4 -88 4 -184.5t-5 -195.5t-49 -200.5t-171 -220
t-418 -118.5t-458.5 156.5t-180.5 398.5q-4 84 -4 179.5t5 197.5t49 203.5t173 220t416 118.5t456.5 -156z" />
    <glyph glyph-name="P" unicode="P" horiz-adv-x="1404" 
d="M522 793h252q86 0 142.5 37.5t56.5 123.5t-56.5 124t-142.5 38h-252v-323zM784 1434q408 0 488 -180.5t80 -300.5q0 -236 -153 -358t-415 -122h-262v-418q0 -23 -16.5 -39t-38.5 -16h-268q-23 0 -39.5 16.5t-16.5 38.5v1323q0 23 16.5 39.5t39.5 16.5h585z" />
    <glyph glyph-name="Q" unicode="Q" 
d="M548.5 1060.5q-65.5 -65.5 -73.5 -171.5q-6 -52 -6 -170.5t6 -173.5q8 -102 70.5 -170t189.5 -68t188.5 68t71.5 170q6 111 6 175t-5 142t-22.5 121t-66.5 93t-171 50t-187.5 -65.5zM708 -20q-124 0 -240 43t-237.5 156.5t-134.5 355.5q-4 84 -4 179.5t5 197.5t49 203.5
t173 220t416 118.5t456.5 -156t182.5 -399q4 -88 4 -184.5t-5 -192.5q-11 -209 -150 -358l161 -234q7 -14 9 -25t-11.5 -24.5t-31.5 -13.5h-289q-39 0 -57.5 17.5t-28.5 29.5l-57 86q-86 -20 -210 -20z" />
    <glyph glyph-name="R" unicode="R" horiz-adv-x="1423" 
d="M522 813h232q86 0 142 33t56 119t-56 118.5t-142 32.5h-232v-303zM1331 965q0 -299 -244 -410l254 -487q16 -32 -2 -50t-36 -18h-279q-41 0 -58.5 18.5t-27.5 36.5l-227 439h-189v-439q0 -23 -16.5 -39t-38.5 -16h-268q-23 0 -39.5 16.5t-16.5 38.5v1323q0 23 16.5 39.5
t39.5 16.5h555q420 0 498.5 -175.5t78.5 -293.5z" />
    <glyph glyph-name="S" unicode="S" horiz-adv-x="1380" 
d="M686 307q254 0 254 109q0 31 -26.5 51t-80 37.5t-136.5 34t-195 41.5q-211 45 -308.5 150.5t-97.5 285.5t161 309t413 129q253 0 384.5 -97t176.5 -169t47 -137q0 -18 -13.5 -31.5t-29.5 -13.5h-268q-53 0 -108.5 60t-182.5 60q-201 0 -201 -67.5t19.5 -88t65.5 -38
t122 -33.5t247 -50t280.5 -135t109.5 -296t-176.5 -316.5t-451.5 -121.5t-407 97t-179.5 173t-49.5 153q0 18 13.5 32t29.5 14h269q44 -1 64 -19q21 -18 68 -70.5t187 -52.5z" />
    <glyph glyph-name="T" unicode="T" horiz-adv-x="1292" 
d="M1196 1434q23 0 39 -16.5t16 -39.5v-217q0 -23 -16 -39t-39 -16h-360v-1051q0 -23 -16.5 -39t-39.5 -16h-268q-23 0 -39 16.5t-16 38.5v1051h-361q-23 0 -39 16.5t-16 38.5v217q0 23 16.5 39.5t38.5 16.5h1100z" />
    <glyph glyph-name="U" unicode="U" horiz-adv-x="1503" 
d="M1319 1434q23 0 39 -16.5t16 -39.5v-817q0 -278 -170 -429.5t-454 -151.5t-452.5 152t-168.5 429v817q0 23 16.5 39.5t38.5 16.5h269q23 0 39 -16.5t16 -39.5v-809q0 -123 60.5 -192.5t183 -69.5t183 69.5t60.5 192.5v809q0 23 16.5 39.5t39.5 16.5h268z" />
    <glyph glyph-name="V" unicode="V" horiz-adv-x="1425" 
d="M578 0q-80 0 -109 82l-418 1280q-6 21 -6 33t13.5 25.5t31.5 13.5h258q41 0 58.5 -17.5t21.5 -34.5l285 -901l284 901q4 16 21.5 34t58.5 18h258q18 0 31.5 -13.5t13.5 -25.5t-6 -33l-418 -1280q-29 -82 -108 -82h-270z" />
    <glyph glyph-name="W" unicode="W" horiz-adv-x="1703" 
d="M1602 1434q18 0 31.5 -13.5t13.5 -25.5t-2 -23l-265 -1294q-4 -29 -32.5 -53.5t-69.5 -24.5h-170q-41 0 -66.5 24.5t-35.5 53.5l-154 463l-154 -463q-10 -29 -35.5 -53.5t-66.5 -24.5h-170q-41 0 -69.5 24.5t-32.5 53.5l-265 1294q-2 10 -2 22t13.5 26t31.5 14h269
q52 0 63 -56l131 -692l121 371q4 14 18.5 36.5t51.5 22.5h192q37 0 51.5 -22.5t18.5 -36.5l121 -371l131 692q11 56 63 56h269z" />
    <glyph glyph-name="X" unicode="X" horiz-adv-x="1456" 
d="M379 0h-311q-18 0 -31.5 13.5t-13.5 27.5t6 27l473 661l-453 637q-6 12 -6 26t13.5 28t31.5 14h309q41 0 59.5 -20.5t26.5 -31.5l248 -346l240 346q8 10 26.5 31t59.5 21h313q18 0 31.5 -13.5t13.5 -27.5t-6 -27l-455 -645l469 -653q7 -14 7 -28t-13.5 -27t-32.5 -13
h-311q-41 0 -56.5 14.5t-27.5 32.5l-264 369l-262 -369q-12 -18 -27.5 -32.5t-56.5 -14.5z" />
    <glyph glyph-name="Y" unicode="Y" horiz-adv-x="1406" 
d="M893 55q0 -23 -16.5 -39t-38.5 -16h-269q-23 0 -39 16.5t-16 38.5v437l-473 870q-8 14 -8 30t13 29t32 13h280q41 0 61.5 -20.5t24.5 -31.5l258 -503l261 503q4 10 24.5 31t61.5 21h280q18 0 31.5 -13.5t13.5 -28.5t-8 -30l-473 -870v-437z" />
    <glyph glyph-name="Z" unicode="Z" horiz-adv-x="1368" 
d="M1233 328q23 0 39 -16.5t16 -39.5v-217q0 -23 -16.5 -39t-38.5 -16h-1098q-23 0 -39 16.5t-16 38.5v207q0 44 31 72l655 772h-610q-23 0 -39.5 16.5t-16.5 38.5v217q0 23 16.5 39.5t39.5 16.5h1056q23 0 39.5 -16.5t16.5 -39.5v-207q0 -39 -27 -67l-655 -776h647z" />
    <glyph glyph-name="bracketleft" unicode="[" horiz-adv-x="798" 
d="M178 -326q-23 0 -39 16.5t-16 39.5v1804q0 23 16.5 39t38.5 16h508q23 0 39 -16.5t16 -38.5v-207q0 -23 -16 -39t-39 -16h-194v-1280h194q23 0 39 -16.5t16 -38.5v-207q0 -23 -16 -39.5t-39 -16.5h-508z" />
    <glyph glyph-name="backslash" unicode="\" horiz-adv-x="1175" 
d="M1126 -132q0 -13 -13 -26.5t-32 -13.5h-250q-63 0 -90 61l-690 1657q-4 10 -4 24t13.5 27t31.5 13h254q63 0 90 -62l686 -1657q4 -10 4 -23z" />
    <glyph glyph-name="bracketright" unicode="]" horiz-adv-x="798" 
d="M113 -326q-23 0 -39.5 16.5t-16.5 39.5v207q0 23 16.5 39t39.5 16h194v1280h-194q-23 0 -39.5 16.5t-16.5 38.5v207q0 23 16.5 39t39.5 16h508q23 0 39 -16.5t16 -38.5v-1804q0 -23 -16.5 -39.5t-38.5 -16.5h-508z" />
    <glyph glyph-name="asciicircum" unicode="^" horiz-adv-x="958" 
d="M569 1546q42 0 76 -39l209 -229q10 -10 10 -27q0 -33 -33 -32h-137q-23 0 -63 22l-152 88l-151 -88q-40 -22 -64 -22h-137q-33 0 -33 32q0 16 10 27l209 229q34 39 76 39h180z" />
    <glyph glyph-name="underscore" unicode="_" horiz-adv-x="1509" 
d="M145 -158q-23 0 -39 16.5t-16 39.5v206q0 23 16.5 39.5t38.5 16.5h1219q23 0 39 -16.5t16 -39.5v-206q0 -23 -16.5 -39.5t-38.5 -16.5h-1219z" />
    <glyph glyph-name="grave" unicode="`" horiz-adv-x="811" 
d="M698 1251q0 -33 -32 -32h-181q-45 0 -86 34l-276 228q-10 10 -10 24q0 41 39 41h272q23 0 38 -6t38 -33l188 -229q10 -10 10 -27z" />
    <glyph glyph-name="a" unicode="a" horiz-adv-x="1206" 
d="M418 329q0 -73 94 -73t155.5 57.5t61.5 139.5l-188 -29q-123 -22 -123 -95zM729 113q-107 -133 -297 -133q-189 0 -286 90.5t-97 228.5q0 139 103.5 227t336.5 129l240 41q0 49 -26.5 81t-92.5 32q-66 -1 -101 -31q-36 -30 -83 -30h-260q-49 0 -44 58q3 34 40 85
t144 122.5t327 71.5t342.5 -111.5t122.5 -297.5v-621q0 -23 -16.5 -39t-39.5 -16h-258q-23 0 -39 16.5t-16 38.5v58z" />
    <glyph glyph-name="b" unicode="b" horiz-adv-x="1298" 
d="M670 768q-122 0 -154.5 -77t-32.5 -138t7 -110.5t51.5 -97.5t134.5 -48t142.5 67.5t35.5 225.5q-6 72 -47 125t-137 53zM487 963q95 122 283 122t315.5 -121.5t135.5 -349.5q2 -31 2 -151.5t-78 -301.5t-383 -181q-166 0 -216 50t-69 72v-47q0 -23 -16.5 -39t-38.5 -16
h-248q-23 0 -39 16.5t-16 38.5v1344q0 23 16.5 39t38.5 16h258q23 0 39 -16.5t16 -38.5v-436z" />
    <glyph glyph-name="c" unicode="c" horiz-adv-x="1232" 
d="M440 532.5q0 -40.5 4 -71.5q6 -74 55.5 -119t124.5 -45t110.5 19.5t51.5 45.5t29.5 38t36.5 12h268q23 0 40.5 -16.5t15.5 -44.5t-27 -91t-132 -171.5t-386 -108.5q-235 0 -391 128.5t-164 342.5q-2 31 -2 82t2 81q8 214 164 342.5t391 128.5q279 0 386 -108.5
t132 -171.5t27 -91t-15.5 -44.5t-40.5 -16.5h-268q-33 0 -58 38q-24 38 -60 57.5t-110 19.5t-124 -45t-56 -119q-4 -31 -4 -71.5z" />
    <glyph glyph-name="d" unicode="d" horiz-adv-x="1298" 
d="M815 510.5q0 62.5 -6 111t-51.5 97.5t-134.5 49q-90 0 -142.5 -67.5t-36.5 -225.5q6 -72 47 -125t149 -53t141.5 75.5t33.5 138zM811 1399q0 23 16.5 39t38.5 16h258q23 0 39.5 -16.5t16.5 -38.5v-1344q0 -23 -16.5 -39t-39.5 -16h-247q-23 0 -39.5 16.5t-16.5 38.5v47
q-43 -55 -104 -88.5t-167 -33.5q-212 0 -338 120.5t-134 348.5q-2 31 -2 151.5t78.5 302.5t374.5 182q188 0 282 -122v436z" />
    <glyph glyph-name="e" unicode="e" horiz-adv-x="1243" 
d="M623 809q-86 0 -131.5 -51t-53.5 -115h369q-8 63 -53 114.5t-131 51.5zM438 416q0 -85 54 -122.5t145 -37.5t143 47q23 18 33 23.5t35 5.5h266q45 0 45 -45q0 -25 -30.5 -75t-142.5 -141t-370 -91q-259 0 -402.5 145.5t-143.5 400.5t147 407t415 152t406 -166t138 -391
v-57q0 -23 -16.5 -39t-39.5 -16h-682z" />
    <glyph glyph-name="f" unicode="f" horiz-adv-x="942" 
d="M696 1198q-88 0 -88 -88v-45h252q23 0 39 -16.5t16 -38.5v-207q0 -23 -16 -39t-39 -16h-252v-693q0 -23 -16.5 -39t-38.5 -16h-258q-23 0 -39 16.5t-16 38.5v693h-142q-23 0 -39 16t-16 39v207q0 23 16.5 39t38.5 16h142v55q0 186 125 291t321 105h195q23 0 39 -16.5
t16 -39.5v-207q0 -23 -16.5 -39t-38.5 -16h-185z" />
    <glyph glyph-name="g" unicode="g" horiz-adv-x="1298" 
d="M629 768q-189 0 -189 -215t189 -215q84 0 144.5 63.5t37.5 216.5q-8 59 -53 104.5t-129 45.5zM831 1010q0 23 16.5 39t39.5 16h237q23 0 39.5 -16.5t16.5 -38.5v-998q0 -222 -152.5 -342.5t-420.5 -120.5t-386.5 117t-124.5 244q-2 23 15.5 39t40.5 16h266q43 0 60 -34
t47 -54t104 -20t133 35.5t59 107.5v143q-43 -55 -105 -89t-167 -34q-208 0 -335.5 118.5t-135.5 340.5q-2 31 -2 140t78.5 287.5t385.5 178.5q197 0 291 -122v47z" />
    <glyph glyph-name="h" unicode="h" horiz-adv-x="1318" 
d="M621.5 768q-134.5 0 -134.5 -195v-518q0 -23 -16 -39t-39 -16h-258q-23 0 -39 16.5t-16 38.5v1344q0 23 16.5 39t38.5 16h258q23 0 39 -16.5t16 -38.5v-436q35 43 109 82.5t171 39.5q205 0 324 -117t119 -350v-563q0 -23 -16 -39t-39 -16h-258q-23 0 -39 16.5t-16 38.5
v518q0 88 -43 141.5t-177.5 53.5z" />
    <glyph glyph-name="i" unicode="i" horiz-adv-x="606" 
d="M487 1233q0 -23 -16 -39t-39 -16h-258q-23 0 -39 16t-16 39v207q0 23 16.5 39t38.5 16h258q23 0 39 -16.5t16 -38.5v-207zM487 55q0 -23 -16 -39t-39 -16h-258q-23 0 -39 16.5t-16 38.5v955q0 23 16.5 39t38.5 16h258q23 0 39 -16.5t16 -38.5v-955z" />
    <glyph glyph-name="j" unicode="j" horiz-adv-x="628" 
d="M53 -72q88 0 88 99v983q0 23 16.5 39t39.5 16h258q23 0 39 -16.5t16 -38.5v-994q0 -187 -120.5 -296t-315.5 -109h-103q-23 0 -39 16.5t-16 38.5v197q0 23 16.5 44t38.5 21h82zM510 1233q0 -23 -16.5 -39t-38.5 -16h-258q-23 0 -39.5 16t-16.5 39v207q0 23 16.5 39
t39.5 16h258q23 0 39 -16.5t16 -38.5v-207z" />
    <glyph glyph-name="k" unicode="k" horiz-adv-x="1251" 
d="M838 1065h301q20 0 34.5 -14.5t14.5 -29.5t-3 -22.5t-20 -23.5l-364 -406l430 -481q20 -23 20 -41t-14 -32.5t-35 -14.5h-305q-55 0 -84 35l-326 366v-346q0 -23 -16 -39t-39 -16h-258q-23 0 -39 16.5t-16 38.5v1344q0 23 16.5 39t38.5 16h258q23 0 39 -16.5t16 -38.5
v-664l271 295q35 35 80 35z" />
    <glyph glyph-name="l" unicode="l" horiz-adv-x="606" 
d="M487 55q0 -23 -16 -39t-39 -16h-258q-23 0 -39 16.5t-16 38.5v1344q0 23 16.5 39t38.5 16h258q23 0 39 -16.5t16 -38.5v-1344z" />
    <glyph glyph-name="m" unicode="m" horiz-adv-x="1906" 
d="M1065 926q120 159 317 159q196 0 306 -116t110 -351v-563q0 -23 -16.5 -39t-38.5 -16h-248q-23 0 -39 16.5t-16 38.5v525q0 102 -38 145t-111 43t-110.5 -43t-37.5 -145v-525q0 -23 -16.5 -39t-39.5 -16h-247q-23 0 -39.5 16.5t-16.5 38.5v525q0 102 -37.5 145t-111.5 43
q-148 0 -148 -182v-531q0 -23 -16 -39t-39 -16h-258q-23 0 -39 16.5t-16 38.5v955q0 23 16.5 39t38.5 16h248q23 0 39 -16.5t16 -38.5v-47q96 122 260 122q225 0 328 -159z" />
    <glyph glyph-name="n" unicode="n" horiz-adv-x="1318" 
d="M766 1085q316 0 380 -173t64 -294v-563q0 -23 -16 -39t-39 -16h-258q-23 0 -39 16.5t-16 38.5v518q0 88 -43 141.5t-177.5 53.5t-134.5 -195v-518q0 -23 -16 -39t-39 -16h-258q-23 0 -39 16.5t-16 38.5v955q0 23 16.5 39t38.5 16h248q23 0 39 -16.5t16 -38.5v-47
q98 122 289 122z" />
    <glyph glyph-name="o" unicode="o" horiz-adv-x="1261" 
d="M631 297q82 0 132 44t56 122q4 31 4 69.5t-4 69.5q-6 78 -56 122t-132 44t-132 -44t-57 -122q-4 -31 -4 -69.5t4 -69.5q6 -78 56.5 -122t132.5 -44zM1190 531q0 -48 -2 -78q-8 -201 -159.5 -337t-398 -136t-397.5 136t-159 337q-2 31 -2 79t2 78q4 200 158.5 337.5
t397.5 137.5t396.5 -135.5t161.5 -339.5q2 -31 2 -79z" />
    <glyph glyph-name="p" unicode="p" horiz-adv-x="1298" 
d="M670 768q-122 0 -154.5 -77t-32.5 -138t7 -110.5t51.5 -97.5t134.5 -48t142 67.5t36 225.5q-6 72 -47 125t-137 53zM487 -334q0 -23 -16 -39t-39 -16h-258q-23 0 -39 16.5t-16 38.5v1344q0 23 16.5 39t38.5 16h248q23 0 39 -16.5t16 -38.5v-47q55 61 110 91.5t161 30.5
q212 0 338.5 -120.5t134.5 -348.5q2 -31 2 -151.5t-41 -215.5t-132.5 -182t-276.5 -87t-286 122v-436z" />
    <glyph glyph-name="q" unicode="q" horiz-adv-x="1298" 
d="M815 510.5q0 62.5 -6 111t-51.5 97.5t-134.5 49q-90 0 -142.5 -68t-36.5 -225q6 -72 47 -125t149 -53t141.5 75.5t33.5 138zM76 602.5q0 120.5 78 301.5t383 181q169 0 217.5 -51t66.5 -71v47q0 23 16.5 39t39.5 16h247q23 0 39.5 -16.5t16.5 -38.5v-1344
q0 -23 -16.5 -39t-39.5 -16h-258q-23 0 -39 16.5t-16 38.5v436q-95 -122 -282 -122q-188 0 -315.5 121.5t-135.5 349.5q-2 31 -2 151.5z" />
    <glyph glyph-name="r" unicode="r" horiz-adv-x="940" 
d="M739 1065h123q23 0 39.5 -16.5t16.5 -38.5v-207q0 -23 -16.5 -39t-39.5 -16h-186q-188 0 -189 -189v-504q0 -23 -16 -39t-39 -16h-258q-23 0 -39 16.5t-16 38.5v955q0 23 16.5 39t38.5 16h238q23 0 39 -16.5t16 -38.5v-47q107 102 272 102z" />
    <glyph glyph-name="s" unicode="s" horiz-adv-x="1150" 
d="M451 752q0 -23 10 -35t40.5 -19.5t86 -15.5t145.5 -23q186 -31 271.5 -126t85.5 -228t-141.5 -229t-374.5 -96t-367.5 91t-145.5 201q-2 23 15.5 39.5t40.5 16.5h254q23 0 33 -11.5t26 -24.5t47 -24.5t92.5 -11.5t106.5 16t45 47q0 23 -15.5 35.5t-52.5 20.5t-97 16
t-150 25q-156 29 -240 114.5t-84 224.5t132 234.5t341 95.5t316.5 -65.5t145.5 -117.5t41 -89t-14.5 -53.5t-39.5 -16.5h-244q-23 0 -36 10.5t-47.5 33t-130.5 22.5q-95 0 -95 -57z" />
    <glyph glyph-name="t" unicode="t" horiz-adv-x="970" 
d="M608 416q0 -99 88 -99h164q23 0 39 -16t16 -39v-207q0 -23 -16 -39t-39 -16h-194q-196 0 -311 109t-115 294v345h-152q-23 0 -39 16t-16 39v207q0 23 16.5 39t38.5 16h152v334q0 23 16 39t39 16h258q23 0 39 -16.5t16 -38.5v-334h232q23 0 39 -16.5t16 -38.5v-207
q0 -23 -16.5 -39t-38.5 -16h-232v-332z" />
    <glyph glyph-name="u" unicode="u" horiz-adv-x="1298" 
d="M109 446v564q0 23 16 39t39 16h258q23 0 39 -16.5t16 -38.5v-518q0 -195 167 -195t167 195v518q0 23 16.5 39t38.5 16h258q23 0 39.5 -16.5t16.5 -38.5v-955q0 -23 -16.5 -39t-39.5 -16h-237q-23 0 -39.5 16.5t-16.5 38.5v47q-85 -122 -286 -122t-318.5 112.5
t-117.5 353.5z" />
    <glyph glyph-name="v" unicode="v" horiz-adv-x="1277" 
d="M518 0q-31 0 -44 16.5t-23 34.5l-414 950q-2 7 -2 21t14 28.5t35 14.5h262q44 0 68 -49l225 -535l225 535q24 49 68 49h262q20 0 34.5 -14.5t14.5 -28.5t-2 -21l-414 -950q-10 -18 -23 -34.5t-44 -16.5h-242z" />
    <glyph glyph-name="w" unicode="w" horiz-adv-x="1773" 
d="M983 1065q52 0 70 -49l151 -465l152 465q18 49 69 49h254q20 0 35 -14.5t15 -28.5t-3 -23l-325 -948q-17 -51 -68 -51h-233q-45 0 -68 51l-145 430l-146 -430q-23 -51 -67 -51h-234q-50 0 -67 51l-326 948q-2 9 -2 23t14.5 28.5t34.5 14.5h254q52 0 70 -49l151 -465
l152 465q18 49 70 49h192z" />
    <glyph glyph-name="x" unicode="x" horiz-adv-x="1261" 
d="M1227 46q0 -18 -14.5 -32t-34.5 -14h-314q-34 0 -65 39l-170 215l-168 -215q-31 -39 -66 -39h-313q-20 0 -34.5 14.5t-14.5 31.5t8 30l362 465l-352 448q-8 11 -8 29t14.5 32.5t34.5 14.5h318q34 0 65 -39l158 -203l158 203q31 39 65 39h318q20 0 34.5 -14.5t14.5 -31.5
t-9 -30l-354 -457l359 -456q8 -12 8 -30z" />
    <glyph glyph-name="y" unicode="y" horiz-adv-x="1282" 
d="M346 -389q-20 0 -34.5 14.5t-14.5 28.5t2 20l156 367l-414 960q-2 7 -2 21t14.5 28.5t34.5 14.5h268q42 0 60 -49l227 -533l225 533q18 49 60 49h270q20 0 34.5 -14.5t14.5 -28.5t-2 -21l-571 -1341q-18 -49 -60 -49h-268z" />
    <glyph glyph-name="z" unicode="z" horiz-adv-x="1155" 
d="M1030 317q23 0 39 -16t16 -39v-207q0 -23 -16 -39t-39 -16h-893q-23 0 -39 16.5t-16 38.5v199q0 34 33 72l405 422h-362q-23 0 -39.5 16t-16.5 39v207q0 23 16.5 39t39.5 16h831q23 0 39 -16.5t16 -38.5v-199q0 -26 -28 -59l-416 -435h430z" />
    <glyph glyph-name="braceleft" unicode="{" horiz-adv-x="923" 
d="M578 266q0 -211 90 -240.5t129 -32.5q71 -5 71 -59v-206q0 -23 -16 -39.5t-39 -16.5q-267 0 -435.5 162.5t-168.5 409.5q0 122 -39 168.5t-70 58.5l-34 14q-59 27 -60 76v139q0 49 60 76l34 15q81 31 95 112.5t14 114.5q0 248 169 409.5t435 161.5q23 0 39 -16.5
t16 -38.5v-207q0 -53 -71 -58q-103 -8 -161 -66.5t-58 -207.5q0 -245 -179 -364q179 -119 179 -365z" />
    <glyph glyph-name="bar" unicode="|" horiz-adv-x="618" 
d="M494 -371q0 -23 -16.5 -39t-39.5 -16h-258q-23 0 -39 16.5t-16 38.5v2151q0 23 16.5 39t38.5 16h258q23 0 39.5 -16.5t16.5 -38.5v-2151z" />
    <glyph glyph-name="braceright" unicode="}" horiz-adv-x="923" 
d="M346 266q0 244 178 365q-117 73 -147.5 177.5t-30.5 183.5q0 150 -56.5 208.5t-178.5 71.5q-23 0 -39.5 16.5t-16.5 38.5v207q0 23 16.5 39t39.5 16q266 0 435 -161.5t169 -409.5q0 -122 39 -168.5t69 -58.5l35 -15q59 -27 60 -76v-139q0 -49 -60 -76l-35 -14
q-80 -31 -94 -113t-14 -114q0 -247 -168.5 -409.5t-435.5 -162.5q-23 0 -39.5 16.5t-16.5 39.5v206q0 53 72 59q104 8 161.5 67.5t57.5 205.5z" />
    <glyph glyph-name="asciitilde" unicode="~" horiz-adv-x="1150" 
d="M338 817q90 0 143.5 -13t141 -43t172.5 -30q86 0 147 53q22 16 46 18q24 1 32 -17.5t8 -57.5v-149q0 -68 -60.5 -116t-150.5 -48t-143 13t-141 43t-175 30t-145 -54q-20 -14 -45 -16t-33 16.5t-8 57.5v149q0 68 60.5 116t150.5 48z" />
    <glyph glyph-name="nbsp" unicode="&#xa0;" horiz-adv-x="434" 
 />
    <glyph glyph-name="exclamdown" unicode="&#xa1;" horiz-adv-x="602" 
d="M485 1010v-207q0 -23 -16 -39t-39 -16h-258q-23 0 -39 16t-16 39v207q0 23 16 39t39 16h258q23 0 39 -16t16 -39zM485 569v-882q0 -23 -16 -39t-39 -17h-258q-23 1 -39 17t-16 39v882q0 23 16 39t39 17h258q23 -1 39 -17t16 -39z" />
    <glyph glyph-name="cent" unicode="&#xa2;" horiz-adv-x="1263" 
d="M455 532.5q0 -40.5 4 -71.5q6 -74 55 -119t124 -45t110.5 19.5t51.5 45.5t30 38t36 12h269q23 0 40 -16.5t15 -42.5q-7 -87 -94 -199.5t-273 -155.5v-148q0 -23 -16 -39t-39 -16h-258q-23 0 -39 16.5t-16 38.5v154q-158 45 -258.5 161t-106.5 286q-2 31 -2 82t2 81
q6 170 106.5 285t258.5 160v135q0 23 16 39t39 16h258q23 0 39 -16t16 -39v-127q183 -43 256.5 -136t91 -145t19.5 -76t-15.5 -40.5t-39.5 -16.5h-269q-33 0 -58 38q-24 38 -59.5 57.5t-110.5 19.5t-124 -45t-55 -119q-4 -31 -4 -71.5z" />
    <glyph glyph-name="sterling" unicode="&#xa3;" horiz-adv-x="1544" 
d="M242 889q0 249 142.5 407t430.5 158t441 -132.5t157 -358.5q0 -18 -13.5 -31.5t-31.5 -13.5h-268q-35 0 -46.5 12t-23.5 46q-25 70 -68.5 110t-139.5 40t-148.5 -69t-52.5 -168v-53h329q23 0 39.5 -16.5t16.5 -39.5v-196q0 -23 -16.5 -39.5t-39.5 -16.5h-288q4 -23 6 -46
l4 -46q85 -24 154 -63t102.5 -53.5t69.5 -14.5q76 0 122 86q25 45 54 45h258q18 0 31.5 -13t13.5 -32q-4 -152 -123.5 -283t-319.5 -131q-98 0 -163.5 24t-117 52.5t-96.5 52t-102 23.5q-82 0 -127 -84q-25 -45 -53 -45h-258q-18 0 -32.5 14t-12.5 46q6 92 63 189.5
t160 153.5q-2 59 -12 125h-125q-23 0 -39.5 16.5t-16.5 39.5v196q0 23 16.5 39.5t39.5 16.5h84v53z" />
    <glyph glyph-name="currency" unicode="&#xa4;" horiz-adv-x="1282" 
d="M436 614q0 -86 59.5 -145t145.5 -59t145.5 59t59.5 145t-59.5 145.5t-145.5 59.5t-145.5 -59.5t-59.5 -145.5zM1133 616q0 -123 -60 -233l94 -92q16 -16 16.5 -39t-16.5 -39l-125 -125q-16 -16 -38.5 -16t-38.5 16l-95 92q-104 -57 -228 -57t-232 57l-93 -92
q-16 -16 -38.5 -16t-38.5 16l-125 125q-16 16 -16.5 38.5t16.5 39.5l92 92q-57 108 -57 232t57 229l-92 94q-16 16 -16.5 38.5t16.5 39.5l125 125q16 16 38.5 16t38.5 -16l93 -94q108 59 230 59t230 -59l95 94q16 16 38.5 16t38.5 -16l125 -125q16 -16 16.5 -39t-16.5 -39
l-94 -94q60 -105 60 -228z" />
    <glyph glyph-name="yen" unicode="&#xa5;" horiz-adv-x="1445" 
d="M53 1392q0 16 13.5 29t31.5 13h281q41 0 61.5 -20.5t24.5 -31.5l258 -467l258 467q4 10 24.5 31t61.5 21h281q18 0 31.5 -13.5t13.5 -28.5t-9 -30l-432 -762h246q23 0 39 -16.5t16 -38.5v-197q0 -23 -16 -39t-39 -16h-289v-238q0 -23 -16 -39t-39 -16h-262
q-23 0 -39 16.5t-16 38.5v238h-291q-23 0 -39.5 16.5t-16.5 38.5v197q0 23 16.5 39t39.5 16h246l-431 762q-8 14 -8 30z" />
    <glyph glyph-name="brokenbar" unicode="&#xa6;" horiz-adv-x="626" 
d="M498 55q0 -23 -16.5 -39t-39.5 -16h-258q-23 0 -39 16.5t-16 38.5v615q0 23 16.5 39t38.5 16h258q23 0 39.5 -16.5t16.5 -38.5v-615zM498 1028q0 -23 -16.5 -39t-39.5 -16h-258q-23 0 -39 16.5t-16 38.5v614q0 23 16.5 39.5t38.5 16.5h258q23 0 39.5 -16.5t16.5 -39.5
v-614z" />
    <glyph glyph-name="section" unicode="&#xa7;" horiz-adv-x="1265" 
d="M489 723q-65 -40 -65 -86q0 -45 50 -79.5t188 -74.5q29 -10 57.5 -19t56.5 -20q66 36 66 84q0 47 -46 79t-154 65q-108 32 -153 51zM1092 92q0 -165 -127.5 -272t-352.5 -107q-226 0 -327 78t-129.5 131t-30.5 85t12.5 48.5t32.5 16.5h254q23 0 37 -13.5t47 -41t92 -27.5
t91 24.5t32 55.5t-15.5 50t-57.5 41t-185 67t-209 86.5t-129.5 117.5t-63.5 186q0 109 39 177.5t117 124.5q-45 72 -45 154q0 164 125.5 272t354.5 108t328 -78t128 -131t31 -85t-12.5 -48t-32.5 -16h-254q-23 0 -37 12t-48.5 41t-92.5 29t-89.5 -25t-31.5 -55t27.5 -66
t283.5 -110q259 -84 303.5 -204t44.5 -175q0 -188 -158 -295q48 -74 48 -156z" />
    <glyph glyph-name="dieresis" unicode="&#xa8;" horiz-adv-x="1003" 
d="M891 1274q0 -23 -16.5 -39t-38.5 -16h-207q-23 0 -39.5 16t-16.5 39v207q0 23 16.5 39t39.5 16h207q23 0 39 -16.5t16 -38.5v-207zM430 1274q0 -23 -16.5 -39t-38.5 -16h-207q-23 0 -39 16t-16 39v207q0 23 16 39t39 16h207q23 0 39 -16.5t16 -38.5v-207z" />
    <glyph glyph-name="copyright" unicode="&#xa9;" horiz-adv-x="1650" 
d="M283 716.5q0 -114.5 42 -215t114.5 -176t172 -118.5t214 -43t214 43t172 118.5t114.5 176t42 215t-42 215t-114.5 176.5t-172 119t-214 43t-214 -43t-172 -119t-114.5 -176.5t-42 -215zM88 716.5q0 153.5 58.5 288t157.5 233.5t233.5 157.5t288 58.5t287.5 -58.5
t233.5 -157.5t158 -233.5t58.5 -288t-58.5 -287.5t-158 -233.5t-233.5 -157.5t-287.5 -58t-288 58t-233.5 157.5t-157.5 233.5t-58.5 287.5zM719 718.5q0 -38.5 3 -83.5q7 -109 103 -109q64 0 97 60q6 12 17 27.5t36 15.5h164q45 0 45 -45q0 -85 -102 -172.5t-260 -87.5
t-254.5 90.5t-100.5 234.5q-2 31 -2 70t2 91t28.5 111.5t99 126t229.5 66.5t258.5 -87.5t101.5 -172.5q0 -45 -45 -45h-164q-25 0 -36 15.5t-17 27.5q-30 59 -112 59q-81 0 -89 -123q-2 -31 -2 -69.5z" />
    <glyph glyph-name="ordfeminine" unicode="&#xaa;" horiz-adv-x="729" 
d="M418 1247q0 53 -44 53q-32 0 -57.5 -16t-48.5 -16h-108q-71 0 -43 49t80.5 88t180.5 39t189.5 -61.5t61.5 -159.5v-289q0 -45 -45 -45h-111q-45 0 -45 45v14q-38 -69 -137 -69q-98 0 -160.5 44.5t-62.5 122.5t71.5 122t190.5 65zM279 1053q0 -31 47 -31t69.5 30.5
t22.5 59.5v12l-56 -12q-51 -10 -67 -24.5t-16 -34.5z" />
    <glyph glyph-name="guillemotleft" unicode="&#xab;" horiz-adv-x="1282" 
d="M68 741q0 33 28 58l424 411q14 11 30 11q17 0 30.5 -13.5t13.5 -31.5v-232q0 -35 -8 -53.5t-29 -38.5l-184 -178l184 -178q37 -37 37 -93v-231q0 -18 -13.5 -31.5t-30.5 -13.5t-30 10l-424 412q-29 25 -28 57v135zM641 741q0 33 29 58l424 411q14 11 30 11t29.5 -13.5
t13.5 -31.5v-232q0 -35 -8 -53.5t-29 -38.5l-184 -178l184 -178q37 -37 37 -93v-231q0 -18 -13 -31.5t-30 -13.5t-30 10l-424 412q-29 25 -29 57v135z" />
    <glyph glyph-name="logicalnot" unicode="&#xac;" horiz-adv-x="1181" 
d="M1051 205q0 -23 -16.5 -39t-39.5 -16h-258q-23 0 -39 16t-16 39v194h-516q-23 0 -39 16.5t-16 39.5v207q0 23 16 39t39 16h829q23 0 39.5 -16.5t16.5 -38.5v-457z" />
    <glyph glyph-name="registered" unicode="&#xae;" horiz-adv-x="1650" 
d="M283 716.5q0 -114.5 42 -215t114.5 -176t172 -118.5t214 -43t214 43t172 118.5t114.5 176t42 215t-42 215t-114.5 176.5t-172 119t-214 43t-214 -43t-172 -119t-114.5 -176.5t-42 -215zM88 716.5q0 153.5 58.5 288t157.5 233.5t233.5 157.5t288 58.5t287.5 -58.5
t233.5 -157.5t158 -233.5t58.5 -288t-58.5 -287.5t-158 -233.5t-233.5 -157.5t-287.5 -58t-288 58t-233.5 157.5t-157.5 233.5t-58.5 287.5zM758 770h76q41 0 60 19.5t19 50t-19.5 51t-59.5 20.5h-76v-141zM1157 844q0 -143 -96 -219l108 -207q20 -31 3 -52.5t-39 -21.5
h-160q-41 0 -60 39l-94 195h-61v-189q0 -45 -45 -45h-154q-45 0 -45 45v660q0 45 45 45h346q125 0 188.5 -70.5t63.5 -179.5z" />
    <glyph glyph-name="macron" unicode="&#xaf;" horiz-adv-x="927" 
d="M168 1219q-23 0 -39 16t-16 39v176q0 23 16 39t39 16h592q23 0 39 -16t16 -39v-176q0 -23 -16.5 -39t-38.5 -16h-592z" />
    <glyph glyph-name="degree" unicode="&#xb0;" horiz-adv-x="864" 
d="M170 1351q109 103 262 103t262 -103t109 -257t-109 -257.5t-262 -103.5t-262 103.5t-109 257.5t109 257zM276 1093.5q0 -69.5 43 -112.5t113 -43t113 43t43 112.5t-43 112.5t-113 43t-113 -43t-43 -112.5z" />
    <glyph glyph-name="plusminus" unicode="&#xb1;" horiz-adv-x="1177" 
d="M772 729v-283q0 -23 -16.5 -39t-38.5 -16h-252q-23 0 -39 16.5t-16 38.5v283h-260q-23 0 -39.5 16.5t-16.5 38.5v207q0 23 16.5 39.5t39.5 16.5h260v270q0 23 16 39t39 16h252q23 0 39 -16.5t16 -38.5v-270h256q23 0 39 -16.5t16 -39.5v-207q0 -23 -16 -39t-39 -16h-256z
M190 0q-23 0 -39 16.5t-16 38.5v207q0 23 16.5 39t38.5 16h797q23 0 39 -16t16 -39v-207q0 -23 -16 -39t-39 -16h-797z" />
    <glyph glyph-name="twosuperior" unicode="&#xb2;" horiz-adv-x="733" 
d="M55 850q0 28 51 65q92 68 152 111t94 73q35 30 48 50q14 20 14 47t-18 40t-40 13q-23 0 -39 -30q-16 -31 -29 -37t-30 -6h-145q-41 0 -37 38q6 94 82 162t206 68t209 -68q78 -68 78 -166t-46 -152q-46 -55 -171 -147h187q45 0 45 -45v-104q0 -45 -45 -45h-521
q-45 0 -45 41v92z" />
    <glyph glyph-name="threesuperior" unicode="&#xb3;" horiz-adv-x="737" 
d="M438 952q0 50 -69 52h-113q-45 0 -45 45v47q0 23 22 45l109 98h-209q-45 0 -45 45v105q0 45 45 45h461q45 0 45 -45v-91q0 -20 -6 -29t-23 -26l-90 -88q84 -32 109 -61q47 -57 47 -126q0 -119 -87 -190t-224 -71t-226 62t-94 130q-2 19 11 29t24 10h174q23 0 54 -18
t60 -19q30 0 50 8t20 43z" />
    <glyph glyph-name="acute" unicode="&#xb4;" horiz-adv-x="811" 
d="M387 1546h272q39 0 39 -41q0 -14 -10 -24l-276 -228q-39 -34 -86 -34h-181q-33 0 -32 32q0 16 10 27l188 229q23 27 38.5 33t37.5 6z" />
    <glyph glyph-name="mu" unicode="&#xb5;" horiz-adv-x="1343" 
d="M582 -20q-50 0 -86 4v-338q0 -23 -16.5 -39.5t-39.5 -16.5h-258q-23 0 -39 16.5t-16 39.5v1364q0 23 16.5 39t38.5 16h258q23 0 39.5 -16.5t16.5 -38.5v-537q2 -80 35.5 -128t123.5 -48t142.5 53t52.5 142v518q0 23 16.5 39t38.5 16h258q23 0 39.5 -16.5t16.5 -38.5v-955
q0 -23 -16.5 -39t-39.5 -16h-248q-23 0 -39 16.5t-16 38.5v47q-57 -81 -142.5 -101.5t-135.5 -20.5z" />
    <glyph glyph-name="paragraph" unicode="&#xb6;" horiz-adv-x="1269" 
d="M170 1319q115 115 279 115h626q23 0 39 -16.5t16 -39.5v-1528q0 -23 -16 -39t-39 -16h-149q-23 0 -39.5 16.5t-16.5 38.5v1344h-161v-1344q0 -23 -16.5 -39t-39.5 -16h-149q-23 0 -39 16.5t-16 38.5v797q-164 0 -279 115t-115 278.5t115 278.5z" />
    <glyph glyph-name="periodcentered" unicode="&#xb7;" horiz-adv-x="688" 
d="M78 614.5q0 55.5 20.5 103.5t57.5 85t85 57.5t103 20.5t103.5 -20.5t85 -57.5t57 -85t20.5 -103.5t-20.5 -103.5t-57 -85t-85 -57.5t-103.5 -20.5t-103 20.5t-85 57.5t-57.5 85t-20.5 103.5z" />
    <glyph glyph-name="cedilla" unicode="&#xb8;" horiz-adv-x="598" 
d="M330 -90q78 0 116.5 -53.5t38.5 -127t-55 -127t-137 -53.5t-124 27t-52.5 44.5t8.5 33.5l37 33q16 14 27.5 14t36 -13.5t57.5 -13.5q67 0 67 56t-67 55q-14 0 -29.5 -4t-40.5 -9t-41 11l-37 43q-12 16 -15 27.5t11 40.5l78 161h125l-80 -166q32 21 76 21z" />
    <glyph glyph-name="onesuperior" unicode="&#xb9;" horiz-adv-x="581" 
d="M496 762q0 -45 -45 -45h-148q-45 0 -45 45v362l-86 -65q-14 -10 -32 -8t-31 18l-76 92q-27 36 8 64l260 194q20 14 47 15h103q45 0 45 -45v-627z" />
    <glyph glyph-name="ordmasculine" unicode="&#xba;" horiz-adv-x="720" 
d="M360.5 1288q-26.5 0 -41 -17t-17.5 -49t-3 -60.5t3 -62.5t17.5 -49.5t41 -15.5t41 15t17.5 49t3 63t-3 61t-17.5 49t-41 17zM360.5 1444q112.5 0 195.5 -61.5t91 -165.5q2 -16 2 -55.5t-3 -75.5t-26.5 -77.5t-63.5 -71.5t-90 -44t-137 -14t-169 61.5t-86 165.5
q-2 16 -2 55t2 75t28.5 78t86 86t172 44z" />
    <glyph glyph-name="guillemotright" unicode="&#xbb;" horiz-adv-x="1282" 
d="M1214 606q0 -33 -28 -57l-424 -412q-12 -10 -30 -10q-17 0 -30.5 13.5t-13.5 31.5v231q0 35 8.5 53.5t28.5 39.5l184 178l-184 178q-37 37 -37 92v232q0 18 13.5 31.5t30.5 13.5t30 -11l424 -411q29 -25 28 -58v-135zM641 606q0 -33 -29 -57l-424 -412q-12 -10 -29 -10
t-30.5 13.5t-13.5 31.5v231q0 35 8 53.5t29 39.5l184 178l-184 178q-37 37 -37 92v232q0 18 13 31.5t30 13.5t30 -11l424 -411q29 -25 29 -58v-135z" />
    <glyph glyph-name="onequarter" unicode="&#xbc;" horiz-adv-x="1644" 
d="M227 0q-49 0 -49 41q0 10 8 22l1012 1332q29 37 74 39h127q23 0 36 -12t13 -26t-8 -26l-1012 -1331q-30 -39 -74 -39h-127zM526 762q0 -45 -45 -45h-147q-45 0 -45 45v362l-86 -65q-15 -10 -33 -8t-31 18l-76 92q-27 36 9 64l260 194q20 14 47 15h102q45 0 45 -45v-627z
M1227 311v164l-127 -164h127zM1415 717q45 0 45 -45v-361h72q45 0 45 -45v-104q0 -45 -45 -45h-72v-72q0 -45 -45 -45h-147q-45 0 -45 45v72h-324q-45 0 -45 45v102q0 29 25 62l274 354q26 37 61 37h201z" />
    <glyph glyph-name="onehalf" unicode="&#xbd;" horiz-adv-x="1667" 
d="M227 0q-49 0 -49 41q0 10 8 22l1012 1332q29 37 74 39h127q23 0 36 -12t13 -26t-8 -26l-1012 -1331q-30 -39 -74 -39h-127zM526 762q0 -45 -45 -45h-147q-45 0 -45 45v362l-86 -65q-15 -10 -33 -8t-31 18l-76 92q-27 36 9 64l260 194q20 14 47 15h102q45 0 45 -45v-627z
M975 133q0 28 51 66q92 69 152 111t94 72q35 30 48 50t13 47t-17 40t-40 13t-39 -30q-15 -30 -29 -36q-14 -7 -30 -7h-146q-41 0 -37 39q6 94 82 162t207 67q131 0 209 -68t78 -165t-45 -152q-45 -56 -172 -147h186q45 0 45 -45v-105q0 -45 -45 -45h-520q-45 0 -45 41v92z
" />
    <glyph glyph-name="threequarters" unicode="&#xbe;" horiz-adv-x="1689" 
d="M279 0q-48 0 -50 41q0 11 9 22l1011 1332q29 37 74 39h127q23 0 36 -12t13 -26t-8 -26l-1012 -1331q-30 -39 -73 -39h-127zM272 1004q-45 0 -45 45v47q0 23 23 45l108 98h-208q-45 0 -46 45v105q0 45 46 45h460q45 0 45 -45v-91q0 -20 -6 -29t-22 -26l-90 -88
q83 -31 107 -61q48 -58 48 -126q0 -121 -87 -191t-223 -70q-137 0 -227 62t-94 130q-3 19 11 29t24 10h174q21 0 54 -18t62 -19q28 0 48 8t21 43q0 50 -70 52h-113zM1278 311v164l-127 -164h127zM1466 717q45 0 45 -45v-361h72q45 0 45 -45v-104q0 -45 -45 -45h-72v-72
q0 -45 -45 -45h-147q-45 0 -45 45v72h-324q-45 0 -45 45v102q0 29 25 62l274 354q26 37 62 37h200z" />
    <glyph glyph-name="questiondown" unicode="&#xbf;" horiz-adv-x="1226" 
d="M618 -389q-241 0 -402 120t-161 298t170 314q119 95 158 138t48 77q17 65 59 67h249q23 -1 39 -17t17 -39q0 -156 -186 -299q-123 -95 -154 -134q-31 -40 -31 -90t45 -84t138 -34t133 28t58 60t32 61q13 28 53 28h250q18 -1 31 -13t14 -33q-2 -72 -41 -150
q-83 -171 -289 -255q-104 -43 -230 -43zM430 1010q0 23 16 39t39 16h258q23 0 39 -16t17 -39v-207q-1 -23 -17 -39t-39 -16h-258q-23 0 -39 16t-16 39v207z" />
    <glyph glyph-name="Agrave" unicode="&#xc0;" 
d="M569 539h332l-166 491zM901 1434q41 0 63 -23t29 -45l447 -1290q8 -20 8 -34t-13 -28t-32 -14h-258q-41 0 -59 17t-21 34l-57 170h-545l-57 -170q-4 -15 -22 -33t-58 -18h-258q-18 0 -32 13q-13 13 -13 27t8 36l446 1290q8 24 30 46t62 22h332zM901 1569q0 -33 -33 -33
h-200q-49 0 -86 35l-277 227q-10 10 -10 25q0 41 39 41h293q23 0 38 -6t37 -33l189 -230q10 -10 10 -26z" />
    <glyph glyph-name="Aacute" unicode="&#xc1;" 
d="M569 539h332l-166 491zM901 1434q41 0 63 -23t29 -45l447 -1290q8 -20 8 -34t-13 -28t-32 -14h-258q-41 0 -59 17t-21 34l-57 170h-545l-57 -170q-4 -15 -22 -33t-58 -18h-258q-18 0 -32 13q-13 13 -13 27t8 36l446 1290q8 24 30 46t62 22h332zM848 1864h293q39 0 39 -41
q0 -14 -11 -25l-276 -227q-40 -35 -86 -35h-201q-33 0 -33 33q0 16 11 26l188 230q23 27 38 33t38 6z" />
    <glyph glyph-name="Acircumflex" unicode="&#xc2;" 
d="M569 539h332l-166 491zM901 1434q41 0 63 -23t29 -45l447 -1290q8 -20 8 -34t-13 -28t-32 -14h-258q-41 0 -59 17t-21 34l-57 170h-545l-57 -170q-4 -15 -22 -33t-58 -18h-258q-18 0 -32 13q-13 13 -13 27t8 36l446 1290q8 24 30 46t62 22h332zM836 1864q38 0 75 -39
l209 -230q10 -10 10 -26q0 -33 -32 -33h-148q-23 0 -63 23l-152 88l-151 -88q-41 -23 -64 -23h-147q-33 0 -33 33q0 16 10 26l209 230q32 37 76 39h201z" />
    <glyph glyph-name="Atilde" unicode="&#xc3;" 
d="M569 539h332l-166 491zM901 1434q41 0 63 -23t29 -45l447 -1290q8 -20 8 -34t-13 -28t-32 -14h-258q-41 0 -59 17t-21 34l-57 170h-545l-57 -170q-4 -15 -22 -33t-58 -18h-258q-18 0 -32 13q-13 13 -13 27t8 36l446 1290q8 24 30 46t62 22h332zM1104 1843q39 0 39 -43
q-1 -43 -17 -92q-33 -99 -119 -156q-43 -26 -117 -26t-153 46q-31 18 -57 32t-54 14t-40 -13t-22 -29t-17 -28q-8 -12 -25 -12h-155q-39 0 -39 42q0 106 62 191t164 85q102 -1 179 -47q31 -17 57 -31t54 -14t41 12q12 12 21 27q10 15 18 29t24 13h156z" />
    <glyph glyph-name="Adieresis" unicode="&#xc4;" 
d="M569 539h332l-166 491zM901 1434q41 0 63 -23t29 -45l447 -1290q8 -20 8 -34t-13 -28t-32 -14h-258q-41 0 -59 17t-21 34l-57 170h-545l-57 -170q-4 -15 -22 -33t-58 -18h-258q-18 0 -32 13q-13 13 -13 27t8 36l446 1290q8 24 30 46t62 22h332zM1155 1591q0 -23 -16 -39
t-39 -16h-207q-23 0 -39 16t-16 39v207q0 23 16 39t39 16h207q23 0 39 -16t16 -39v-207zM633 1591q-1 -23 -17 -39t-38 -16h-207q-23 0 -39 16t-17 39v207q1 23 17 39t39 16h207q22 0 38 -16t17 -39v-207z" />
    <glyph glyph-name="Aring" unicode="&#xc5;" 
d="M569 539h332l-166 491zM901 1434q41 0 63 -23t29 -45l447 -1290q8 -20 8 -34t-13 -28t-32 -14h-258q-41 0 -59 17t-21 34l-57 170h-545l-57 -170q-4 -15 -22 -33t-58 -18h-258q-18 0 -32 13q-13 13 -13 27t8 36l446 1290q8 24 30 46t62 22h332zM541 1700q0 80 57 132
t137 52t137 -52q58 -52 58 -132t-58 -132t-137 -52q-80 0 -137 52t-57 132zM674 1700q0 -27 17 -44q17 -18 44 -18t44 18t18 44q1 27 -17 44t-45 17t-44 -17t-17 -44z" />
    <glyph glyph-name="AE" unicode="&#xc6;" horiz-adv-x="2076" 
d="M903 539v567h-35l-252 -567h287zM1913 1434q23 0 39 -16.5t16 -39.5v-217q0 -23 -16.5 -39t-38.5 -16h-631v-221h586q23 0 39 -16.5t16 -39.5v-217q0 -23 -16.5 -39t-38.5 -16h-586v-229h647q23 0 39.5 -16.5t16.5 -39.5v-217q0 -23 -16.5 -39t-39.5 -16h-971
q-23 0 -39 16.5t-16 38.5v166h-428l-76 -170q-32 -51 -80 -51h-262q-23 0 -39 16.5t-16 32.5t8 31l576 1286q12 23 31.5 45.5t60.5 22.5h1235z" />
    <glyph glyph-name="Ccedilla" unicode="&#xc7;" horiz-adv-x="1437" 
d="M721 -326q67 0 67 56t-67 55q-14 0 -29.5 -4t-39.5 -9t-42 11l-37 43q-12 16 -15 27.5t11 40.5l45 94q-231 31 -371.5 185t-148.5 362q-4 84 -4 180.5t4 196.5t49 201t173 221t404 120t461 -145t189 -359q0 -18 -13.5 -31.5t-31.5 -13.5h-268q-35 0 -47.5 13.5
t-21.5 42.5t-24.5 57.5t-44 52t-73.5 39.5t-143.5 16t-159.5 -64.5t-70 -172.5q-4 -54 -4 -172.5t4 -168.5t18.5 -93t45 -76t78 -52.5t142 -19.5t151.5 47t73 98q16 50 28.5 63t47.5 13h268q18 0 31.5 -13t13.5 -32q-4 -208 -185.5 -355.5t-449.5 -147.5l-43 -91
q31 21 76 21q78 0 117 -53.5t39 -127t-55.5 -127t-137.5 -53.5t-124 27t-52 44.5t8 33.5l37 33q16 14 27.5 14t37.5 -13.5t56 -13.5z" />
    <glyph glyph-name="Egrave" unicode="&#xc8;" horiz-adv-x="1316" 
d="M1169 328q23 0 39 -16t17 -40v-217q-1 -23 -17 -39t-39 -16h-970q-23 0 -39 16t-17 39v1323q1 23 17 39t39 17h954q23 0 39 -16t16 -40v-217q0 -23 -16 -39t-39 -16h-631v-221h586q23 -1 39 -17t16 -39v-217q0 -23 -16 -39t-39 -16h-586v-229h647zM807 1536h-201
q-46 0 -86 35l-276 227q-10 10 -11 25q0 41 39 41h293q23 0 38 -6t38 -33l188 -230q10 -10 11 -26q0 -33 -33 -33z" />
    <glyph glyph-name="Eacute" unicode="&#xc9;" horiz-adv-x="1316" 
d="M1169 328q23 0 39 -16t17 -40v-217q-1 -23 -17 -39t-39 -16h-970q-23 0 -39 16t-17 39v1323q1 23 17 39t39 17h954q23 0 39 -16t16 -40v-217q0 -23 -16 -39t-39 -16h-631v-221h586q23 -1 39 -17t16 -39v-217q0 -23 -16 -39t-39 -16h-586v-229h647zM801 1864h293
q39 0 39 -41q0 -14 -11 -25l-276 -227q-40 -35 -86 -35h-201q-33 0 -33 33q0 16 11 26l188 230q23 27 38 33t38 6z" />
    <glyph glyph-name="Ecircumflex" unicode="&#xca;" horiz-adv-x="1316" 
d="M1169 328q23 0 39 -16t17 -40v-217q-1 -23 -17 -39t-39 -16h-970q-23 0 -39 16t-17 39v1323q1 23 17 39t39 17h954q23 0 39 -16t16 -40v-217q0 -23 -16 -39t-39 -16h-631v-221h586q23 -1 39 -17t16 -39v-217q0 -23 -16 -39t-39 -16h-586v-229h647zM784 1864q39 0 76 -39
l209 -230q10 -10 10 -26q0 -33 -32 -33h-148q-25 0 -63 23l-152 88l-152 -88q-18 -11 -30 -17t-33 -6h-147q-33 0 -33 33q0 16 10 26l209 230q32 37 76 39h200z" />
    <glyph glyph-name="Edieresis" unicode="&#xcb;" horiz-adv-x="1316" 
d="M1169 328q23 0 39 -16t17 -40v-217q-1 -23 -17 -39t-39 -16h-970q-23 0 -39 16t-17 39v1323q1 23 17 39t39 17h954q23 0 39 -16t16 -40v-217q0 -23 -16 -39t-39 -16h-631v-221h586q23 -1 39 -17t16 -39v-217q0 -23 -16 -39t-39 -16h-586v-229h647zM1104 1591
q0 -23 -16 -39t-39 -16h-207q-23 0 -39 16t-17 39v207q0 23 16 39t40 16h207q23 0 39 -16t16 -39v-207zM582 1591q0 -23 -16 -39t-40 -16h-207q-23 0 -39 16t-16 39v207q0 23 16 39t39 16h207q23 0 39 -16t17 -39v-207z" />
    <glyph glyph-name="Igrave" unicode="&#xcc;" horiz-adv-x="665" 
d="M199 0q-23 0 -39 16t-17 39v1323q1 23 17 39t39 17h268q23 0 39 -16t16 -40v-1323q0 -23 -16 -39t-39 -16h-268zM489 1569q0 -33 -32 -33h-201q-46 0 -86 35l-276 227q-10 10 -11 25q0 41 39 41h293q23 0 38 -6t38 -33l188 -230q10 -10 10 -26z" />
    <glyph glyph-name="Iacute" unicode="&#xcd;" horiz-adv-x="665" 
d="M199 0q-23 0 -39 16t-17 39v1323q1 23 17 39t39 17h268q23 0 39 -16t16 -40v-1323q0 -23 -16 -39t-39 -16h-268zM449 1864h292q39 0 39 -41q0 -14 -10 -25l-276 -227q-40 -35 -86 -35h-201q-33 0 -33 33q0 16 10 26l189 230q23 27 38 33t38 6z" />
    <glyph glyph-name="Icircumflex" unicode="&#xce;" horiz-adv-x="665" 
d="M199 0q-23 0 -39 16t-17 39v1323q1 23 17 39t39 17h268q23 0 39 -16t16 -40v-1323q0 -23 -16 -39t-39 -16h-268zM432 1864q39 0 76 -39l209 -230q10 -10 10 -26q0 -33 -33 -33h-147q-24 0 -64 23l-151 88l-152 -88q-18 -11 -30 -17t-33 -6h-148q-33 0 -32 33q0 16 10 26
l209 230q32 37 75 39h201z" />
    <glyph glyph-name="Idieresis" unicode="&#xcf;" horiz-adv-x="665" 
d="M199 0q-23 0 -39 16t-17 39v1323q1 23 17 39t39 17h268q23 0 39 -16t16 -40v-1323q0 -23 -16 -39t-39 -16h-268zM752 1591q0 -23 -16 -39t-40 -16h-207q-23 0 -39 16t-16 39v207q0 23 16 39t39 16h207q23 0 39 -16t17 -39v-207zM229 1591q0 -23 -16 -39t-39 -16h-207
q-23 0 -39 16t-16 39v207q0 23 16 39t39 16h207q23 0 39 -16t16 -39v-207z" />
    <glyph glyph-name="Eth" unicode="&#xd0;" horiz-adv-x="1546" 
d="M797 1106h-209v-238h153q23 0 39.5 -16t16.5 -39v-176q0 -23 -16.5 -39t-39.5 -16h-153v-254h219q258 0 268 235q2 43 2 53v110q0 101 -2 144q-12 236 -278 236zM807 1434q281 0 458 -158t189 -414q2 -43 2 -52v-178q0 -170 -51 -283t-180 -231t-408 -118h-553
q-23 0 -39 16.5t-16 38.5v527h-109q-23 0 -39 16t-16 39v176q0 23 16.5 39t38.5 16h109v510q0 23 16.5 39.5t38.5 16.5h543z" />
    <glyph glyph-name="Ntilde" unicode="&#xd1;" horiz-adv-x="1486" 
d="M1075 0q-35 0 -57 18t-27 29l-469 701v-693q0 -23 -16 -39t-39 -16h-268q-23 0 -39 16t-17 39v1323q1 23 17 39t39 17h213q34 0 56 -18t28 -30l469 -700v692q0 23 16 39t39 17h268q23 0 39 -16t16 -40v-1323q0 -23 -16 -39t-39 -16h-213zM1112 1843q39 0 39 -43
q0 -102 -68 -188t-163 -86t-175 46q-31 18 -57 32t-54 14t-40 -13t-22 -29t-17 -28q-8 -12 -25 -12h-155q-39 0 -39 42q0 106 62 191t164 85q102 -1 179 -47q31 -17 57 -31t54 -14t41 12q12 12 21 27q10 15 18 29t24 13h156z" />
    <glyph glyph-name="Ograve" unicode="&#xd2;" 
d="M735 1126q-258 0 -264 -282q-2 -78 -2 -161t6 -138q9 -102 71 -170t189 -68t189 68q61 68 71 170q6 111 6 175t-5 142q-17 264 -261 264zM1192 1297q169 -157 182 -398q4 -88 4 -184q0 -95 -5 -195t-49 -202q-92 -213 -323 -295q-117 -43 -267 -43q-289 0 -457 157
t-181 398q-4 84 -4 180q0 95 5 197t49 203t125 176q176 163 464 163t457 -157zM844 1536h-201q-46 0 -86 35l-276 227q-10 10 -11 25q0 41 39 41h293q23 0 38 -6t38 -33l188 -230q10 -10 11 -26q0 -33 -33 -33z" />
    <glyph glyph-name="Oacute" unicode="&#xd3;" 
d="M735 1126q-258 0 -264 -282q-2 -78 -2 -161t6 -138q9 -102 71 -170t189 -68t189 68q61 68 71 170q6 111 6 175t-5 142q-17 264 -261 264zM1192 1297q169 -157 182 -398q4 -88 4 -184q0 -95 -5 -195t-49 -202q-92 -213 -323 -295q-117 -43 -267 -43q-289 0 -457 157
t-181 398q-4 84 -4 180q0 95 5 197t49 203t125 176q176 163 464 163t457 -157zM840 1864h293q39 0 38 -41q0 -14 -10 -25l-276 -227q-40 -35 -86 -35h-201q-33 0 -33 33q0 16 10 26l189 230q23 27 38 33t38 6z" />
    <glyph glyph-name="Ocircumflex" unicode="&#xd4;" 
d="M735 1126q-258 0 -264 -282q-2 -78 -2 -161t6 -138q9 -102 71 -170t189 -68t189 68q61 68 71 170q6 111 6 175t-5 142q-17 264 -261 264zM1192 1297q169 -157 182 -398q4 -88 4 -184q0 -95 -5 -195t-49 -202q-92 -213 -323 -295q-117 -43 -267 -43q-289 0 -457 157
t-181 398q-4 84 -4 180q0 95 5 197t49 203t125 176q176 163 464 163t457 -157zM836 1864q38 0 75 -39l209 -230q10 -10 10 -26q0 -33 -32 -33h-148q-23 0 -63 23l-152 88l-151 -88q-41 -23 -64 -23h-147q-33 0 -33 33q0 16 10 26l209 230q32 37 76 39h201z" />
    <glyph glyph-name="Otilde" unicode="&#xd5;" 
d="M735 1126q-258 0 -264 -282q-2 -78 -2 -161t6 -138q9 -102 71 -170t189 -68t189 68q61 68 71 170q6 111 6 175t-5 142q-17 264 -261 264zM1192 1297q169 -157 182 -398q4 -88 4 -184q0 -95 -5 -195t-49 -202q-92 -213 -323 -295q-117 -43 -267 -43q-289 0 -457 157
t-181 398q-4 84 -4 180q0 95 5 197t49 203t125 176q176 163 464 163t457 -157zM1104 1843q39 0 39 -43q-1 -43 -17 -92q-33 -99 -119 -156q-43 -26 -117 -26t-153 46q-31 18 -57 32t-54 14t-40 -13t-22 -29t-17 -28q-8 -12 -25 -12h-155q-39 0 -39 42q0 106 62 191t164 85
q102 -1 179 -47q31 -17 57 -31t54 -14t41 12q12 12 21 27q10 15 18 29t24 13h156z" />
    <glyph glyph-name="Odieresis" unicode="&#xd6;" 
d="M735 1126q-258 0 -264 -282q-2 -78 -2 -161t6 -138q9 -102 71 -170t189 -68t189 68q61 68 71 170q6 111 6 175t-5 142q-17 264 -261 264zM1192 1297q169 -157 182 -398q4 -88 4 -184q0 -95 -5 -195t-49 -202q-92 -213 -323 -295q-117 -43 -267 -43q-289 0 -457 157
t-181 398q-4 84 -4 180q0 95 5 197t49 203t125 176q176 163 464 163t457 -157zM1155 1591q0 -23 -16 -39t-39 -16h-207q-23 0 -39 16t-16 39v207q0 23 16 39t39 16h207q23 0 39 -16t16 -39v-207zM633 1591q-1 -23 -17 -39t-38 -16h-207q-23 0 -39 16t-17 39v207q1 23 17 39
t39 16h207q22 0 38 -16t17 -39v-207z" />
    <glyph glyph-name="multiply" unicode="&#xd7;" horiz-adv-x="1273" 
d="M377 680l-264 266q-16 16 -17 39q0 23 17 39l182 182q16 16 39 16t39 -16l264 -266l264 264q16 16 39 16t39 -16l182 -182q17 -16 17 -39t-17 -39l-264 -264l264 -262q17 -16 17 -39t-17 -39l-182 -182q-16 -16 -39 -16t-39 16l-264 262l-264 -264q-16 -16 -39 -16
t-39 16l-182 182q-16 16 -17 39q0 23 17 39z" />
    <glyph glyph-name="Oslash" unicode="&#xd8;" horiz-adv-x="1548" 
d="M780 307q121 0 182.5 68t71.5 170q6 50 6 155l-520 -198q18 -86 78.5 -140.5t181.5 -54.5zM774 1126q-180 0 -223 -105.5t-43 -293.5l520 201q-16 86 -76.5 142t-177.5 56zM760 1454q253 0 408.5 -107t213.5 -284l72 29q14 6 28 6t26 -12.5t12 -30.5v-119q0 -51 -45 -68
l-60 -22q19 -364 -62 -551t-255 -251t-310 -64q-248 0 -404 103t-218 282l-72 -27q-16 -6 -28 -6t-24.5 12t-12.5 31v119q0 51 45 67l57 23q-19 363 62 550.5t255.5 253.5t311.5 66z" />
    <glyph glyph-name="Ugrave" unicode="&#xd9;" horiz-adv-x="1503" 
d="M1319 1434q23 0 39 -16t16 -40v-817q0 -280 -171 -431q-171 -152 -454 -151t-451 153q-169 152 -169 429v817q0 23 16 39t39 17h269q23 0 39 -16t16 -40v-809q0 -123 60 -193t184 -69q124 0 183 70q60 70 60 192v809q1 23 17 39t39 17h268zM887 1536h-201q-46 0 -86 35
l-276 227q-10 10 -11 25q0 41 39 41h293q23 0 38 -6t38 -33l188 -230q10 -10 11 -26q0 -33 -33 -33z" />
    <glyph glyph-name="Uacute" unicode="&#xda;" horiz-adv-x="1503" 
d="M1319 1434q23 0 39 -16t16 -40v-817q0 -280 -171 -431q-171 -152 -454 -151t-451 153q-169 152 -169 429v817q0 23 16 39t39 17h269q23 0 39 -16t16 -40v-809q0 -123 60 -193t184 -69q124 0 183 70q60 70 60 192v809q1 23 17 39t39 17h268zM856 1864h293q39 0 39 -41
q0 -14 -10 -25l-277 -227q-40 -35 -86 -35h-201q-33 0 -32 33q0 16 10 26l188 230q23 27 38 33t38 6z" />
    <glyph glyph-name="Ucircumflex" unicode="&#xdb;" horiz-adv-x="1503" 
d="M1319 1434q23 0 39 -16t16 -40v-817q0 -280 -171 -431q-171 -152 -454 -151t-451 153q-169 152 -169 429v817q0 23 16 39t39 17h269q23 0 39 -16t16 -40v-809q0 -123 60 -193t184 -69q124 0 183 70q60 70 60 192v809q1 23 17 39t39 17h268zM852 1864q39 0 76 -39
l209 -230q10 -10 10 -26q0 -33 -33 -33h-147q-24 0 -64 23l-151 88l-152 -88q-41 -23 -63 -23h-148q-33 0 -33 33q0 16 11 26l208 230q32 37 76 39h201z" />
    <glyph glyph-name="Udieresis" unicode="&#xdc;" horiz-adv-x="1503" 
d="M1319 1434q23 0 39 -16t16 -40v-817q0 -280 -171 -431q-171 -152 -454 -151t-451 153q-169 152 -169 429v817q0 23 16 39t39 17h269q23 0 39 -16t16 -40v-809q0 -123 60 -193t184 -69q124 0 183 70q60 70 60 192v809q1 23 17 39t39 17h268zM1171 1591q0 -23 -16 -39
t-39 -16h-207q-23 0 -39 16t-16 39v207q0 23 16 39t39 16h207q23 0 39 -16t16 -39v-207zM649 1591q0 -23 -16 -39t-39 -16h-207q-23 0 -39 16t-16 39v207q0 23 16 39t39 16h207q23 0 39 -16t16 -39v-207z" />
    <glyph glyph-name="Yacute" unicode="&#xdd;" horiz-adv-x="1406" 
d="M893 55q0 -23 -16 -39t-39 -16h-269q-23 0 -39 16t-16 39v437l-473 870q-8 14 -8 30t13 28q13 13 32 14h280q42 0 62 -20t24 -32l258 -503l261 503q4 10 24 30t62 22h280q17 0 31 -14t14 -28q0 -15 -8 -30l-473 -870v-437zM813 1864h293q39 0 39 -41q0 -14 -10 -25
l-277 -227q-40 -35 -86 -35h-201q-33 0 -32 33q0 16 10 26l188 230q23 27 38 33t38 6z" />
    <glyph glyph-name="Thorn" unicode="&#xde;" horiz-adv-x="1409" 
d="M522 557h252q86 0 142.5 38t56.5 124t-56.5 124t-142.5 38h-252v-324zM522 1198h262q408 0 488 -180t80 -300q0 -236 -152 -358t-416 -122h-262v-183q0 -23 -16.5 -39t-38.5 -16h-268q-23 0 -39.5 16.5t-16.5 38.5v1323q0 23 16.5 39.5t39.5 16.5h268q23 0 39 -16.5
t16 -39.5v-180z" />
    <glyph glyph-name="germandbls" unicode="&#xdf;" horiz-adv-x="1351" 
d="M1114 758q166 -114 166 -330q0 -84 -38 -169t-143 -172t-349 -87h-95q-23 0 -39 16.5t-16 38.5v207q0 23 16.5 39t38.5 16h84q78 0 130.5 31t52.5 100.5t-52.5 100.5t-130.5 31h-94q-45 0 -45 45v227q0 45 45 45h64q72 0 122 28.5t50 120t-203 91.5q-94 0 -147.5 -44
t-53.5 -169v-869q0 -23 -16.5 -39t-38.5 -16h-248q-23 0 -39 16.5t-16 38.5v869q0 246 141 388t409 142t417 -124.5t149 -305.5q0 -182 -121 -266z" />
    <glyph glyph-name="agrave" unicode="&#xe0;" horiz-adv-x="1206" 
d="M515 256q92 0 153 57t61 140l-188 -29q-123 -22 -123 -98q0 -39 25 -55q26 -15 72 -15zM166 748q-49 0 -44 58q3 34 40 85q38 51 102 94q153 102 346 100q240 0 364 -111t124 -298v-621q0 -23 -16 -39t-40 -16h-258q-23 0 -39 16t-16 39v58q-108 -135 -313 -133
q-174 0 -270 90q-97 90 -97 229q-1 139 103 227t337 129l240 41q0 49 -27 81t-94 32q-67 -1 -101 -31t-81 -30h-260zM543 1219q-45 0 -86 34l-277 228q-10 10 -10 24q0 41 39 41h272q23 0 38 -6t38 -33l188 -229q10 -10 11 -27q0 -33 -33 -32h-180z" />
    <glyph glyph-name="aacute" unicode="&#xe1;" horiz-adv-x="1206" 
d="M515 256q92 0 153 57t61 140l-188 -29q-123 -22 -123 -98q0 -39 25 -55q26 -15 72 -15zM166 748q-49 0 -44 58q3 34 40 85q38 51 102 94q153 102 346 100q240 0 364 -111t124 -298v-621q0 -23 -16 -39t-40 -16h-258q-23 0 -39 16t-16 39v58q-108 -135 -313 -133
q-174 0 -270 90q-97 90 -97 229q-1 139 103 227t337 129l240 41q0 49 -27 81t-94 32q-67 -1 -101 -31t-81 -30h-260zM737 1546h273q39 0 39 -41q0 -14 -11 -24l-276 -228q-39 -34 -86 -34h-180q-33 0 -33 32q0 16 10 27l189 229q24 27 38 33t37 6z" />
    <glyph glyph-name="acircumflex" unicode="&#xe2;" horiz-adv-x="1206" 
d="M515 256q92 0 153 57t61 140l-188 -29q-123 -22 -123 -98q0 -39 25 -55q26 -15 72 -15zM166 748q-49 0 -44 58q3 34 40 85q38 51 102 94q153 102 346 100q240 0 364 -111t124 -298v-621q0 -23 -16 -39t-40 -16h-258q-23 0 -39 16t-16 39v58q-108 -135 -313 -133
q-174 0 -270 90q-97 90 -97 229q-1 139 103 227t337 129l240 41q0 49 -27 81t-94 32q-67 -1 -101 -31t-81 -30h-260zM684 1546q40 0 76 -39l209 -229q10 -10 10 -27q0 -33 -33 -32h-137q-22 0 -64 22l-151 88l-152 -88q-40 -22 -63 -22h-137q-33 0 -33 32q0 16 10 27
l209 229q34 39 76 39h180z" />
    <glyph glyph-name="atilde" unicode="&#xe3;" horiz-adv-x="1206" 
d="M515 256q92 0 153 57t61 140l-188 -29q-123 -22 -123 -98q0 -39 25 -55q26 -15 72 -15zM166 748q-49 0 -44 58q3 34 40 85q38 51 102 94q153 102 346 100q240 0 364 -111t124 -298v-621q0 -23 -16 -39t-40 -16h-258q-23 0 -39 16t-16 39v58q-108 -135 -313 -133
q-174 0 -270 90q-97 90 -97 229q-1 139 103 227t337 129l240 41q0 49 -27 81t-94 32q-67 -1 -101 -31t-81 -30h-260zM952 1526q39 0 39 -54q0 -32 -16 -81t-47 -89t-73 -67t-98 -27t-98 16t-111 62q-24 14 -52 14t-41 -13q-11 -13 -21 -29t-18 -27q-8 -12 -25 -12h-155
q-39 1 -39 53q0 30 13 80q27 104 114 157q43 27 118 27t147 -46q27 -18 51 -32t52 -14t41 12q11 12 21 28t18 28q8 13 25 14h155z" />
    <glyph glyph-name="adieresis" unicode="&#xe4;" horiz-adv-x="1206" 
d="M515 256q92 0 153 57t61 140l-188 -29q-123 -22 -123 -98q0 -39 25 -55q26 -15 72 -15zM166 748q-49 0 -44 58q3 34 40 85q38 51 102 94q153 102 346 100q240 0 364 -111t124 -298v-621q0 -23 -16 -39t-40 -16h-258q-23 0 -39 16t-16 39v58q-108 -135 -313 -133
q-174 0 -270 90q-97 90 -97 229q-1 139 103 227t337 129l240 41q0 49 -27 81t-94 32q-67 -1 -101 -31t-81 -30h-260zM983 1274q0 -23 -16 -39t-39 -16h-207q-23 0 -39 16t-16 39v207q0 23 16 39t39 16h207q23 0 39 -16t16 -39v-207zM522 1274q0 -23 -16 -39t-39 -16h-207
q-23 0 -39 16t-16 39v207q0 23 16 39t39 16h207q23 0 39 -16t16 -39v-207z" />
    <glyph glyph-name="aring" unicode="&#xe5;" horiz-adv-x="1206" 
d="M515 256q92 0 153 57t61 140l-188 -29q-123 -22 -123 -98q0 -39 25 -55q26 -15 72 -15zM166 748q-49 0 -44 58q3 34 40 85q38 51 102 94q153 102 346 100q240 0 364 -111t124 -298v-621q0 -23 -16 -39t-40 -16h-258q-23 0 -39 16t-16 39v58q-108 -135 -313 -133
q-174 0 -270 90q-97 90 -97 229q-1 139 103 227t337 129l240 41q0 49 -27 81t-94 32q-67 -1 -101 -31t-81 -30h-260zM399 1393q-1 80 57 132t138 52t137 -52t57 -132t-57 -132q-57 -53 -137 -53t-138 52t-57 133zM532 1393q0 -27 18 -44t44 -17q27 0 44 16q17 18 17 45
t-17 44t-44 17q-26 0 -44 -17t-18 -44z" />
    <glyph glyph-name="ae" unicode="&#xe6;" horiz-adv-x="1902" 
d="M418 329q0 -73 94 -73t155.5 57.5t61.5 139.5l-188 -29q-123 -22 -123 -95zM1282 809q-86 0 -131 -51t-53 -115h368q-8 63 -53 114.5t-131 51.5zM166 748q-49 0 -44 58q3 34 40 85t144 122.5t313 71.5q205 0 331 -92q134 92 308 92t279 -50t201.5 -165t96.5 -342v-57
q0 -23 -16.5 -39t-38.5 -16h-682q0 -85 54 -122.5t144 -37.5t144 47q23 18 33 23.5t34 5.5h267q45 0 45 -45q0 -25 -31 -75t-143 -141t-371 -91t-408 153q-78 -78 -171.5 -115.5t-217.5 -37.5q-217 0 -322.5 88t-105.5 229t103.5 229t336.5 129l240 41q0 49 -26.5 81
t-92.5 32q-66 -1 -101 -31q-36 -30 -83 -30h-260z" />
    <glyph glyph-name="ccedilla" unicode="&#xe7;" horiz-adv-x="1232" 
d="M610 -326q68 0 68 56t-68 55q-14 0 -29.5 -4t-40 -9t-40.5 11l-37 43q-12 16 -15.5 27.5t11.5 40.5l47 98q-184 28 -305 153t-125 306q-2 31 -2 82t2 81q8 214 164 342.5t391 128.5q279 0 386 -108.5t132 -171.5t27 -91t-15.5 -44.5t-40.5 -16.5h-268q-33 0 -58 38
q-24 38 -60 57.5t-110 19.5t-124 -45t-56 -119q-4 -31 -4 -71.5t4 -71.5q6 -74 55.5 -119t124.5 -45t110.5 19.5t51.5 45.5t29.5 38t36.5 12h268q23 0 40.5 -16.5t15.5 -44.5t-27 -91t-132 -171.5t-386 -108.5h-6l-43 -91q32 21 75 21q78 0 117 -53.5t39 -127t-55.5 -127
t-137.5 -53.5t-123.5 27t-52 44.5t8.5 33.5l36 33q16 14 27.5 14t37.5 -13.5t56 -13.5z" />
    <glyph glyph-name="egrave" unicode="&#xe8;" horiz-adv-x="1243" 
d="M623 809q-86 0 -131 -51t-54 -115h369q-8 63 -53 115t-131 51zM438 416q0 -160 200 -160q93 0 142 47q23 17 33 23t35 6h266q45 0 45 -45q0 -25 -31 -75q-75 -121 -262 -194q-102 -38 -239 -38q-271 1 -415 147t-143 400q1 253 147 405t415 153q268 0 419 -180
q126 -150 126 -377v-57q0 -23 -16 -39t-40 -16h-682zM766 1251q0 -33 -33 -32h-180q-45 0 -86 34l-277 228q-10 10 -10 24q0 41 39 41h273q24 0 38 -6t37 -33l189 -229q10 -10 10 -27z" />
    <glyph glyph-name="eacute" unicode="&#xe9;" horiz-adv-x="1243" 
d="M623 809q-86 0 -131 -51t-54 -115h369q-8 63 -53 115t-131 51zM438 416q0 -160 200 -160q93 0 142 47q23 17 33 23t35 6h266q45 0 45 -45q0 -25 -31 -75q-75 -121 -262 -194q-102 -38 -239 -38q-271 1 -415 147t-143 400q1 253 147 405t415 153q268 0 419 -180
q126 -150 126 -377v-57q0 -23 -16 -39t-40 -16h-682zM741 1546h273q39 0 39 -41q0 -14 -11 -24l-276 -228q-39 -34 -86 -34h-180q-33 0 -33 32q0 16 10 27l189 229q24 27 38 33t37 6z" />
    <glyph glyph-name="ecircumflex" unicode="&#xea;" horiz-adv-x="1243" 
d="M623 809q-86 0 -131 -51t-54 -115h369q-8 63 -53 115t-131 51zM438 416q0 -160 200 -160q93 0 142 47q23 17 33 23t35 6h266q45 0 45 -45q0 -25 -31 -75q-75 -121 -262 -194q-102 -38 -239 -38q-271 1 -415 147t-143 400q1 253 147 405t415 153q268 0 419 -180
q126 -150 126 -377v-57q0 -23 -16 -39t-40 -16h-682zM713 1546q41 0 75 -39l209 -229q10 -10 11 -27q0 -33 -33 -32h-137q-22 0 -64 22l-151 88l-152 -88q-40 -22 -63 -22h-138q-33 0 -32 32q0 16 10 27l209 229q34 39 75 39h181z" />
    <glyph glyph-name="edieresis" unicode="&#xeb;" horiz-adv-x="1243" 
d="M623 809q-86 0 -131 -51t-54 -115h369q-8 63 -53 115t-131 51zM438 416q0 -160 200 -160q93 0 142 47q23 17 33 23t35 6h266q45 0 45 -45q0 -25 -31 -75q-75 -121 -262 -194q-102 -38 -239 -38q-271 1 -415 147t-143 400q1 253 147 405t415 153q268 0 419 -180
q126 -150 126 -377v-57q0 -23 -16 -39t-40 -16h-682zM1012 1274q0 -23 -16 -39t-40 -16h-206q-23 0 -39 16t-17 39v207q0 23 16 39t40 16h206q23 0 39 -16t17 -39v-207zM551 1274q0 -23 -16 -39t-39 -16h-207q-23 0 -39 16t-17 39v207q1 23 17 39t39 16h207q23 0 39 -16
t16 -39v-207z" />
    <glyph glyph-name="igrave" unicode="&#xec;" horiz-adv-x="606" 
d="M487 55q0 -23 -16 -39t-39 -16h-258q-23 0 -39 16t-16 39v955q0 23 16 39t39 16h258q23 0 39 -16t16 -39v-955zM463 1251q0 -33 -33 -32h-180q-45 0 -86 34l-277 228q-10 10 -10 24q0 41 39 41h272q23 0 38 -6t38 -33l189 -229q10 -10 10 -27z" />
    <glyph glyph-name="iacute" unicode="&#xed;" horiz-adv-x="606" 
d="M487 55q0 -23 -16 -39t-39 -16h-258q-23 0 -39 16t-16 39v955q0 23 16 39t39 16h258q23 0 39 -16t16 -39v-955zM428 1546h272q39 0 39 -41q0 -14 -10 -24l-276 -228q-39 -34 -86 -34h-181q-33 0 -32 32q0 16 10 27l188 229q23 27 38 33t38 6z" />
    <glyph glyph-name="icircumflex" unicode="&#xee;" horiz-adv-x="606" 
d="M487 55q0 -23 -16 -39t-39 -16h-258q-23 0 -39 16t-16 39v955q0 23 16 39t39 16h258q23 0 39 -16t16 -39v-955zM393 1546q40 0 76 -39l209 -229q10 -10 10 -27q0 -33 -33 -32h-137q-23 0 -63 22l-152 88l-151 -88q-40 -22 -64 -22h-137q-33 0 -33 32q0 16 10 27l209 229
q34 39 76 39h180z" />
    <glyph glyph-name="idieresis" unicode="&#xef;" horiz-adv-x="606" 
d="M487 55q0 -23 -16 -39t-39 -16h-258q-23 0 -39 16t-16 39v955q0 23 16 39t39 16h258q23 0 39 -16t16 -39v-955zM692 1274q0 -23 -16 -39t-39 -16h-207q-23 0 -39 16t-16 39v207q0 23 16 39t39 16h207q23 0 39 -16t16 -39v-207zM231 1274q0 -23 -16 -39t-39 -16h-207
q-23 0 -39 16t-16 39v207q0 23 16 39t39 16h207q23 0 39 -16t16 -39v-207z" />
    <glyph glyph-name="eth" unicode="&#xf0;" horiz-adv-x="1212" 
d="M434 471q0 -72 33 -123t123 -51t122.5 51t32.5 123t-32.5 123t-122.5 51t-123 -51t-33 -123zM1135 478q0 -132 -45.5 -224t-120 -153.5t-173 -91t-205 -29.5t-201.5 29.5t-167.5 91t-114.5 153.5t-42 273t148.5 308.5t375.5 127.5q47 0 82 -5q-29 63 -78 129l-191 -75
q-16 -6 -28 -6t-24.5 12t-12.5 31v98q0 51 45 67l63 25q-44 41 -104 87q-59 46 -59 67q0 41 41 41h319q45 0 77 -29t44 -39l156 61q33 14 49 -2t16 -34v-99q0 -51 -45 -67l-27 -11q169 -200 195.5 -402t26.5 -334z" />
    <glyph glyph-name="ntilde" unicode="&#xf1;" horiz-adv-x="1318" 
d="M766 1085q313 0 412 -258q33 -88 32 -209v-563q0 -23 -16 -39t-39 -16h-258q-23 0 -39 16t-16 39v518q0 87 -43 141t-135 54q-177 0 -177 -195v-518q0 -23 -16 -39t-39 -16h-258q-23 0 -39 16t-16 39v955q0 23 16 39t39 16h248q23 0 39 -16t16 -39v-47q98 122 289 122z
M1022 1526q39 0 39 -54q0 -32 -17 -81q-33 -100 -120 -156q-42 -27 -112 -27t-143 46q-28 18 -52 32q-25 14 -53 14t-40 -13t-21 -29t-17 -27q-8 -12 -25 -12h-156q-39 1 -39 53q0 30 14 80q28 103 113 157q43 27 119 27t146 -46q28 -18 52 -32t52 -14t41 12q12 12 21 28
q10 16 18 28q8 13 24 14h156z" />
    <glyph glyph-name="ograve" unicode="&#xf2;" horiz-adv-x="1261" 
d="M631 297q82 0 132 44t56 122q4 31 4 69t-4 70q-6 78 -56 122t-132 44t-132 -44t-57 -122q-4 -32 -4 -70t4 -69q6 -78 56 -122t133 -44zM1190 531q0 -48 -2 -78q-8 -202 -161 -338q-152 -137 -398 -136t-396 137q-151 136 -159 337q-2 31 -2 79t2 78q4 200 160 338
t398 138q242 -1 395 -137t161 -339q2 -31 2 -79zM582 1219q-47 0 -86 34l-277 228q-10 10 -10 24q0 41 39 41h272q23 0 38 -6t38 -33l188 -229q10 -10 11 -27q0 -33 -33 -32h-180z" />
    <glyph glyph-name="oacute" unicode="&#xf3;" horiz-adv-x="1261" 
d="M631 297q82 0 132 44t56 122q4 31 4 69t-4 70q-6 78 -56 122t-132 44t-132 -44t-57 -122q-4 -32 -4 -70t4 -69q6 -78 56 -122t133 -44zM1190 531q0 -48 -2 -78q-8 -202 -161 -338q-152 -137 -398 -136t-396 137q-151 136 -159 337q-2 31 -2 79t2 78q4 200 160 338
t398 138q242 -1 395 -137t161 -339q2 -31 2 -79zM754 1546h272q39 0 39 -41q0 -14 -10 -24l-277 -228q-39 -34 -86 -34h-180q-33 0 -33 32q0 16 10 27l189 229q23 27 38 33t38 6z" />
    <glyph glyph-name="ocircumflex" unicode="&#xf4;" horiz-adv-x="1261" 
d="M631 297q82 0 132 44t56 122q4 31 4 69t-4 70q-6 78 -56 122t-132 44t-132 -44t-57 -122q-4 -32 -4 -70t4 -69q6 -78 56 -122t133 -44zM1190 531q0 -48 -2 -78q-8 -202 -161 -338q-152 -137 -398 -136t-396 137q-151 136 -159 337q-2 31 -2 79t2 78q4 200 160 338
t398 138q242 -1 395 -137t161 -339q2 -31 2 -79zM721 1546q40 0 76 -39l209 -229q10 -10 10 -27q0 -33 -33 -32h-137q-22 0 -64 22l-151 88l-152 -88q-40 -22 -63 -22h-137q-33 0 -33 32q0 16 10 27l209 229q34 39 76 39h180z" />
    <glyph glyph-name="otilde" unicode="&#xf5;" horiz-adv-x="1261" 
d="M631 297q82 0 132 44t56 122q4 31 4 69t-4 70q-6 78 -56 122t-132 44t-132 -44t-57 -122q-4 -32 -4 -70t4 -69q6 -78 56 -122t133 -44zM1190 531q0 -48 -2 -78q-8 -202 -161 -338q-152 -137 -398 -136t-396 137q-151 136 -159 337q-2 31 -2 79t2 78q4 200 160 338
t398 138q242 -1 395 -137t161 -339q2 -31 2 -79zM989 1526q39 0 39 -54q0 -32 -16 -81t-47 -89q-73 -94 -164 -94q-92 0 -165 46q-28 18 -52 32t-52 14t-40 -13t-22 -29t-17 -27q-8 -12 -25 -12h-156q-61 0 -30 118q32 118 118 172q43 27 119 27t147 -46q28 -18 52 -32
t52 -14t40 12t22 28t17 28q8 13 25 14h155z" />
    <glyph glyph-name="odieresis" unicode="&#xf6;" horiz-adv-x="1261" 
d="M631 297q82 0 132 44t56 122q4 31 4 69t-4 70q-6 78 -56 122t-132 44t-132 -44t-57 -122q-4 -32 -4 -70t4 -69q6 -78 56 -122t133 -44zM1190 531q0 -48 -2 -78q-8 -202 -161 -338q-152 -137 -398 -136t-396 137q-151 136 -159 337q-2 31 -2 79t2 78q4 200 160 338
t398 138q242 -1 395 -137t161 -339q2 -31 2 -79zM1020 1274q0 -23 -16 -39t-39 -16h-207q-23 0 -39 16t-17 39v207q0 23 16 39t40 16h207q23 0 39 -16t16 -39v-207zM559 1274q0 -23 -16 -39t-39 -16h-207q-23 0 -39 16t-16 39v207q0 23 16 39t39 16h207q23 0 39 -16t16 -39
v-207z" />
    <glyph glyph-name="divide" unicode="&#xf7;" horiz-adv-x="1079" 
d="M135 457q-23 0 -39 16t-16 39v207q0 23 16.5 39t38.5 16h809q23 0 39 -16.5t16 -38.5v-207q0 -23 -16 -39t-39 -16h-809zM666 373q23 0 39 -16.5t16 -39.5v-233q0 -23 -16.5 -39t-38.5 -16h-254q-23 0 -39.5 16t-16.5 39v233q0 23 16.5 39.5t39.5 16.5h254zM666 1200
q23 0 39 -16.5t16 -38.5v-234q0 -23 -16.5 -39t-38.5 -16h-254q-23 0 -39.5 16.5t-16.5 38.5v234q0 23 16.5 39t39.5 16h254z" />
    <glyph glyph-name="oslash" unicode="&#xf8;" horiz-adv-x="1339" 
d="M660 297q92 0 146 48t54 147l-342 -132q50 -63 142 -63zM677 768q-89 0 -142.5 -47t-55.5 -146l338 132q-51 61 -140 61zM111 532q0 48 2 78q4 200 158.5 337.5t398.5 137.5q172 0 298 -68.5t191 -178.5l96 36q34 14 50 -2t16 -34v-119q0 -51 -45 -68l-51 -20
q4 -12 4 -80t-2 -98q-8 -201 -159.5 -337t-397.5 -136q-174 0 -300 68.5t-192 180.5l-94 -36q-35 -13 -50.5 2.5t-15.5 33.5v119q0 51 45 68l50 18v19q-2 31 -2 79z" />
    <glyph glyph-name="ugrave" unicode="&#xf9;" horiz-adv-x="1298" 
d="M109 1010q0 23 16 39t39 16h258q23 0 39 -16t16 -39v-518q0 -195 167 -195t167 195v518q0 23 16 39t39 16h258q23 0 39 -16t17 -39v-955q0 -23 -16 -39t-40 -16h-237q-23 0 -39 16t-17 39v47q-85 -122 -286 -122t-319 112t-117 354v564zM586 1219q-45 0 -86 34l-277 228
q-10 10 -10 24q0 41 39 41h272q23 0 38 -6t38 -33l188 -229q10 -10 11 -27q0 -33 -33 -32h-180z" />
    <glyph glyph-name="uacute" unicode="&#xfa;" horiz-adv-x="1298" 
d="M109 1010q0 23 16 39t39 16h258q23 0 39 -16t16 -39v-518q0 -195 167 -195t167 195v518q0 23 16 39t39 16h258q23 0 39 -16t17 -39v-955q0 -23 -16 -39t-40 -16h-237q-23 0 -39 16t-17 39v47q-85 -122 -286 -122t-319 112t-117 354v564zM776 1546h273q39 0 38 -41
q0 -14 -10 -24l-276 -228q-39 -34 -86 -34h-180q-33 0 -33 32q0 16 10 27l188 229q23 27 38 33t38 6z" />
    <glyph glyph-name="ucircumflex" unicode="&#xfb;" horiz-adv-x="1298" 
d="M109 1010q0 23 16 39t39 16h258q23 0 39 -16t16 -39v-518q0 -195 167 -195t167 195v518q0 23 16 39t39 16h258q23 0 39 -16t17 -39v-955q0 -23 -16 -39t-40 -16h-237q-23 0 -39 16t-17 39v47q-85 -122 -286 -122t-319 112t-117 354v564zM733 1546q40 0 76 -39l209 -229
q10 -10 10 -27q0 -33 -33 -32h-137q-23 0 -63 22l-152 88l-151 -88q-40 -22 -64 -22h-137q-33 0 -33 32q0 16 10 27l209 229q34 39 76 39h180z" />
    <glyph glyph-name="udieresis" unicode="&#xfc;" horiz-adv-x="1298" 
d="M109 1010q0 23 16 39t39 16h258q23 0 39 -16t16 -39v-518q0 -195 167 -195t167 195v518q0 23 16 39t39 16h258q23 0 39 -16t17 -39v-955q0 -23 -16 -39t-40 -16h-237q-23 0 -39 16t-17 39v47q-85 -122 -286 -122t-319 112t-117 354v564zM1032 1274q0 -23 -16 -39t-39 -16
h-207q-23 0 -39 16t-16 39v207q0 23 16 39t39 16h207q23 0 39 -16t16 -39v-207zM571 1274q0 -23 -16 -39t-39 -16h-207q-23 0 -39 16t-16 39v207q0 23 16 39t39 16h207q23 0 39 -16t16 -39v-207z" />
    <glyph glyph-name="yacute" unicode="&#xfd;" horiz-adv-x="1282" 
d="M346 -389q-20 0 -35 14q-14 15 -14 29t2 20l156 367l-414 960q-2 7 -2 21t14 28t35 15h268q40 0 60 -49l227 -533l225 533q18 49 60 49h270q20 0 34 -14q14 -15 15 -29q0 -14 -2 -21l-571 -1341q-18 -49 -60 -49h-268zM752 1546h272q39 0 39 -41q0 -14 -10 -24l-277 -228
q-39 -34 -86 -34h-180q-33 0 -33 32q0 16 10 27l189 229q23 27 38 33t38 6z" />
    <glyph glyph-name="thorn" unicode="&#xfe;" horiz-adv-x="1300" 
d="M672 768q-122 0 -154.5 -77t-32.5 -138t7 -110.5t51.5 -97.5t134.5 -48t142 67.5t36 225.5q-6 72 -47 125t-137 53zM489 -334q0 -23 -16 -39t-39 -16h-258q-23 0 -39 16.5t-16 38.5v1733q0 23 16.5 39t38.5 16h258q23 0 39 -16.5t16 -38.5v-436q98 122 275 122
q305 0 383 -181t78 -370.5t-41 -284.5t-132.5 -182t-276.5 -87t-286 122v-436z" />
    <glyph glyph-name="ydieresis" unicode="&#xff;" horiz-adv-x="1282" 
d="M346 -389q-20 0 -35 14q-14 15 -14 29t2 20l156 367l-414 960q-2 7 -2 21t14 28t35 15h268q40 0 60 -49l227 -533l225 533q18 49 60 49h270q20 0 34 -14q14 -15 15 -29q0 -14 -2 -21l-571 -1341q-18 -49 -60 -49h-268zM1032 1274q0 -23 -16 -39t-39 -16h-207
q-23 0 -39 16t-16 39v207q0 23 16 39t39 16h207q23 0 39 -16t16 -39v-207zM571 1274q0 -23 -16 -39t-39 -16h-207q-23 0 -39 16t-16 39v207q0 23 16 39t39 16h207q23 0 39 -16t16 -39v-207z" />
    <glyph glyph-name="Amacron" unicode="&#x100;" 
d="M569 539h332l-166 491zM901 1434q41 0 63 -23t29 -45l447 -1290q8 -20 8 -34t-13 -28t-32 -14h-258q-41 0 -59 17t-21 34l-57 170h-545l-57 -170q-4 -15 -22 -33t-58 -18h-258q-18 0 -32 13q-13 13 -13 27t8 36l446 1290q8 24 30 46t62 22h332zM410 1536q-23 0 -39 16
t-17 39v176q0 23 16 39t40 17h653q23 -1 39 -17t16 -39v-176q0 -23 -16 -39t-39 -16h-653z" />
    <glyph glyph-name="amacron" unicode="&#x101;" horiz-adv-x="1206" 
d="M515 256q92 0 153 57t61 140l-188 -29q-123 -22 -123 -98q0 -39 25 -55q26 -15 72 -15zM166 748q-49 0 -44 58q3 34 40 85q38 51 102 94q153 102 346 100q240 0 364 -111t124 -298v-621q0 -23 -16 -39t-40 -16h-258q-23 0 -39 16t-16 39v58q-108 -135 -313 -133
q-174 0 -270 90q-97 90 -97 229q-1 139 103 227t337 129l240 41q0 49 -27 81t-94 32q-67 -1 -101 -31t-81 -30h-260zM299 1219q-23 0 -39 16t-16 39v176q0 23 16 39t39 16h592q23 0 39 -16t16 -39v-176q0 -23 -16 -39t-39 -16h-592z" />
    <glyph glyph-name="Abreve" unicode="&#x102;" 
d="M569 539h332l-166 491zM901 1434q41 0 63 -23t29 -45l447 -1290q8 -20 8 -34t-13 -28t-32 -14h-258q-41 0 -59 17t-21 34l-57 170h-545l-57 -170q-4 -15 -22 -33t-58 -18h-258q-18 0 -32 13q-13 13 -13 27t8 36l446 1290q8 24 30 46t62 22h332zM1042 1864q39 0 39 -56
q0 -32 -18 -86q-38 -114 -168 -169q-66 -27 -160 -27q-175 0 -267 99q-42 44 -60 97q-47 138 20 142h172q39 0 39 -50q0 -28 25 -60q26 -32 72 -32t71 32t25 60q-1 48 38 50h172z" />
    <glyph glyph-name="abreve" unicode="&#x103;" horiz-adv-x="1206" 
d="M515 256q92 0 153 57t61 140l-188 -29q-123 -22 -123 -98q0 -39 25 -55q26 -15 72 -15zM166 748q-49 0 -44 58q3 34 40 85q38 51 102 94q153 102 346 100q240 0 364 -111t124 -298v-621q0 -23 -16 -39t-40 -16h-258q-23 0 -39 16t-16 39v58q-108 -135 -313 -133
q-174 0 -270 90q-97 90 -97 229q-1 139 103 227t337 129l240 41q0 49 -27 81t-94 32q-67 -1 -101 -31t-81 -30h-260zM891 1546q39 0 39 -44t-18 -97q-38 -116 -159 -169q-65 -28 -159 -28q-176 0 -262 100q-74 83 -74 199q0 39 39 39h172q39 0 39 -39t22 -71t64 -31
q42 0 64 32q22 33 22 71t39 38h172z" />
    <glyph glyph-name="Aogonek" unicode="&#x104;" 
d="M569 539h332l-166 491zM901 1434q41 0 62.5 -22.5t29.5 -45.5l447 -1290q8 -20 8 -34t-13.5 -28t-31.5 -14h-31q-53 0 -81.5 -34t-28.5 -81t28.5 -80.5t81.5 -33.5h31q45 0 45 -45v-132q0 -45 -45 -45h-39q-150 0 -241 93t-91 243q0 94 33 162v4l-57 170h-545l-57 -170
q-4 -16 -21.5 -33.5t-58.5 -17.5h-258q-18 0 -31.5 13.5t-13.5 27.5t8 35l446 1290q8 23 29.5 45.5t62.5 22.5h332z" />
    <glyph glyph-name="aogonek" unicode="&#x105;" horiz-adv-x="1206" 
d="M418 329q0 -73 94 -73t155.5 57.5t61.5 139.5l-188 -29q-123 -22 -123 -95zM729 113q-107 -133 -297 -133q-189 0 -286 90.5t-97 228.5q0 139 103.5 227t336.5 129l240 41q0 49 -26.5 81t-92.5 32q-66 -1 -101 -31q-36 -30 -83 -30h-260q-49 0 -44 58q3 34 40 85
t144 122.5t327 71.5t342.5 -111.5t122.5 -297.5v-621q0 -23 -16.5 -39t-39.5 -16h-47q-45 -4 -69.5 -37t-24.5 -79t28.5 -79.5t82.5 -33.5h30q45 0 45 -45v-132q0 -45 -45 -45h-38q-150 0 -241 93t-91 243q0 94 57 164v64z" />
    <glyph glyph-name="Cacute" unicode="&#x106;" horiz-adv-x="1437" 
d="M1057 528h268q17 0 31 -13t14 -32q-4 -212 -189 -359q-185 -146 -459 -145t-445 158t-183 398q-4 84 -4 180q0 97 4 197t49 201t126 177q175 164 451 164t461 -145t189 -359q0 -18 -13 -31t-32 -14h-268q-35 -1 -47 13t-29 65t-53 81q-76 62 -202 62q-125 0 -184 -65
q-60 -65 -69 -172q-4 -54 -4 -172q0 -119 4 -169q5 -50 19 -93q49 -145 239 -148q120 0 189 57q44 37 61 87q17 51 29 64t47 13zM838 1864h292q39 0 39 -41q0 -14 -10 -25l-276 -227q-40 -35 -86 -35h-201q-33 0 -33 33q0 16 10 26l189 230q23 27 38 33t38 6z" />
    <glyph glyph-name="cacute" unicode="&#x107;" horiz-adv-x="1232" 
d="M440 532q0 -41 4 -71q6 -74 56 -119t124 -45t110 19t52 45t30 38q13 12 36 13h268q23 0 40 -16q18 -16 16 -45q-2 -28 -27 -91q-25 -64 -86 -126q-151 -155 -432 -154q-233 0 -390 128t-165 343q-2 31 -2 81t2 82q8 215 167 344t388 127q278 0 432 -154q61 -61 86 -125
t27 -92t-16 -44t-40 -17h-268q-33 0 -58 38q-24 37 -60 57t-110 20t-124 -45t-56 -119q-4 -31 -4 -72zM758 1546h272q39 0 39 -41q0 -14 -10 -24l-277 -228q-39 -34 -86 -34h-180q-33 0 -33 32q0 16 11 27l188 229q23 27 38 33t38 6z" />
    <glyph glyph-name="Ccircumflex" unicode="&#x108;" horiz-adv-x="1437" 
d="M1057 528h268q17 0 31 -13t14 -32q-4 -212 -189 -359q-185 -146 -459 -145t-445 158t-183 398q-4 84 -4 180q0 97 4 197t49 201t126 177q175 164 451 164t461 -145t189 -359q0 -18 -13 -31t-32 -14h-268q-35 -1 -47 13t-29 65t-53 81q-76 62 -202 62q-125 0 -184 -65
q-60 -65 -69 -172q-4 -54 -4 -172q0 -119 4 -169q5 -50 19 -93q49 -145 239 -148q120 0 189 57q44 37 61 87q17 51 29 64t47 13zM829 1864q39 0 76 -39l209 -230q10 -10 10 -26q0 -33 -32 -33h-148q-25 0 -63 23l-152 88l-151 -88q-41 -23 -64 -23h-147q-33 0 -33 33
q0 16 10 26l209 230q32 37 76 39h200z" />
    <glyph glyph-name="ccircumflex" unicode="&#x109;" horiz-adv-x="1232" 
d="M440 532q0 -41 4 -71q6 -74 56 -119t124 -45t110 19t52 45t30 38q13 12 36 13h268q23 0 40 -16q18 -16 16 -45q-2 -28 -27 -91q-25 -64 -86 -126q-151 -155 -432 -154q-233 0 -390 128t-165 343q-2 31 -2 81t2 82q8 215 167 344t388 127q278 0 432 -154q61 -61 86 -125
t27 -92t-16 -44t-40 -17h-268q-33 0 -58 38q-24 37 -60 57t-110 20t-124 -45t-56 -119q-4 -31 -4 -72zM715 1546q40 0 76 -39l208 -229q10 -10 11 -27q0 -33 -33 -32h-137q-22 0 -64 22l-151 88l-152 -88q-40 -22 -63 -22h-138q-33 0 -32 32q0 16 10 27l209 229q34 39 76 39
h180z" />
    <glyph glyph-name="Cdotaccent" unicode="&#x10a;" horiz-adv-x="1437" 
d="M1057 528h268q17 0 31 -13t14 -32q-4 -212 -189 -359q-185 -146 -459 -145t-445 158t-183 398q-4 84 -4 180q0 97 4 197t49 201t126 177q175 164 451 164t461 -145t189 -359q0 -18 -13 -31t-32 -14h-268q-35 -1 -47 13t-29 65t-53 81q-76 62 -202 62q-125 0 -184 -65
q-60 -65 -69 -172q-4 -54 -4 -172q0 -119 4 -169q5 -50 19 -93q49 -145 239 -148q120 0 189 57q44 37 61 87q17 51 29 64t47 13zM899 1591q0 -23 -16 -39t-39 -16h-228q-22 0 -38 16t-17 39v228q1 23 17 39t38 16h228q23 0 39 -16t16 -39v-228z" />
    <glyph glyph-name="cdotaccent" unicode="&#x10b;" horiz-adv-x="1232" 
d="M440 532q0 -41 4 -71q6 -74 56 -119t124 -45t110 19t52 45t30 38q13 12 36 13h268q23 0 40 -16q18 -16 16 -45q-2 -28 -27 -91q-25 -64 -86 -126q-151 -155 -432 -154q-233 0 -390 128t-165 343q-2 31 -2 81t2 82q8 215 167 344t388 127q278 0 432 -154q61 -61 86 -125
t27 -92t-16 -44t-40 -17h-268q-33 0 -58 38q-24 37 -60 57t-110 20t-124 -45t-56 -119q-4 -31 -4 -72zM795 1274q-1 -23 -17 -39t-39 -16h-227q-23 0 -39 16t-16 39v227q0 23 16 39t39 16h227q23 0 39 -16t17 -39v-227z" />
    <glyph glyph-name="Ccaron" unicode="&#x10c;" horiz-adv-x="1437" 
d="M1057 528h268q17 0 31 -13t14 -32q-4 -212 -189 -359q-185 -146 -459 -145t-445 158t-183 398q-4 84 -4 180q0 97 4 197t49 201t126 177q175 164 451 164t461 -145t189 -359q0 -18 -13 -31t-32 -14h-268q-35 -1 -47 13t-29 65t-53 81q-76 62 -202 62q-125 0 -184 -65
q-60 -65 -69 -172q-4 -54 -4 -172q0 -119 4 -169q5 -50 19 -93q49 -145 239 -148q120 0 189 57q44 37 61 87q17 51 29 64t47 13zM629 1536q-40 0 -76 39l-209 229q-10 10 -10 27q0 33 33 33h147q24 0 64 -23l151 -88l152 88q18 11 30 17t33 6h148q33 0 32 -33q0 -16 -10 -27
l-209 -229q-34 -39 -76 -39h-200z" />
    <glyph glyph-name="ccaron" unicode="&#x10d;" horiz-adv-x="1232" 
d="M440 532q0 -41 4 -71q6 -74 56 -119t124 -45t110 19t52 45t30 38q13 12 36 13h268q23 0 40 -16q18 -16 16 -45q-2 -28 -27 -91q-25 -64 -86 -126q-151 -155 -432 -154q-233 0 -390 128t-165 343q-2 31 -2 81t2 82q8 215 167 344t388 127q278 0 432 -154q61 -61 86 -125
t27 -92t-16 -44t-40 -17h-268q-33 0 -58 38q-24 37 -60 57t-110 20t-124 -45t-56 -119q-4 -31 -4 -72zM535 1219q-40 0 -76 38l-209 230q-10 10 -10 26q0 33 32 33h138q21 0 63 -22l152 -88l151 88q40 22 64 22h137q33 0 33 -33q0 -16 -11 -26l-208 -230q-33 -38 -76 -38
h-180z" />
    <glyph glyph-name="Dcaron" unicode="&#x10e;" horiz-adv-x="1480" 
d="M731 1106h-209v-778h219q258 0 269 235q2 43 2 81v147q0 36 -2 79q-12 236 -279 236zM741 1434q281 0 457 -158t191 -414q2 -43 2 -79v-136q1 -186 -51 -298q-101 -222 -332 -307q-115 -42 -256 -42h-553q-23 0 -39 16t-17 39v1323q1 23 17 39t39 17h542zM606 1536
q-40 0 -76 39l-208 229q-10 10 -11 27q0 33 33 33h148q23 0 63 -23l152 -88l151 88q41 23 64 23h147q33 0 33 -33q0 -16 -10 -27l-209 -229q-34 -39 -76 -39h-201z" />
    <glyph glyph-name="dcaron" unicode="&#x10f;" horiz-adv-x="1536" 
d="M629 297q186 0 186 235q0 175 -108 222q-33 14 -78 14q-95 0 -137 -53q-64 -82 -48 -240q6 -72 48 -125t137 -53zM537 1085q174 0 274 -122v436q0 23 16 39t39 16h258q23 0 39 -16t17 -39v-1344q0 -23 -16 -39t-40 -16h-247q-23 0 -39 16t-17 39v47q-44 -56 -84 -78
q-81 -44 -187 -44q-319 0 -430 260q-44 102 -44 292t41 284q79 182 245 241q83 28 175 28zM1423 1454h236q17 0 31 -13t14 -27t-2 -19l-113 -285q-26 -66 -88 -66h-166q-18 0 -31 14t-14 32v4l45 280q4 28 26 54t62 26z" />
    <glyph glyph-name="Dcroat" unicode="&#x110;" horiz-adv-x="1546" 
d="M797 1106h-209v-238h153q23 0 39.5 -16t16.5 -39v-176q0 -23 -16.5 -39t-39.5 -16h-153v-254h219q258 0 268 235q2 43 2 53v110q0 101 -2 144q-12 236 -278 236zM807 1434q281 0 458 -158t189 -414q2 -43 2 -52v-178q0 -170 -51 -283t-180 -231t-408 -118h-553
q-23 0 -39 16.5t-16 38.5v527h-109q-23 0 -39 16t-16 39v176q0 23 16.5 39t38.5 16h109v510q0 23 16.5 39.5t38.5 16.5h543z" />
    <glyph glyph-name="dcroat" unicode="&#x111;" horiz-adv-x="1288" 
d="M625 297q118 0 149 76.5t31 138t-6.5 110.5t-48.5 97.5t-125 48.5q-209 0 -179 -293q4 -75 47 -126.5t132 -51.5zM698 1050.5q59 -34.5 103 -87.5v167h-109q-23 0 -39 16.5t-16 39.5v88q0 23 16.5 39t38.5 16h109v70q0 23 16.5 39t38.5 16h258q23 0 39 -16.5t16 -38.5
v-70h109q23 0 39 -16.5t16 -38.5v-88q0 -23 -16.5 -39.5t-38.5 -16.5h-109v-1075q0 -23 -16 -39t-39 -16h-248q-23 0 -39 16.5t-16 38.5v47q-44 -57 -102 -89.5t-163 -32.5q-210 0 -334 120t-132 349q-2 31 -2 151.5t40 215.5t100.5 153.5t141 87t180.5 28.5q99 0 158 -34.5
z" />
    <glyph glyph-name="Emacron" unicode="&#x112;" horiz-adv-x="1316" 
d="M1169 328q23 0 39 -16t17 -40v-217q-1 -23 -17 -39t-39 -16h-970q-23 0 -39 16t-17 39v1323q1 23 17 39t39 17h954q23 0 39 -16t16 -40v-217q0 -23 -16 -39t-39 -16h-631v-221h586q23 -1 39 -17t16 -39v-217q0 -23 -16 -39t-39 -16h-586v-229h647zM358 1536q-23 0 -39 16
t-16 39v176q0 23 16 39t39 17h654q23 -1 39 -17t16 -39v-176q0 -23 -16 -39t-39 -16h-654z" />
    <glyph glyph-name="emacron" unicode="&#x113;" horiz-adv-x="1243" 
d="M623 809q-86 0 -131 -51t-54 -115h369q-8 63 -53 115t-131 51zM438 416q0 -160 200 -160q93 0 142 47q23 17 33 23t35 6h266q45 0 45 -45q0 -25 -31 -75q-75 -121 -262 -194q-102 -38 -239 -38q-271 1 -415 147t-143 400q1 253 147 405t415 153q268 0 419 -180
q126 -150 126 -377v-57q0 -23 -16 -39t-40 -16h-682zM328 1219q-23 0 -39 16t-17 39v176q0 23 16 39t40 16h592q22 0 38 -16t17 -39v-176q-1 -23 -17 -39t-38 -16h-592z" />
    <glyph glyph-name="Ebreve" unicode="&#x114;" horiz-adv-x="1316" 
d="M1169 328q23 0 39 -16t17 -40v-217q-1 -23 -17 -39t-39 -16h-970q-23 0 -39 16t-17 39v1323q1 23 17 39t39 17h954q23 0 39 -16t16 -40v-217q0 -23 -16 -39t-39 -16h-631v-221h586q23 -1 39 -17t16 -39v-217q0 -23 -16 -39t-39 -16h-586v-229h647zM991 1864q39 0 39 -56
q0 -32 -18 -86q-38 -114 -168 -169q-66 -27 -160 -27q-175 0 -267 99q-79 83 -79 193q0 43 39 46h172q39 0 39 -50q0 -28 24 -60t72 -32q47 0 72 32q24 32 24 60q-1 48 39 50h172z" />
    <glyph glyph-name="ebreve" unicode="&#x115;" horiz-adv-x="1243" 
d="M623 809q-86 0 -131 -51t-54 -115h369q-8 63 -53 115t-131 51zM438 416q0 -160 200 -160q93 0 142 47q23 17 33 23t35 6h266q45 0 45 -45q0 -25 -31 -75q-75 -121 -262 -194q-102 -38 -239 -38q-271 1 -415 147t-143 400q1 253 147 405t415 153q268 0 419 -180
q126 -150 126 -377v-57q0 -23 -16 -39t-40 -16h-682zM920 1546q38 0 38 -44t-17 -97q-37 -116 -160 -169q-64 -28 -158 -28q-174 0 -255 91t-81 208q0 39 39 39h172q37 0 38 -39q0 -39 22 -71t65 -31q43 0 65 32q22 33 21 71q0 38 39 38h172z" />
    <glyph glyph-name="Edotaccent" unicode="&#x116;" horiz-adv-x="1316" 
d="M1169 328q23 0 39 -16t17 -40v-217q-1 -23 -17 -39t-39 -16h-970q-23 0 -39 16t-17 39v1323q1 23 17 39t39 17h954q23 0 39 -16t16 -40v-217q0 -23 -16 -39t-39 -16h-631v-221h586q23 -1 39 -17t16 -39v-217q0 -23 -16 -39t-39 -16h-586v-229h647zM854 1591
q0 -23 -16 -39t-39 -16h-228q-23 0 -39 16t-16 39v228q0 23 16 39t39 16h228q23 0 39 -16t16 -39v-228z" />
    <glyph glyph-name="edotaccent" unicode="&#x117;" horiz-adv-x="1243" 
d="M623 809q-86 0 -131 -51t-54 -115h369q-8 63 -53 115t-131 51zM438 416q0 -160 200 -160q93 0 142 47q23 17 33 23t35 6h266q45 0 45 -45q0 -25 -31 -75q-75 -121 -262 -194q-102 -38 -239 -38q-271 1 -415 147t-143 400q1 253 147 405t415 153q268 0 419 -180
q126 -150 126 -377v-57q0 -23 -16 -39t-40 -16h-682zM793 1274q-1 -23 -17 -39t-39 -16h-227q-23 0 -39 16t-16 39v227q0 23 16 39t39 16h227q23 0 39 -16t17 -39v-227z" />
    <glyph glyph-name="Eogonek" unicode="&#x118;" horiz-adv-x="1316" 
d="M1141 -451q-150 0 -241 93t-91 243q0 59 16 115h-626q-23 0 -39.5 16.5t-16.5 38.5v1323q0 23 16.5 39.5t39.5 16.5h954q23 0 39 -16.5t16 -39.5v-217q0 -23 -16 -39t-39 -16h-631v-221h586q23 0 39 -16.5t16 -39.5v-217q0 -23 -16.5 -39t-38.5 -16h-586v-229h647
q23 0 39.5 -16.5t16.5 -39.5v-217q0 -23 -16.5 -39t-39.5 -16h-30q-47 0 -74 -34t-27 -81t29 -80.5t82 -33.5h31q45 0 45 -45v-132q0 -45 -45 -45h-39z" />
    <glyph glyph-name="eogonek" unicode="&#x119;" horiz-adv-x="1243" 
d="M623 809q-86 0 -131.5 -51t-53.5 -115h369q-8 63 -53 114.5t-131 51.5zM438 416q0 -85 54 -122.5t145 -37.5t143 47q23 18 33 23.5t35 5.5h266q45 0 45 -45q0 -23 -24.5 -66t-117 -125t-292.5 -110q-53 -8 -81 -31t-28 -70t29 -80.5t82 -33.5h31q45 0 45 -45v-132
q0 -45 -45 -45h-39q-150 0 -241 93t-91 243q0 70 19 125q-166 53 -251 187.5t-85 334.5q0 248 147 400.5t415 152.5t406 -166t138 -391v-57q0 -23 -16.5 -39t-39.5 -16h-682z" />
    <glyph glyph-name="Ecaron" unicode="&#x11a;" horiz-adv-x="1316" 
d="M1169 328q23 0 39 -16t17 -40v-217q-1 -23 -17 -39t-39 -16h-970q-23 0 -39 16t-17 39v1323q1 23 17 39t39 17h954q23 0 39 -16t16 -40v-217q0 -23 -16 -39t-39 -16h-631v-221h586q23 -1 39 -17t16 -39v-217q0 -23 -16 -39t-39 -16h-586v-229h647zM584 1536q-40 0 -76 39
l-209 229q-10 10 -10 27q0 33 33 33h147q25 0 63 -23l152 -88l152 88q18 11 30 17t33 6h148q33 0 32 -33q0 -16 -10 -27l-209 -229q-34 -39 -76 -39h-200z" />
    <glyph glyph-name="ecaron" unicode="&#x11b;" horiz-adv-x="1243" 
d="M623 809q-86 0 -131 -51t-54 -115h369q-8 63 -53 115t-131 51zM438 416q0 -160 200 -160q93 0 142 47q23 17 33 23t35 6h266q45 0 45 -45q0 -25 -31 -75q-75 -121 -262 -194q-102 -38 -239 -38q-271 1 -415 147t-143 400q1 253 147 405t415 153q268 0 419 -180
q126 -150 126 -377v-57q0 -23 -16 -39t-40 -16h-682zM532 1219q-39 0 -75 38l-209 230q-10 10 -10 26q0 33 32 33h138q21 0 63 -22l152 -88l151 88q40 22 64 22h137q33 0 33 -33q0 -16 -11 -26l-209 -230q-33 -38 -75 -38h-181z" />
    <glyph glyph-name="Gcircumflex" unicode="&#x11c;" horiz-adv-x="1456" 
d="M746 1126q-204 0 -252 -147q-24 -74 -26 -142q-1 -69 -1 -191q1 -122 21 -178q58 -159 240 -160t241 120q20 43 20 104h-172q-23 0 -39 16t-16 40v217q0 23 16 39t39 16h496q23 0 39 -16t16 -39v-262q0 -257 -182 -411t-459 -153q-278 1 -450 158q-171 157 -183 398
q-4 84 -4 180q0 97 4 197t49 201t126 177q175 164 452 164q278 0 463 -148q80 -65 125 -142t49 -146q2 -18 -12 -32t-33 -13h-273q-31 0 -48 18t-34 37q-77 98 -212 98zM827 1864q39 0 76 -39l209 -230q10 -10 10 -26q0 -33 -32 -33h-148q-25 0 -63 23l-152 88l-152 -88
q-18 -11 -30 -17t-33 -6h-147q-33 0 -33 33q0 16 10 26l209 230q32 37 76 39h200z" />
    <glyph glyph-name="gcircumflex" unicode="&#x11d;" horiz-adv-x="1298" 
d="M629 768q-189 0 -189 -215t189 -215q84 0 128 46q77 81 54 234q-8 58 -53 104t-129 46zM831 1010q1 23 17 39t39 16h237q23 0 39 -16t17 -39v-998q0 -221 -153 -342t-421 -121t-405 137q-100 98 -105 224q-2 23 16 39t40 16h266q43 0 60 -34t47 -54t104 -20q74 -1 133 35
t59 108v143q-44 -56 -104 -89t-166 -33q-210 -2 -338 117t-135 341q-2 31 -2 73q0 176 41 270q117 266 424 264q197 -1 290 -123v47zM717 1546q40 0 76 -39l208 -229q10 -10 11 -27q0 -33 -33 -32h-137q-22 0 -64 22l-151 88l-152 -88q-40 -22 -63 -22h-138q-33 0 -32 32
q0 16 10 27l209 229q34 39 76 39h180z" />
    <glyph glyph-name="Gbreve" unicode="&#x11e;" horiz-adv-x="1456" 
d="M746 1126q-204 0 -252 -147q-24 -74 -26 -142q-1 -69 -1 -191q1 -122 21 -178q58 -159 240 -160t241 120q20 43 20 104h-172q-23 0 -39 16t-16 40v217q0 23 16 39t39 16h496q23 0 39 -16t16 -39v-262q0 -257 -182 -411t-459 -153q-278 1 -450 158q-171 157 -183 398
q-4 84 -4 180q0 97 4 197t49 201t126 177q175 164 452 164q278 0 463 -148q80 -65 125 -142t49 -146q2 -18 -12 -32t-33 -13h-273q-31 0 -48 18t-34 37q-77 98 -212 98zM1034 1864q39 0 39 -56q0 -32 -18 -86q-38 -114 -168 -169q-66 -27 -160 -27q-175 0 -267 99
q-79 83 -79 193q0 43 39 46h172q39 0 39 -50q1 -28 25 -60t71 -32t72 32t25 60q-1 48 38 50h172z" />
    <glyph glyph-name="gbreve" unicode="&#x11f;" horiz-adv-x="1298" 
d="M629 768q-189 0 -189 -215t189 -215q84 0 128 46q77 81 54 234q-8 58 -53 104t-129 46zM831 1010q1 23 17 39t39 16h237q23 0 39 -16t17 -39v-998q0 -221 -153 -342t-421 -121t-405 137q-100 98 -105 224q-2 23 16 39t40 16h266q43 0 60 -34t47 -54t104 -20q74 -1 133 35
t59 108v143q-44 -56 -104 -89t-166 -33q-210 -2 -338 117t-135 341q-2 31 -2 73q0 176 41 270q117 266 424 264q197 -1 290 -123v47zM924 1546q37 0 38 -44q2 -44 -16 -97q-38 -116 -161 -169q-64 -28 -158 -28q-176 0 -262 100q-74 83 -74 199q0 39 39 39h172q37 0 38 -39
q0 -39 22 -71t65 -31q43 0 65 32q22 33 21 71q0 38 39 38h172z" />
    <glyph glyph-name="Gdotaccent" unicode="&#x120;" horiz-adv-x="1456" 
d="M746 1126q-204 0 -252 -147q-24 -74 -26 -142q-1 -69 -1 -191q1 -122 21 -178q58 -159 240 -160t241 120q20 43 20 104h-172q-23 0 -39 16t-16 40v217q0 23 16 39t39 16h496q23 0 39 -16t16 -39v-262q0 -257 -182 -411t-459 -153q-278 1 -450 158q-171 157 -183 398
q-4 84 -4 180q0 97 4 197t49 201t126 177q175 164 452 164q278 0 463 -148q80 -65 125 -142t49 -146q2 -18 -12 -32t-33 -13h-273q-31 0 -48 18t-34 37q-77 98 -212 98zM897 1591q0 -23 -16 -39t-39 -16h-228q-23 0 -39 16t-16 39v228q0 23 16 39t39 16h228q23 0 39 -16
t16 -39v-228z" />
    <glyph glyph-name="gdotaccent" unicode="&#x121;" horiz-adv-x="1298" 
d="M629 768q-189 0 -189 -215t189 -215q84 0 128 46q77 81 54 234q-8 58 -53 104t-129 46zM831 1010q1 23 17 39t39 16h237q23 0 39 -16t17 -39v-998q0 -221 -153 -342t-421 -121t-405 137q-100 98 -105 224q-2 23 16 39t40 16h266q43 0 60 -34t47 -54t104 -20q74 -1 133 35
t59 108v143q-44 -56 -104 -89t-166 -33q-210 -2 -338 117t-135 341q-2 31 -2 73q0 176 41 270q117 266 424 264q197 -1 290 -123v47zM797 1274q-1 -23 -17 -39t-39 -16h-227q-23 0 -39 16t-16 39v227q0 23 16 39t39 16h227q23 0 39 -16t17 -39v-227z" />
    <glyph glyph-name="Gcommaaccent" unicode="&#x122;" horiz-adv-x="1456" 
d="M746 1126q-204 0 -252 -147q-24 -74 -26 -142q-1 -69 -1 -191q1 -122 21 -178q58 -159 240 -160t241 120q20 43 20 104h-172q-23 0 -39 16t-16 40v217q0 23 16 39t39 16h496q23 0 39 -16t16 -39v-262q0 -257 -182 -411t-459 -153q-278 1 -450 158q-171 157 -183 398
q-4 84 -4 180q0 97 4 197t49 201t126 177q175 164 452 164q278 0 463 -148q80 -65 125 -142t49 -146q2 -18 -12 -32t-33 -13h-273q-31 0 -48 18t-34 37q-77 98 -212 98zM627 -102h252q18 0 34 -17t9 -43l-113 -284q-26 -66 -88 -66h-182q-18 0 -32 13q-13 13 -13 32v4
l45 281q3 28 25 54t63 26z" />
    <glyph glyph-name="gcommaaccent" unicode="&#x123;" horiz-adv-x="1298" 
d="M629 768q-189 0 -189 -215t189 -215q84 0 128 46q77 81 54 234q-8 58 -53 104t-129 46zM831 1010q1 23 17 39t39 16h237q23 0 39 -16t17 -39v-998q0 -221 -153 -342t-421 -121t-405 137q-100 98 -105 224q-2 23 16 39t40 16h266q43 0 60 -34t47 -54t104 -20q74 -1 133 35
t59 108v143q-44 -56 -104 -89t-166 -33q-210 -2 -338 117t-135 341q-2 31 -2 73q0 176 41 270q117 266 424 264q197 -1 290 -123v47zM471 1219q-18 0 -32 13q-13 12 -13 26t2 20l113 285q27 66 88 65h166q18 0 31 -13t14 -32v-4l-45 -281q-4 -28 -26 -54t-62 -25h-236z" />
    <glyph glyph-name="Hcircumflex" unicode="&#x124;" horiz-adv-x="1499" 
d="M1300 1434q23 0 39 -16t17 -40v-1323q0 -23 -16 -39t-40 -16h-268q-23 0 -39 16t-16 39v502h-455v-502q0 -23 -16 -39t-39 -16h-268q-23 0 -39 15t-17 40v1323q1 23 17 39t39 17h268q23 0 39 -16t16 -40v-493h455v493q0 23 16 39t39 17h268zM850 1864q39 0 76 -39
l209 -230q10 -10 10 -26q0 -33 -33 -33h-147q-24 0 -64 23l-151 88l-152 -88q-41 -23 -63 -23h-148q-33 0 -33 33q0 16 11 26l208 230q32 37 76 39h201z" />
    <glyph glyph-name="hcircumflex" unicode="&#x125;" horiz-adv-x="1318" 
d="M664 768q-177 0 -177 -195v-518q0 -23 -16 -39t-39 -16h-258q-23 0 -39 16t-16 39v1344q0 23 16 39t39 16h258q23 0 39 -16t16 -39v-436q35 43 109 83t171 40q313 -2 411 -259q33 -88 32 -209v-563q0 -23 -16 -39t-39 -16h-258q-23 0 -39 16t-16 39v518q0 87 -43 141
t-135 54zM754 1864q40 0 75 -39l209 -230q10 -10 11 -26q0 -33 -33 -33h-137q-24 0 -64 23l-151 88l-152 -88q-41 -23 -63 -23h-138q-33 0 -32 33q0 16 10 26l209 230q32 37 75 39h181z" />
    <glyph glyph-name="Hbar" unicode="&#x126;" horiz-adv-x="1499" 
d="M977 885v137h-455v-137h455zM1300 1434q23 0 39.5 -16.5t16.5 -39.5v-1323q0 -23 -16.5 -39t-39.5 -16h-268q-23 0 -39 16.5t-16 38.5v502h-455v-502q0 -23 -16.5 -39t-38.5 -16h-268q-23 0 -39.5 15.5t-16.5 39.5v1323q0 23 16.5 39.5t39.5 16.5h268q23 0 39 -16.5
t16 -39.5v-80h455v80q0 23 16.5 39.5t38.5 16.5h268z" />
    <glyph glyph-name="hbar" unicode="&#x127;" horiz-adv-x="1318" 
d="M621.5 768q-134.5 0 -134.5 -195v-518q0 -23 -16 -39t-39 -16h-258q-23 0 -39 16.5t-16 38.5v1065h-109q-23 0 -39 16.5t-16 39.5v88q0 23 16.5 39t38.5 16h109v80q0 23 16.5 39t38.5 16h258q23 0 39 -16.5t16 -38.5v-80h109q23 0 39 -16.5t16 -38.5v-88
q0 -23 -16.5 -39.5t-38.5 -16.5h-109v-157q35 43 109 82.5t171 39.5q205 0 324 -117t119 -350v-563q0 -23 -16 -39t-39 -16h-258q-23 0 -39 16.5t-16 38.5v518q0 88 -43 141.5t-177.5 53.5z" />
    <glyph glyph-name="Itilde" unicode="&#x128;" horiz-adv-x="665" 
d="M199 0q-23 0 -39 16t-17 39v1323q1 23 17 39t39 17h268q23 0 39 -16t16 -40v-1323q0 -23 -16 -39t-39 -16h-268zM700 1843q39 0 39 -43t-16 -92q-33 -100 -120 -156q-42 -26 -116 -26t-153 46q-30 18 -56 32t-55 14t-41 -13t-21 -29t-17 -28t-25 -12h-156q-39 0 -39 42
q0 167 127 249q43 27 122 26t157 -46q30 -17 56 -31t54 -14t43 14q14 15 37 54q8 13 25 13h155z" />
    <glyph glyph-name="itilde" unicode="&#x129;" horiz-adv-x="606" 
d="M487 55q0 -23 -16 -39t-39 -16h-258q-23 0 -39 16.5t-16 38.5v955q0 23 16.5 39t38.5 16h258q23 0 39 -16.5t16 -38.5v-955zM735 1501q39 0 39 -52q0 -30 -13 -82t-45 -97t-83 -76t-109 -31t-91.5 12.5t-63 25.5t-55 25.5t-61.5 12.5t-48.5 -17.5t-22.5 -34.5t-30 -18
h-172q-39 1 -39 47q0 26 13 76.5t65.5 132.5t189.5 82q66 0 118 -25.5t75.5 -37.5t58.5 -12t48 18t23 34t31 17h172z" />
    <glyph glyph-name="Imacron" unicode="&#x12a;" horiz-adv-x="665" 
d="M199 0q-23 0 -39 16t-17 39v1323q1 23 17 39t39 17h268q23 0 39 -16t16 -40v-1323q0 -23 -16 -39t-39 -16h-268zM6 1536q-23 0 -39 16t-16 39v176q0 23 16 39t39 17h653q23 -1 39 -17t17 -39v-176q-1 -23 -17 -39t-39 -16h-653z" />
    <glyph glyph-name="imacron" unicode="&#x12b;" horiz-adv-x="606" 
d="M487 55q0 -23 -16 -39t-39 -16h-258q-23 0 -39 16t-16 39v955q0 23 16 39t39 16h258q23 0 39 -16t16 -39v-955zM8 1219q-23 0 -39 16t-16 39v176q0 23 16 39t39 16h592q23 0 39 -16t16 -39v-176q0 -23 -16 -39t-39 -16h-592z" />
    <glyph glyph-name="Ibreve" unicode="&#x12c;" horiz-adv-x="665" 
d="M199 0q-23 0 -39 16t-17 39v1323q1 23 17 39t39 17h268q23 0 39 -16t16 -40v-1323q0 -23 -16 -39t-39 -16h-268zM639 1864q39 0 39 -56q0 -32 -18 -86q-40 -114 -168 -169q-66 -27 -160 -27q-175 0 -267 99q-79 83 -79 200q0 37 39 39h172q37 0 38 -39t25 -71t72 -32
t72 32t24 70t39 40h172z" />
    <glyph glyph-name="ibreve" unicode="&#x12d;" horiz-adv-x="606" 
d="M487 55q0 -23 -16 -39t-39 -16h-258q-23 0 -39 16t-16 39v955q0 23 16 39t39 16h258q23 0 39 -16t16 -39v-955zM600 1546q39 0 39 -44q0 -113 -74 -194q-89 -100 -263 -100t-261 100q-72 81 -74 199q0 39 39 39h172q39 0 39 -39t22 -71q23 -32 65 -31q42 0 64 32
q22 33 22 71t38 38h172z" />
    <glyph glyph-name="Iogonek" unicode="&#x12e;" horiz-adv-x="665" 
d="M446 0q-53 0 -81.5 -34t-28.5 -81t28.5 -80.5t81.5 -33.5h31q45 0 45 -45v-132q0 -45 -45 -45h-39q-149 0 -240.5 93.5t-91.5 242.5q0 94 37 168v1325q0 23 16.5 39.5t39.5 16.5h268q23 0 39 -16.5t16 -39.5v-1323q0 -23 -16.5 -39t-38.5 -16h-21z" />
    <glyph glyph-name="iogonek" unicode="&#x12f;" horiz-adv-x="608" 
d="M489 1233q0 -23 -16 -39t-39 -16h-258q-23 0 -39 16t-16 39v207q0 23 16.5 39t38.5 16h258q23 0 39 -16.5t16 -38.5v-207zM489 55q0 -23 -16 -39t-39 -16h-20q-53 0 -82 -34t-29 -81t28.5 -80.5t82.5 -33.5h30q45 0 45 -45v-132q0 -45 -45 -45h-38q-150 0 -241 93
t-91 243q0 104 47 187v938q0 23 16.5 39t38.5 16h258q23 0 39 -16.5t16 -38.5v-955z" />
    <glyph glyph-name="Idotaccent" unicode="&#x130;" horiz-adv-x="665" 
d="M199 0q-23 0 -39 16t-17 39v1323q1 23 17 39t39 17h268q23 0 39 -16t16 -40v-1323q0 -23 -16 -39t-39 -16h-268zM502 1591q0 -23 -16 -39t-40 -16h-227q-23 0 -39 16t-16 39v228q0 23 16 39t39 16h227q23 0 39 -16t17 -39v-228z" />
    <glyph glyph-name="dotlessi" unicode="&#x131;" horiz-adv-x="606" 
d="M487 55q0 -23 -16 -39t-39 -16h-258q-23 0 -39 16.5t-16 38.5v955q0 23 16.5 39t38.5 16h258q23 0 39 -16.5t16 -38.5v-955z" />
    <glyph glyph-name="IJ" unicode="&#x132;" horiz-adv-x="1482" 
d="M199 0q-23 0 -39.5 16.5t-16.5 38.5v1323q0 23 16.5 39.5t39.5 16.5h268q23 0 39 -16.5t16 -39.5v-1323q0 -23 -16.5 -39t-38.5 -16h-268zM741 307q234 0 234 228v843q0 23 16.5 39.5t38.5 16.5h266q23 0 39.5 -16.5t16.5 -39.5v-856q0 -257 -174.5 -399.5t-436.5 -142.5
q-23 0 -39 16t-16 39v217q0 23 16.5 39t38.5 16z" />
    <glyph glyph-name="ij" unicode="&#x133;" horiz-adv-x="1234" 
d="M487 1233q0 -23 -16 -39t-39 -16h-258q-23 0 -39 16t-16 39v207q0 23 16 39t39 16h258q23 0 39 -16t16 -39v-207zM487 55q0 -23 -16 -39t-39 -16h-258q-23 0 -39 16t-16 39v955q0 23 16 39t39 16h258q23 0 39 -16t16 -39v-955zM659 -72q86 0 89 99v983q0 23 16 39t39 16
h258q23 0 39 -16t16 -39v-994q0 -189 -121 -297t-315 -108h-102q-23 0 -39 16t-17 39v197q0 23 16 45t40 20h81zM1116 1233q0 -23 -16 -39t-39 -16h-258q-23 0 -39 16t-16 39v207q0 23 16 39t39 16h258q23 0 39 -16t16 -39v-207z" />
    <glyph glyph-name="Jcircumflex" unicode="&#x134;" horiz-adv-x="1402" 
d="M662 307q233 0 233 228v571h-700q-23 0 -39 16t-17 39v217q1 23 17 39t39 17h1022q23 0 39 -16t16 -40v-856q0 -256 -175 -400t-438 -143t-434 132q-170 131 -174 352q-1 17 13 31t32 14h262q40 0 52 -12t30 -64t71 -89q52 -36 151 -36zM823 1864q39 0 76 -39l209 -230
q10 -10 10 -26q0 -33 -33 -33h-147q-24 0 -64 23l-151 88l-152 -88q-18 -11 -30 -17t-33 -6h-148q-33 0 -32 33q0 16 10 26l209 230q32 37 76 39h200z" />
    <glyph glyph-name="jcircumflex" unicode="&#x135;" horiz-adv-x="731" 
d="M156 -72q85 0 88 99v721h-150q-23 0 -39 16t-16 39v207q0 23 16 39t39 16h463q23 0 39 -16t16 -39v-994q0 -190 -121 -298q-121 -107 -315 -107h-102q-23 0 -39 16t-17 39v197q0 23 16 45t40 20h82zM440 1546q40 0 76 -39l209 -229q10 -10 10 -27q0 -33 -33 -32h-137
q-23 0 -63 22l-152 88l-151 -88q-40 -22 -64 -22h-137q-33 0 -33 32q0 16 10 27l209 229q34 39 76 39h180z" />
    <glyph glyph-name="Kcommaaccent" unicode="&#x136;" horiz-adv-x="1378" 
d="M1364 44q0 -16 -13 -30t-32 -14h-326q-45 0 -84 47l-387 488v-480q0 -23 -16 -39t-39 -16h-268q-23 0 -39 16t-17 39v1323q1 23 17 39t39 17h268q23 0 39 -16t16 -40v-432l361 443q10 12 26 28t56 17h319q18 0 32 -14t13 -29q0 -16 -6 -25l-506 -618l541 -680q6 -8 6 -24
zM623 -102h251q18 0 35 -17t9 -43l-113 -284q-26 -66 -88 -66h-182q-18 0 -32 13q-13 13 -14 32v4l46 281q3 28 25 54t63 26z" />
    <glyph glyph-name="kcommaaccent" unicode="&#x137;" horiz-adv-x="1251" 
d="M838 1065h301q21 0 35 -14q14 -13 14 -29t-3 -24t-20 -23l-364 -406l430 -481q20 -23 20 -41q0 -19 -14 -33t-35 -14h-305q-53 0 -84 35l-326 366v-346q0 -23 -16 -39t-39 -16h-258q-23 0 -39 16t-16 39v1344q0 23 16 39t39 16h258q23 0 39 -16t16 -39v-664l271 295
q35 35 80 35zM535 -102h235q18 0 32 -14t13 -26q0 -13 -2 -20l-113 -284q-26 -66 -88 -66h-166q-18 0 -31 13t-14 32v4l45 281q4 28 26 54t63 26z" />
    <glyph glyph-name="kgreenlandic" unicode="&#x138;" horiz-adv-x="1243" 
d="M852 1065h293q20 0 34.5 -14.5t14.5 -29.5t-3 -22.5t-20 -23.5l-372 -432l415 -455q21 -24 21 -42q0 -17 -14.5 -31.5t-34.5 -14.5h-307q-55 0 -84 35l-308 336v-316q0 -23 -16 -39t-39 -16h-258q-23 0 -39 16.5t-16 38.5v955q0 23 16.5 39t38.5 16h258q23 0 39 -16.5
t16 -38.5v-295l285 315q35 35 80 35z" />
    <glyph glyph-name="Lacute" unicode="&#x139;" horiz-adv-x="1234" 
d="M1147 328q23 0 39 -16t16 -40v-217q0 -23 -16 -39t-39 -16h-948q-23 0 -39 16t-17 39v1323q1 23 17 39t39 17h268q23 0 39 -16t16 -40v-1050h625zM453 1864h292q39 0 39 -41q0 -14 -10 -25l-276 -227q-40 -35 -86 -35h-201q-33 0 -33 33q0 16 10 26l189 230q23 27 38 33
t38 6z" />
    <glyph glyph-name="lacute" unicode="&#x13a;" horiz-adv-x="606" 
d="M487 55q0 -23 -16 -39t-39 -16h-258q-23 0 -39 16t-16 39v1344q0 23 16 39t39 16h258q23 0 39 -16t16 -39v-1344zM424 1864h272q39 0 39 -41q0 -14 -10 -25l-276 -227q-40 -35 -87 -35h-180q-33 0 -32 33q0 16 10 26l188 230q23 27 38 33t38 6z" />
    <glyph glyph-name="Lcommaaccent" unicode="&#x13b;" horiz-adv-x="1234" 
d="M1147 328q23 0 39 -16t16 -40v-217q0 -23 -16 -39t-39 -16h-948q-23 0 -39 16t-17 39v1323q1 23 17 39t39 17h268q23 0 39 -16t16 -40v-1050h625zM575 -102h252q17 0 31 -14t14 -26q0 -13 -2 -20l-112 -284q-26 -66 -88 -66h-183q-18 0 -31 13t-14 32v4l45 281
q4 28 26 54t62 26z" />
    <glyph glyph-name="lcommaaccent" unicode="&#x13c;" horiz-adv-x="606" 
d="M487 55q0 -23 -16 -39t-39 -16h-258q-23 0 -39 16t-16 39v1344q0 23 16 39t39 16h258q23 0 39 -16t16 -39v-1344zM201 -102h235q18 0 32 -14t13 -26q0 -13 -2 -20l-112 -284q-26 -66 -88 -66h-166q-18 0 -32 13q-13 13 -13 32v4l45 281q3 28 25 54t63 26z" />
    <glyph glyph-name="Lcaron" unicode="&#x13d;" horiz-adv-x="1236" 
d="M1147 328q23 0 39 -16t16 -40v-217q0 -23 -16 -39t-39 -16h-948q-23 0 -39 16t-17 39v1323q1 23 17 39t39 17h268q23 0 39 -16t16 -40v-1050h625zM801 1454h252q18 0 35 -17t8 -42l-113 -285q-26 -66 -88 -66h-182q-17 0 -31 14t-14 32v4l45 280q3 28 25 54t63 26z" />
    <glyph glyph-name="lcaron" unicode="&#x13e;" horiz-adv-x="841" 
d="M487 55q0 -23 -16 -39t-39 -16h-258q-23 0 -39 16t-16 39v1344q0 23 16 39t39 16h258q23 0 39 -16t16 -39v-1344zM967 1456q18 0 35 -17t8 -42l-113 -285q-27 -66 -88 -65h-166q-18 0 -32 13q-13 13 -13 32v4l45 280q4 29 26 55t62 25h236z" />
    <glyph glyph-name="Ldot" unicode="&#x13f;" horiz-adv-x="1236" 
d="M1147 328q23 0 39 -16t16 -40v-217q0 -23 -16 -39t-39 -16h-948q-23 0 -39 16t-17 39v1323q1 23 17 39t39 17h268q23 0 39 -16t16 -40v-1050h625zM1038 684q0 -23 -16 -39t-39 -16h-268q-23 0 -39 16t-17 39v268q1 23 17 39t39 17h268q23 0 39 -16t16 -40v-268z" />
    <glyph glyph-name="ldot" unicode="&#x140;" horiz-adv-x="911" 
d="M487 55q0 -23 -16 -39t-39 -16h-258q-23 0 -39 16t-16 39v1344q0 23 16 39t39 16h258q23 0 39 -16t16 -39v-1344zM928 623q0 -23 -16 -39t-40 -17h-227q-23 1 -39 17t-16 39v227q0 23 16 39t39 16h227q23 0 39 -16t17 -39v-227z" />
    <glyph glyph-name="Lslash" unicode="&#x141;" horiz-adv-x="1249" 
d="M1161 328q23 0 39.5 -16.5t16.5 -39.5v-217q0 -23 -16.5 -39t-39.5 -16h-948q-23 0 -39 16.5t-16 38.5v461l-58 -22q-34 -13 -49.5 2.5t-15.5 33.5v119q0 51 45 68l78 31v630q0 23 16 39.5t39 16.5h268q23 0 39.5 -16.5t16.5 -39.5v-483l274 109q13 6 27 6t26.5 -12.5
t12.5 -30.5v-119q0 -51 -46 -68l-294 -116v-336h624z" />
    <glyph glyph-name="lslash" unicode="&#x142;" horiz-adv-x="677" 
d="M154 1399q0 23 16 39t39 16h258q23 0 39 -16.5t16 -38.5v-484l58 23q14 6 27 6t25.5 -12t12.5 -31v-119q0 -51 -45 -67l-78 -31v-629q0 -23 -16.5 -39t-38.5 -16h-258q-23 0 -39 16.5t-16 38.5v484l-58 -23q-16 -6 -28 -6t-24.5 12.5t-12.5 30.5v119q0 51 45 67l78 31
v629z" />
    <glyph glyph-name="Nacute" unicode="&#x143;" horiz-adv-x="1486" 
d="M1075 0q-35 0 -57 18t-27 29l-469 701v-693q0 -23 -16 -39t-39 -16h-268q-23 0 -39 16t-17 39v1323q1 23 17 39t39 17h213q34 0 56 -18t28 -30l469 -700v692q0 23 16 39t39 17h268q23 0 39 -16t16 -40v-1323q0 -23 -16 -39t-39 -16h-213zM868 1864h293q39 0 39 -41
q0 -14 -10 -25l-277 -227q-40 -35 -86 -35h-200q-33 0 -33 33q0 16 10 26l189 230q23 27 37 33t38 6z" />
    <glyph glyph-name="nacute" unicode="&#x144;" horiz-adv-x="1318" 
d="M766 1085q313 0 412 -258q33 -88 32 -209v-563q0 -23 -16 -39t-39 -16h-258q-23 0 -39 16t-16 39v518q0 87 -43 141t-135 54q-177 0 -177 -195v-518q0 -23 -16 -39t-39 -16h-258q-23 0 -39 16t-16 39v955q0 23 16 39t39 16h248q23 0 39 -16t16 -39v-47q98 122 289 122z
M795 1546h272q39 0 39 -41q0 -14 -10 -24l-277 -228q-39 -34 -86 -34h-180q-33 0 -33 32q0 16 10 27l189 229q23 27 38 33t38 6z" />
    <glyph glyph-name="Ncommaaccent" unicode="&#x145;" horiz-adv-x="1486" 
d="M1075 0q-35 0 -57 18t-27 29l-469 701v-693q0 -23 -16 -39t-39 -16h-268q-23 0 -39 16t-17 39v1323q1 23 17 39t39 17h213q34 0 56 -18t28 -30l469 -700v692q0 23 16 39t39 17h268q23 0 39 -16t16 -40v-1323q0 -23 -16 -39t-39 -16h-213zM639 -102h252q17 0 31 -14
t14 -26q0 -13 -2 -20l-113 -284q-26 -66 -88 -66h-182q-18 0 -32 13q-13 13 -13 32v4l45 281q4 28 26 54t62 26z" />
    <glyph glyph-name="ncommaaccent" unicode="&#x146;" horiz-adv-x="1318" 
d="M766 1085q313 0 412 -258q33 -88 32 -209v-563q0 -23 -16 -39t-39 -16h-258q-23 0 -39 16t-16 39v518q0 87 -43 141t-135 54q-177 0 -177 -195v-518q0 -23 -16 -39t-39 -16h-258q-23 0 -39 16t-16 39v955q0 23 16 39t39 16h248q23 0 39 -16t16 -39v-47q98 122 289 122z
M563 -102h236q18 0 34 -17t9 -43l-113 -284q-26 -66 -88 -66h-166q-18 0 -32 13q-13 13 -13 32v4l45 281q4 28 26 54t62 26z" />
    <glyph glyph-name="Ncaron" unicode="&#x147;" horiz-adv-x="1486" 
d="M1075 0q-35 0 -57 18t-27 29l-469 701v-693q0 -23 -16 -39t-39 -16h-268q-23 0 -39 16t-17 39v1323q1 23 17 39t39 17h213q34 0 56 -18t28 -30l469 -700v692q0 23 16 39t39 17h268q23 0 39 -16t16 -40v-1323q0 -23 -16 -39t-39 -16h-213zM643 1536q-40 0 -76 39l-209 229
q-10 10 -10 27q0 33 33 33h147q24 0 64 -23l151 -88l152 88q41 23 63 23h148q33 0 33 -33q0 -16 -11 -27l-208 -229q-34 -39 -76 -39h-201z" />
    <glyph glyph-name="ncaron" unicode="&#x148;" horiz-adv-x="1318" 
d="M766 1085q313 0 412 -258q33 -88 32 -209v-563q0 -23 -16 -39t-39 -16h-258q-23 0 -39 16t-16 39v518q0 87 -43 141t-135 54q-177 0 -177 -195v-518q0 -23 -16 -39t-39 -16h-258q-23 0 -39 16t-16 39v955q0 23 16 39t39 16h248q23 0 39 -16t16 -39v-47q98 122 289 122z
M573 1219q-39 0 -75 38l-209 230q-10 10 -10 26q0 33 32 33h138q21 0 63 -22l152 -88l151 88q40 22 64 22h137q33 0 33 -33q0 -16 -11 -26l-209 -230q-33 -38 -75 -38h-181z" />
    <glyph glyph-name="napostrophe" unicode="&#x149;" horiz-adv-x="1318" 
d="M766 1085q313 0 412 -258q33 -88 32 -209v-563q0 -23 -16 -39t-39 -16h-258q-23 0 -39 16t-16 39v518q0 87 -43 141t-135 54q-177 0 -177 -195v-518q0 -23 -16 -39t-39 -16h-258q-23 0 -39 16t-16 39v955q0 23 16 39t39 16h248q23 0 39 -16t16 -39v-47q98 122 289 122z
M530 1628q18 0 32 -13t13 -27q0 -14 -2 -19l-112 -285q-27 -66 -88 -65h-166q-18 0 -32 13q-13 13 -13 32v4l45 280q4 29 25 55q22 26 63 25h235z" />
    <glyph glyph-name="Eng" unicode="&#x14a;" horiz-adv-x="1486" 
d="M877 -133q88 0 88 98v121l-443 662v-693q0 -23 -16.5 -39t-38.5 -16h-268q-23 0 -39.5 16.5t-16.5 38.5v1323q0 23 16.5 39.5t39.5 16.5h213q53 0 84 -48l469 -700v692q0 23 16 39.5t39 16.5h268q23 0 39 -16.5t16 -39.5v-1413q0 -193 -108.5 -309.5t-296.5 -116.5h-143
q-23 0 -39.5 16.5t-16.5 38.5v218q0 23 16.5 39t39.5 16h82z" />
    <glyph glyph-name="eng" unicode="&#x14b;" horiz-adv-x="1318" 
d="M766 1085q316 0 380 -173t64 -294v-673q0 -189 -120.5 -297.5t-315.5 -108.5h-102q-23 0 -39.5 16.5t-16.5 38.5v197q0 23 16.5 44.5t39.5 21.5h82q88 0 88 98v618q0 88 -43 141.5t-177.5 53.5t-134.5 -195v-518q0 -23 -16 -39t-39 -16h-258q-23 0 -39 16.5t-16 38.5v955
q0 23 16.5 39t38.5 16h248q23 0 39 -16.5t16 -38.5v-47q98 122 289 122z" />
    <glyph glyph-name="Omacron" unicode="&#x14c;" 
d="M735 1126q-258 0 -264 -282q-2 -78 -2 -161t6 -138q9 -102 71 -170t189 -68t189 68q61 68 71 170q6 111 6 175t-5 142q-17 264 -261 264zM1192 1297q169 -157 182 -398q4 -88 4 -184q0 -95 -5 -195t-49 -202q-92 -213 -323 -295q-117 -43 -267 -43q-289 0 -457 157
t-181 398q-4 84 -4 180q0 95 5 197t49 203t125 176q176 163 464 163t457 -157zM410 1536q-23 0 -39 16t-17 39v176q0 23 16 39t40 17h653q23 -1 39 -17t16 -39v-176q0 -23 -16 -39t-39 -16h-653z" />
    <glyph glyph-name="omacron" unicode="&#x14d;" horiz-adv-x="1261" 
d="M631 297q82 0 132 44t56 122q4 31 4 69t-4 70q-6 78 -56 122t-132 44t-132 -44t-57 -122q-4 -32 -4 -70t4 -69q6 -78 56 -122t133 -44zM1190 531q0 -48 -2 -78q-8 -202 -161 -338q-152 -137 -398 -136t-396 137q-151 136 -159 337q-2 31 -2 79t2 78q4 200 160 338
t398 138q242 -1 395 -137t161 -339q2 -31 2 -79zM336 1219q-23 0 -39 16t-16 39v176q0 23 16 39t39 16h592q23 0 39 -16t16 -39v-176q0 -23 -16 -39t-39 -16h-592z" />
    <glyph glyph-name="Obreve" unicode="&#x14e;" 
d="M735 1126q-258 0 -264 -282q-2 -78 -2 -161t6 -138q9 -102 71 -170t189 -68t189 68q61 68 71 170q6 111 6 175t-5 142q-17 264 -261 264zM1192 1297q169 -157 182 -398q4 -88 4 -184q0 -95 -5 -195t-49 -202q-92 -213 -323 -295q-117 -43 -267 -43q-289 0 -457 157
t-181 398q-4 84 -4 180q0 95 5 197t49 203t125 176q176 163 464 163t457 -157zM1042 1864q39 0 39 -56q0 -32 -18 -86q-38 -114 -168 -169q-66 -27 -160 -27q-175 0 -267 99q-42 44 -60 97q-47 138 20 142h172q39 0 39 -50q0 -28 25 -60q26 -32 72 -32t71 32t25 60
q-1 48 38 50h172z" />
    <glyph glyph-name="obreve" unicode="&#x14f;" horiz-adv-x="1261" 
d="M631 297q82 0 132 44t56 122q4 31 4 69t-4 70q-6 78 -56 122t-132 44t-132 -44t-57 -122q-4 -32 -4 -70t4 -69q6 -78 56 -122t133 -44zM1190 531q0 -48 -2 -78q-8 -202 -161 -338q-152 -137 -398 -136t-396 137q-151 136 -159 337q-2 31 -2 79t2 78q4 200 160 338
t398 138q242 -1 395 -137t161 -339q2 -31 2 -79zM928 1546q37 0 38 -44q2 -44 -16 -97q-38 -116 -160 -169q-65 -28 -159 -28q-176 0 -262 100q-74 83 -74 199q0 39 39 39h172q39 0 39 -39q-1 -39 21 -71t65 -31q43 0 65 32q22 33 21 71q0 38 39 38h172z" />
    <glyph glyph-name="Ohungarumlaut" unicode="&#x150;" 
d="M735 1126q-258 0 -264 -282q-2 -78 -2 -161t6 -138q9 -102 71 -170t189 -68t189 68q61 68 71 170q6 111 6 175t-5 142q-17 264 -261 264zM1192 1297q169 -157 182 -398q4 -88 4 -184q0 -95 -5 -195t-49 -202q-92 -213 -323 -295q-117 -43 -267 -43q-289 0 -457 157
t-181 398q-4 84 -4 180q0 95 5 197t49 203t125 176q176 163 464 163t457 -157zM1266 1864q41 0 41 -39q0 -14 -13 -27l-215 -233q-25 -29 -69 -29h-150q-33 0 -33 33q0 17 11 30l102 226q19 37 76 39h250zM793 1864q41 0 41 -39q0 -14 -13 -27l-215 -233q-25 -29 -69 -29
h-150q-33 0 -33 33q0 17 11 30l102 226q19 37 76 39h250z" />
    <glyph glyph-name="ohungarumlaut" unicode="&#x151;" horiz-adv-x="1261" 
d="M631 297q82 0 132 44t56 122q4 31 4 69t-4 70q-6 78 -56 122t-132 44t-132 -44t-57 -122q-4 -32 -4 -70t4 -69q6 -78 56 -122t133 -44zM1190 531q0 -48 -2 -78q-8 -202 -161 -338q-152 -137 -398 -136t-396 137q-151 136 -159 337q-2 31 -2 79t2 78q4 200 160 338
t398 138q242 -1 395 -137t161 -339q2 -31 2 -79zM915 1546h230q41 0 41 -39q0 -14 -12 -26l-216 -234q-25 -29 -69 -28h-129q-33 0 -33 32q0 16 10 31l103 225q19 39 75 39zM465 1546h229q41 0 41 -39q0 -14 -12 -26l-215 -234q-25 -29 -70 -28h-129q-33 0 -33 32
q0 14 11 31l102 225q20 39 76 39z" />
    <glyph glyph-name="OE" unicode="&#x152;" horiz-adv-x="2011" 
d="M897 328v778h-147q-267 0 -279 -236q-4 -86 -4 -153.5t4 -153.5q10 -236 268 -235h158zM1862 328q23 0 39 -16.5t16 -39.5v-217q0 -23 -16.5 -39t-38.5 -16h-1133q-280 0 -452.5 159t-184.5 412q-4 82 -4 143.5t5 167.5t53.5 211t180.5 223t412 118h1106q23 0 39.5 -16.5
t16.5 -39.5v-217q0 -23 -16.5 -39t-39.5 -16h-569v-221h524q23 0 39 -16.5t16 -39.5v-217q0 -23 -16 -39t-39 -16h-524v-229h586z" />
    <glyph glyph-name="oe" unicode="&#x153;" horiz-adv-x="1996" 
d="M1376 809q-86 0 -131 -51t-53 -115h369q-8 63 -53.5 114.5t-131.5 51.5zM631 297q82 0 132 44t56 122q4 31 4 69.5t-4 69.5q-6 78 -56 122t-132 44t-132 -44t-57 -122q-4 -31 -4 -69.5t4 -69.5q6 -78 56.5 -122t132.5 -44zM1376 1085q278 0 415.5 -165.5t137.5 -391.5
v-57q0 -23 -16.5 -39t-38.5 -16h-682q0 -85 54 -122.5t144 -37.5t144 47q23 18 33 23.5t35 5.5h266q45 0 45 -45q0 -25 -31 -75t-143 -141t-352 -91q-241 0 -386 114q-155 -114 -386 -114t-382 136t-159 337q-2 31 -2 79t2 78q4 200 158.5 337.5t386.5 137.5t387 -118
q145 118 370 118z" />
    <glyph glyph-name="Racute" unicode="&#x154;" horiz-adv-x="1423" 
d="M522 813h232q86 0 142 33t56 119q0 87 -56 119t-142 32h-232v-303zM1331 965q0 -298 -244 -410l254 -487q16 -32 -2 -50t-36 -18h-279q-41 0 -58 18t-28 37l-227 439h-189v-439q0 -23 -16 -39t-39 -16h-268q-23 0 -39 16t-17 39v1323q1 23 17 39t39 17h555
q270 0 423 -116q154 -116 154 -353zM819 1864h293q39 0 39 -41q0 -14 -10 -25l-277 -227q-40 -35 -86 -35h-200q-33 0 -33 33q0 16 10 26l188 230q23 27 38 33t38 6z" />
    <glyph glyph-name="racute" unicode="&#x155;" horiz-adv-x="940" 
d="M739 1065h123q23 0 39 -16t17 -39v-207q0 -23 -16 -39t-40 -16h-186q-188 0 -189 -189v-504q0 -23 -16 -39t-39 -16h-258q-23 0 -39 16t-16 39v955q0 23 16 39t39 16h238q23 0 39 -16t16 -39v-47q107 102 272 102zM647 1546h273q39 0 38 -41q0 -14 -10 -24l-276 -228
q-39 -34 -86 -34h-180q-33 0 -33 32q0 16 10 27l188 229q23 27 38 33t38 6z" />
    <glyph glyph-name="Rcommaaccent" unicode="&#x156;" horiz-adv-x="1423" 
d="M522 813h232q86 0 142 33t56 119q0 87 -56 119t-142 32h-232v-303zM1331 965q0 -298 -244 -410l254 -487q16 -32 -2 -50t-36 -18h-279q-41 0 -58 18t-28 37l-227 439h-189v-439q0 -23 -16 -39t-39 -16h-268q-23 0 -39 16t-17 39v1323q1 23 17 39t39 17h555
q270 0 423 -116q154 -116 154 -353zM602 -102h252q18 0 32 -14t13 -26q0 -13 -2 -20l-113 -284q-26 -66 -88 -66h-182q-18 0 -32 13q-13 13 -13 32v4l45 281q4 28 26 54t62 26z" />
    <glyph glyph-name="rcommaaccent" unicode="&#x157;" horiz-adv-x="940" 
d="M739 1065h123q23 0 39 -16t17 -39v-207q0 -23 -16 -39t-40 -16h-186q-188 0 -189 -189v-504q0 -23 -16 -39t-39 -16h-258q-23 0 -39 16t-16 39v955q0 23 16 39t39 16h238q23 0 39 -16t16 -39v-47q107 102 272 102zM197 -102h235q18 0 32 -14t13 -26q0 -13 -2 -20
l-113 -284q-26 -66 -88 -66h-165q-18 0 -32 13q-13 13 -14 32v4l46 281q3 28 25 54t63 26z" />
    <glyph glyph-name="Rcaron" unicode="&#x158;" horiz-adv-x="1423" 
d="M522 813h232q86 0 142 33t56 119q0 87 -56 119t-142 32h-232v-303zM1331 965q0 -298 -244 -410l254 -487q16 -32 -2 -50t-36 -18h-279q-41 0 -58 18t-28 37l-227 439h-189v-439q0 -23 -16 -39t-39 -16h-268q-23 0 -39 16t-17 39v1323q1 23 17 39t39 17h555
q270 0 423 -116q154 -116 154 -353zM604 1536q-40 0 -76 39l-209 229q-10 10 -10 27q0 33 33 33h147q24 0 64 -23l152 -88l151 88q41 23 64 23h147q33 0 33 -33q0 -16 -10 -27l-209 -229q-34 -39 -76 -39h-201z" />
    <glyph glyph-name="rcaron" unicode="&#x159;" horiz-adv-x="940" 
d="M739 1065h123q23 0 39 -16t17 -39v-207q0 -23 -16 -39t-40 -16h-186q-188 0 -189 -189v-504q0 -23 -16 -39t-39 -16h-258q-23 0 -39 16t-16 39v955q0 23 16 39t39 16h238q23 0 39 -16t16 -39v-47q107 102 272 102zM428 1219q-40 0 -76 38l-209 230q-10 10 -10 26
q0 33 33 33h137q22 0 64 -22l151 -88l152 88q40 22 63 22h137q33 0 33 -33q0 -16 -10 -26l-209 -230q-33 -38 -76 -38h-180z" />
    <glyph glyph-name="Sacute" unicode="&#x15a;" horiz-adv-x="1380" 
d="M940 416q0 31 -27 51q-53 39 -176 63q-123 25 -235 50q-211 45 -308 150q-98 105 -98 285t161 310q161 129 413 129q253 0 436 -135q80 -59 125 -131t47 -137q0 -17 -13 -31t-30 -14h-268q-53 0 -108 60q-56 60 -183 60q-198 0 -201 -104q-1 -31 19 -51q37 -38 151 -63
q113 -25 225 -48q233 -48 341 -148t108 -294t-178 -317t-452 -122q-273 1 -455 135q-83 60 -130 136t-49 153q-1 17 13 31t30 15h269q44 -1 64 -19q21 -18 37 -36q75 -84 218 -87q254 0 254 109zM809 1864h293q39 0 39 -41q0 -14 -11 -25l-276 -227q-40 -35 -86 -35h-201
q-33 0 -32 33q0 16 10 26l188 230q23 27 38 33t38 6z" />
    <glyph glyph-name="sacute" unicode="&#x15b;" horiz-adv-x="1150" 
d="M1005 534q85 -95 85 -228t-144 -231q-144 -97 -374 -96q-231 1 -367 93q-135 92 -144 200q-3 23 15 39t41 17h254q23 0 33 -12q50 -60 165 -60q61 0 107 16q45 16 45 47q0 23 -15 35q-14 12 -52 20t-98 17q-60 8 -150 25q-156 28 -240 114t-84 225t133 235q133 97 342 96
q208 -1 356 -92q66 -40 104 -92t41 -89q4 -37 -14 -53t-40 -17h-244q-23 1 -36 11q-69 56 -172 55q-103 0 -101 -57q0 -23 10 -35q10 -11 41 -19t86 -16t145 -23q186 -31 272 -125zM709 1546h272q39 0 39 -41q0 -14 -10 -24l-277 -228q-39 -34 -86 -34h-180q-33 0 -33 32
q0 16 10 27l189 229q23 27 38 33t38 6z" />
    <glyph glyph-name="Scircumflex" unicode="&#x15c;" horiz-adv-x="1380" 
d="M940 416q0 31 -27 51q-53 39 -176 63q-123 25 -235 50q-211 45 -308 150q-98 105 -98 285t161 310q161 129 413 129q253 0 436 -135q80 -59 125 -131t47 -137q0 -17 -13 -31t-30 -14h-268q-53 0 -108 60q-56 60 -183 60q-198 0 -201 -104q-1 -31 19 -51q37 -38 151 -63
q113 -25 225 -48q233 -48 341 -148t108 -294t-178 -317t-452 -122q-273 1 -455 135q-83 60 -130 136t-49 153q-1 17 13 31t30 15h269q44 -1 64 -19q21 -18 37 -36q75 -84 218 -87q254 0 254 109zM786 1864q39 0 76 -39l209 -230q10 -10 10 -26q0 -33 -32 -33h-148
q-25 0 -63 23l-152 88l-151 -88q-41 -23 -64 -23h-147q-33 0 -33 33q0 16 10 26l209 230q32 37 76 39h200z" />
    <glyph glyph-name="scircumflex" unicode="&#x15d;" horiz-adv-x="1150" 
d="M1005 534q85 -95 85 -228t-144 -231q-144 -97 -374 -96q-231 1 -367 93q-135 92 -144 200q-3 23 15 39t41 17h254q23 0 33 -12q50 -60 165 -60q61 0 107 16q45 16 45 47q0 23 -15 35q-14 12 -52 20t-98 17q-60 8 -150 25q-156 28 -240 114t-84 225t133 235q133 97 342 96
q208 -1 356 -92q66 -40 104 -92t41 -89q4 -37 -14 -53t-40 -17h-244q-23 1 -36 11q-69 56 -172 55q-103 0 -101 -57q0 -23 10 -35q10 -11 41 -19t86 -16t145 -23q186 -31 272 -125zM659 1546q40 0 76 -39l209 -229q10 -10 10 -27q0 -33 -32 -32h-138q-21 0 -63 22l-152 88
l-151 -88q-40 -22 -64 -22h-137q-33 0 -33 32q0 16 11 27l208 229q34 39 76 39h180z" />
    <glyph glyph-name="Scedilla" unicode="&#x15e;" horiz-adv-x="1380" 
d="M686 307q254 0 254 109q0 31 -26.5 51t-80 37.5t-136.5 34t-195 41.5q-211 45 -308.5 150.5t-97.5 285.5t161 309t413 129q253 0 384.5 -97t176.5 -169t47 -137q0 -18 -13.5 -31.5t-29.5 -13.5h-268q-53 0 -108.5 60t-182.5 60q-201 0 -201 -67.5t19.5 -88t65.5 -38
t122 -33.5t247 -50t280.5 -135t109.5 -295t-171.5 -314.5t-445.5 -124.5l-43 -91q31 21 76 21q78 0 117 -53.5t39 -127t-55.5 -127t-136.5 -53.5t-124 27t-53 44.5t8 33.5l37 33q16 14 27.5 14t37.5 -13.5t56 -13.5q68 0 68 56t-68 55q-14 0 -29.5 -4t-40 -9t-40.5 11
l-37 43q-12 16 -15.5 27.5t11.5 40.5l43 92q-228 27 -374.5 150t-150.5 267q0 18 13.5 32t29.5 14h269q44 -1 64 -19q21 -18 68 -70.5t187 -52.5z" />
    <glyph glyph-name="scedilla" unicode="&#x15f;" horiz-adv-x="1150" 
d="M563 -326q68 0 68 56t-68 55q-14 0 -29.5 -4t-40 -9t-40.5 11l-37 43q-12 16 -15.5 27.5t11.5 40.5l45 94q-181 23 -283 106t-113 178q-2 23 15.5 39.5t40.5 16.5h254q23 0 33 -11.5t26 -24.5t47 -24.5t92.5 -11.5t106.5 16t45 47q0 23 -15.5 35.5t-52.5 20.5t-97 16
t-150 25q-156 29 -240 114.5t-84 224.5t132 234.5t341 95.5t316.5 -65.5t145.5 -117.5t41 -89t-14.5 -53.5t-39.5 -16.5h-244q-23 0 -36 10.5t-47.5 33t-130.5 22.5q-95 0 -95 -57q0 -23 10 -35t40.5 -19.5t86 -15.5t145.5 -23q186 -31 271.5 -126t85.5 -227t-138 -229
t-374 -97l-43 -91q32 21 75 21q78 0 117 -53.5t39 -127t-55.5 -127t-137.5 -53.5t-123.5 27t-52 44.5t8.5 33.5l36 33q16 14 27.5 14t37.5 -13.5t56 -13.5z" />
    <glyph glyph-name="Scaron" unicode="&#x160;" horiz-adv-x="1380" 
d="M940 416q0 31 -27 51q-53 39 -176 63q-123 25 -235 50q-211 45 -308 150q-98 105 -98 285t161 310q161 129 413 129q253 0 436 -135q80 -59 125 -131t47 -137q0 -17 -13 -31t-30 -14h-268q-53 0 -108 60q-56 60 -183 60q-198 0 -201 -104q-1 -31 19 -51q37 -38 151 -63
q113 -25 225 -48q233 -48 341 -148t108 -294t-178 -317t-452 -122q-273 1 -455 135q-83 60 -130 136t-49 153q-1 17 13 31t30 15h269q44 -1 64 -19q21 -18 37 -36q75 -84 218 -87q254 0 254 109zM586 1536q-40 0 -76 39l-209 229q-10 10 -10 27q0 33 33 33h147q24 0 64 -23
l151 -88l152 88q18 11 30 17t33 6h148q33 0 32 -33q0 -16 -10 -27l-209 -229q-34 -39 -76 -39h-200z" />
    <glyph glyph-name="scaron" unicode="&#x161;" horiz-adv-x="1150" 
d="M1005 534q85 -95 85 -228t-144 -231q-144 -97 -374 -96q-231 1 -367 93q-135 92 -144 200q-3 23 15 39t41 17h254q23 0 33 -12q50 -60 165 -60q61 0 107 16q45 16 45 47q0 23 -15 35q-14 12 -52 20t-98 17q-60 8 -150 25q-156 28 -240 114t-84 225t133 235q133 97 342 96
q208 -1 356 -92q66 -40 104 -92t41 -89q4 -37 -14 -53t-40 -17h-244q-23 1 -36 11q-69 56 -172 55q-103 0 -101 -57q0 -23 10 -35q10 -11 41 -19t86 -16t145 -23q186 -31 272 -125zM479 1219q-40 0 -76 38l-208 230q-10 10 -11 26q0 33 33 33h137q22 0 64 -22l151 -88
l152 88q40 22 63 22h138q33 0 32 -33q0 -16 -10 -26l-209 -230q-33 -38 -76 -38h-180z" />
    <glyph glyph-name="Tcommaaccent" unicode="&#x162;" horiz-adv-x="1292" 
d="M1196 1434q23 0 39 -16t16 -40v-217q0 -23 -16 -39t-39 -16h-360v-1051q0 -23 -16 -39t-40 -16h-268q-23 0 -39 16t-16 39v1051h-361q-23 0 -39 16t-16 39v217q0 23 16 39t39 17h1100zM539 -102h252q18 0 34 -17t9 -43l-113 -284q-26 -66 -88 -66h-182q-18 0 -32 13
q-13 13 -13 32v4l45 281q3 28 25 54t63 26z" />
    <glyph glyph-name="tcommaaccent" unicode="&#x163;" horiz-adv-x="970" 
d="M608 416q0 -99 88 -99h164q23 0 39 -16t16 -39v-207q0 -23 -16 -39t-39 -16h-194q-196 0 -312 110t-114 293v345h-152q-23 0 -39 16t-16 39v207q0 23 16 39t39 16h152v334q0 23 16 39t39 16h258q23 0 39 -16t16 -39v-334h232q23 0 39 -16t16 -39v-207q0 -23 -16 -39
t-39 -16h-232v-332zM362 -102h236q18 0 32 -14t13 -26q0 -13 -2 -20l-113 -284q-26 -66 -88 -66h-166q-18 0 -31 13t-14 32v4l45 281q4 28 26 54t62 26z" />
    <glyph glyph-name="Tcaron" unicode="&#x164;" horiz-adv-x="1292" 
d="M1196 1434q23 0 39 -16t16 -40v-217q0 -23 -16 -39t-39 -16h-360v-1051q0 -23 -16 -39t-40 -16h-268q-23 0 -39 16t-16 39v1051h-361q-23 0 -39 16t-16 39v217q0 23 16 39t39 17h1100zM545 1536q-40 0 -76 39l-209 229q-10 10 -10 27q0 33 33 33h147q24 0 64 -23l151 -88
l152 88q18 11 30 17t33 6h148q33 0 32 -33q0 -16 -10 -27l-209 -229q-34 -39 -76 -39h-200z" />
    <glyph glyph-name="tcaron" unicode="&#x165;" horiz-adv-x="1130" 
d="M608 416q0 -99 88 -99h164q23 0 39 -16t16 -39v-207q0 -23 -16 -39t-39 -16h-194q-196 0 -312 110t-114 293v345h-152q-23 0 -39 16t-16 39v207q0 23 16 39t39 16h152v334q0 23 16 39t39 16h258q23 0 39 -16t16 -39v-334h232q23 0 39 -16t16 -39v-207q0 -23 -16 -39
t-39 -16h-232v-332zM1077 1454h236q17 0 31 -13t14 -27t-2 -19l-113 -285q-26 -66 -88 -66h-166q-17 0 -31 14t-14 32v4l45 280q4 28 26 54t62 26z" />
    <glyph glyph-name="Tbar" unicode="&#x166;" horiz-adv-x="1310" 
d="M844 588v-533q0 -23 -16.5 -39t-39.5 -16h-268q-23 0 -39 16.5t-16 38.5v533h-191q-23 0 -39 16.5t-16 38.5v109q0 23 16.5 39t38.5 16h191v299h-361q-23 0 -39 16.5t-16 38.5v217q0 23 16.5 39.5t38.5 16.5h1100q23 0 39.5 -16.5t16.5 -39.5v-217q0 -23 -16.5 -39
t-39.5 -16h-360v-299h190q23 0 39.5 -16.5t16.5 -38.5v-109q0 -23 -16.5 -39t-39.5 -16h-190z" />
    <glyph glyph-name="tbar" unicode="&#x167;" horiz-adv-x="972" 
d="M610 416q0 -99 88 -99h164q23 0 39.5 -16t16.5 -39v-207q0 -23 -16.5 -39t-39.5 -16h-194q-196 0 -311 109t-115 294v140h-152q-23 0 -39 16t-16 39v104q0 23 16.5 39.5t38.5 16.5h152v92h-152q-23 0 -39 16.5t-16 38.5v105q0 23 16.5 39t38.5 16h152v334q0 23 16 39
t39 16h258q23 0 39 -16.5t16 -38.5v-334h232q23 0 39 -16.5t16 -38.5v-105q0 -23 -16.5 -39t-38.5 -16h-232v-92h232q23 0 39 -16.5t16 -39.5v-104q0 -23 -16.5 -39t-38.5 -16h-232v-127z" />
    <glyph glyph-name="Utilde" unicode="&#x168;" horiz-adv-x="1503" 
d="M1319 1434q23 0 39 -16t16 -40v-817q0 -280 -171 -431q-171 -152 -454 -151t-451 153q-169 152 -169 429v817q0 23 16 39t39 17h269q23 0 39 -16t16 -40v-809q0 -123 60 -193t184 -69q124 0 183 70q60 70 60 192v809q1 23 17 39t39 17h268zM1120 1843q39 0 39 -43
t-16 -92q-33 -100 -120 -156q-42 -26 -117 -26t-152 46q-31 18 -57 32q-27 14 -55 14t-40 -13t-21 -29t-17 -28t-25 -12h-156q-39 0 -39 42q0 106 62 191t163 85q102 -1 181 -47q30 -17 56 -31t54 -14t43 14q14 15 37 54q8 13 25 13h155z" />
    <glyph glyph-name="utilde" unicode="&#x169;" horiz-adv-x="1298" 
d="M109 1010q0 23 16 39t39 16h258q23 0 39 -16t16 -39v-518q0 -195 167 -195t167 195v518q0 23 16 39t39 16h258q23 0 39 -16t17 -39v-955q0 -23 -16 -39t-40 -16h-237q-23 0 -39 16t-17 39v47q-85 -122 -286 -122t-319 112t-117 354v564zM1001 1526q39 0 39 -54
q0 -32 -16 -81t-47 -89t-73 -67t-98 -27t-98 16t-111 62q-25 14 -53 14t-40 -13t-22 -29t-17 -27q-8 -12 -25 -12h-155q-39 1 -39 53q0 30 13 80q27 104 114 157q43 27 118 27t147 -46q28 -18 52 -32t52 -14t40 12t22 28t17 28q8 13 25 14h155z" />
    <glyph glyph-name="Umacron" unicode="&#x16a;" horiz-adv-x="1503" 
d="M1319 1434q23 0 39 -16t16 -40v-817q0 -280 -171 -431q-171 -152 -454 -151t-451 153q-169 152 -169 429v817q0 23 16 39t39 17h269q23 0 39 -16t16 -40v-809q0 -123 60 -193t184 -69q124 0 183 70q60 70 60 192v809q1 23 17 39t39 17h268zM426 1536q-23 0 -39 16t-16 39
v176q0 23 16 39t39 17h653q23 -1 39 -17t17 -39v-176q-1 -23 -17 -39t-39 -16h-653z" />
    <glyph glyph-name="umacron" unicode="&#x16b;" horiz-adv-x="1298" 
d="M109 1010q0 23 16 39t39 16h258q23 0 39 -16t16 -39v-518q0 -195 167 -195t167 195v518q0 23 16 39t39 16h258q23 0 39 -16t17 -39v-955q0 -23 -16 -39t-40 -16h-237q-23 0 -39 16t-17 39v47q-85 -122 -286 -122t-319 112t-117 354v564zM348 1219q-23 0 -39 16t-16 39
v176q0 23 16 39t39 16h592q23 0 39 -16t16 -39v-176q0 -23 -16 -39t-39 -16h-592z" />
    <glyph glyph-name="Ubreve" unicode="&#x16c;" horiz-adv-x="1503" 
d="M1319 1434q23 0 39 -16t16 -40v-817q0 -280 -171 -431q-171 -152 -454 -151t-451 153q-169 152 -169 429v817q0 23 16 39t39 17h269q23 0 39 -16t16 -40v-809q0 -123 60 -193t184 -69q124 0 183 70q60 70 60 192v809q1 23 17 39t39 17h268zM616 1864q39 0 39 -50
q0 -28 25 -60t72 -32q48 0 72 32t24 70t39 40h172q37 0 38 -44t-17 -98q-40 -115 -169 -169q-65 -27 -159 -27q-174 0 -260 90t-86 209q0 37 38 39h172z" />
    <glyph glyph-name="ubreve" unicode="&#x16d;" horiz-adv-x="1298" 
d="M109 1010q0 23 16 39t39 16h258q23 0 39 -16t16 -39v-518q0 -195 167 -195t167 195v518q0 23 16 39t39 16h258q23 0 39 -16t17 -39v-955q0 -23 -16 -39t-40 -16h-237q-23 0 -39 16t-17 39v47q-85 -122 -286 -122t-319 112t-117 354v564zM940 1546q39 0 39 -44
q0 -113 -74 -194q-89 -100 -263 -100q-175 0 -261 100q-72 81 -74 199q0 39 39 39h172q39 0 39 -39t22 -71q23 -32 65 -31q42 0 64 32q22 33 22 71t38 38h172z" />
    <glyph glyph-name="Uring" unicode="&#x16e;" horiz-adv-x="1503" 
d="M1319 1434q23 0 39 -16t16 -40v-817q0 -280 -171 -431q-171 -152 -454 -151t-451 153q-169 152 -169 429v817q0 23 16 39t39 17h269q23 0 39 -16t16 -40v-809q0 -123 60 -193t184 -69q124 0 183 70q60 70 60 192v809q1 23 17 39t39 17h268zM557 1700q0 80 57 132
q58 52 138 52t137 -52t57 -132t-57 -132t-137 -52t-138 52q-57 52 -57 132zM690 1700q0 -27 18 -44q18 -18 44 -18q27 0 44 18t17 44q0 27 -17 44t-44 17q-26 0 -44 -17t-18 -44z" />
    <glyph glyph-name="uring" unicode="&#x16f;" horiz-adv-x="1298" 
d="M109 1010q0 23 16 39t39 16h258q23 0 39 -16t16 -39v-518q0 -195 167 -195t167 195v518q0 23 16 39t39 16h258q23 0 39 -16t17 -39v-955q0 -23 -16 -39t-40 -16h-237q-23 0 -39 16t-17 39v47q-85 -122 -286 -122t-319 112t-117 354v564zM449 1393q0 80 57 132t137 52
t137 -52q58 -52 58 -132t-58 -132q-58 -53 -137 -53q-80 0 -137 52t-57 133zM582 1393q0 -27 17 -44t44 -17t44 16q17 18 18 45t-17 44t-45 17t-44 -17t-17 -44z" />
    <glyph glyph-name="Uhungarumlaut" unicode="&#x170;" horiz-adv-x="1503" 
d="M1319 1434q23 0 39 -16t16 -40v-817q0 -280 -171 -431q-171 -152 -454 -151t-451 153q-169 152 -169 429v817q0 23 16 39t39 17h269q23 0 39 -16t16 -40v-809q0 -123 60 -193t184 -69q124 0 183 70q60 70 60 192v809q1 23 17 39t39 17h268zM1274 1864q41 0 41 -39
q0 -14 -12 -27l-216 -233q-25 -29 -69 -29h-150q-33 0 -32 33q0 15 10 30l102 226q19 37 76 39h250zM801 1864q41 0 41 -39q0 -14 -13 -27l-215 -233q-25 -29 -69 -29h-150q-33 0 -33 33q0 14 11 30l102 226q19 37 76 39h250z" />
    <glyph glyph-name="uhungarumlaut" unicode="&#x171;" horiz-adv-x="1298" 
d="M109 1010q0 23 16 39t39 16h258q23 0 39 -16t16 -39v-518q0 -195 167 -195t167 195v518q0 23 16 39t39 16h258q23 0 39 -16t17 -39v-955q0 -23 -16 -39t-40 -16h-237q-23 0 -39 16t-17 39v47q-85 -122 -286 -122t-319 112t-117 354v564zM926 1546h229q41 0 41 -39
q0 -14 -12 -26l-215 -234q-25 -29 -70 -28h-129q-33 0 -33 32q0 18 11 31l102 225q20 39 76 39zM475 1546h230q41 0 40 -39q0 -14 -12 -26l-215 -234q-25 -29 -69 -28h-130q-33 0 -32 32q0 16 10 31l102 225q20 39 76 39z" />
    <glyph glyph-name="Uogonek" unicode="&#x172;" horiz-adv-x="1503" 
d="M512 -115q0 73 20 121q-186 51 -294.5 191.5t-108.5 363.5v817q0 23 16.5 39.5t38.5 16.5h269q23 0 39 -16.5t16 -39.5v-809q0 -123 60.5 -192.5t183 -69.5t183 69.5t60.5 192.5v809q0 23 16.5 39.5t39.5 16.5h268q23 0 39 -16.5t16 -39.5v-817q0 -264 -146 -402.5
t-413 -176.5q-74 -8 -74 -100q0 -44 29 -77.5t82 -33.5h31q45 0 45 -45v-132q0 -45 -45 -45h-39q-150 0 -241 93t-91 243z" />
    <glyph glyph-name="uogonek" unicode="&#x173;" horiz-adv-x="1298" 
d="M109 446v564q0 23 16 39t39 16h258q23 0 39 -16.5t16 -38.5v-518q0 -195 167 -195t167 195v518q0 23 16.5 39t38.5 16h258q23 0 39.5 -16.5t16.5 -38.5v-955q0 -23 -16.5 -39t-39.5 -16h-30q-47 -4 -74 -36t-27 -79t29 -80.5t82 -33.5h31q45 0 45 -45v-132q0 -45 -45 -45
h-39q-150 0 -241 93t-91 243q0 98 67 176v41q-85 -122 -286 -122t-318.5 112.5t-117.5 353.5z" />
    <glyph glyph-name="Wcircumflex" unicode="&#x174;" horiz-adv-x="1703" 
d="M1602 1434q18 0 33 -16t10 -46l-265 -1294q-4 -30 -32 -54t-70 -24h-170q-41 0 -67 25t-35 53l-154 463l-154 -463q-10 -30 -36 -54t-66 -24h-170q-41 0 -70 25t-32 53l-265 1294q-2 10 -2 22q-1 12 13 26q14 13 32 14h269q52 0 63 -56l131 -692l121 371q4 14 18 37
t52 22h192q37 0 51 -22t19 -37l121 -371l131 692q10 53 63 56h269zM952 1864q39 0 76 -39l209 -230q10 -10 10 -26q0 -33 -33 -33h-147q-25 0 -63 23l-152 88l-152 -88q-18 -11 -30 -17t-33 -6h-148q-33 0 -32 33q0 16 10 26l209 230q32 37 76 39h200z" />
    <glyph glyph-name="wcircumflex" unicode="&#x175;" horiz-adv-x="1773" 
d="M983 1065q50 0 70 -49l151 -465l152 465q18 49 69 49h254q20 0 39 -18t8 -48l-325 -948q-17 -51 -68 -51h-233q-31 0 -45 16t-23 35l-145 430l-146 -430q-23 -51 -67 -51h-234q-51 0 -67 51l-326 948q-2 9 -2 23t14 28t35 15h254q50 0 70 -49l151 -465l152 465
q18 49 70 49h192zM977 1546q40 0 76 -39l209 -229q10 -10 10 -27q0 -33 -33 -32h-137q-22 0 -64 22l-151 88l-152 -88q-40 -22 -63 -22h-137q-33 0 -33 32q0 16 10 27l209 229q34 39 76 39h180z" />
    <glyph glyph-name="Ycircumflex" unicode="&#x176;" horiz-adv-x="1406" 
d="M893 55q0 -23 -16 -39t-39 -16h-269q-23 0 -39 16t-16 39v437l-473 870q-8 14 -8 30t13 28q13 13 32 14h280q42 0 62 -20t24 -32l258 -503l261 503q4 10 24 30t62 22h280q17 0 31 -14t14 -28q0 -15 -8 -30l-473 -870v-437zM803 1864q39 0 76 -39l208 -230q10 -10 11 -26
q0 -33 -33 -33h-147q-24 0 -64 23l-152 88l-151 -88q-41 -23 -64 -23h-147q-33 0 -33 33q0 16 10 26l209 230q32 37 76 39h201z" />
    <glyph glyph-name="ycircumflex" unicode="&#x177;" horiz-adv-x="1282" 
d="M346 -389q-20 0 -35 14q-14 15 -14 29t2 20l156 367l-414 960q-2 7 -2 21t14 28t35 15h268q40 0 60 -49l227 -533l225 533q18 49 60 49h270q20 0 34 -14q14 -15 15 -29q0 -14 -2 -21l-571 -1341q-18 -49 -60 -49h-268zM733 1546q40 0 76 -39l209 -229q10 -10 10 -27
q0 -33 -33 -32h-137q-23 0 -63 22l-152 88l-151 -88q-40 -22 -64 -22h-137q-33 0 -33 32q0 16 10 27l209 229q34 39 76 39h180z" />
    <glyph glyph-name="Ydieresis" unicode="&#x178;" horiz-adv-x="1406" 
d="M893 55q0 -23 -16 -39t-39 -16h-269q-23 0 -39 16t-16 39v437l-473 870q-8 14 -8 30t13 28q13 13 32 14h280q42 0 62 -20t24 -32l258 -503l261 503q4 10 24 30t62 22h280q17 0 31 -14t14 -28q0 -15 -8 -30l-473 -870v-437zM1122 1591q0 -23 -16 -39t-39 -16h-207
q-23 0 -39 16t-16 39v207q0 23 16 39t39 16h207q23 0 39 -16t16 -39v-207zM600 1591q0 -23 -16 -39t-39 -16h-207q-23 0 -39 16t-16 39v207q0 23 16 39t39 16h207q23 0 39 -16t16 -39v-207z" />
    <glyph glyph-name="Zacute" unicode="&#x179;" horiz-adv-x="1368" 
d="M1233 328q23 0 39 -16t16 -40v-217q0 -23 -16 -39t-39 -16h-1098q-23 0 -39 16t-16 39v207q0 41 31 72l655 772h-610q-23 0 -39 16t-17 39v217q0 23 16 39t40 17h1056q23 0 39 -16t17 -40v-207q0 -39 -27 -67l-655 -776h647zM797 1864h293q39 0 38 -41q0 -14 -10 -25
l-276 -227q-40 -35 -86 -35h-201q-33 0 -33 33q0 16 10 26l189 230q23 27 38 33t38 6z" />
    <glyph glyph-name="zacute" unicode="&#x17a;" horiz-adv-x="1155" 
d="M1030 317q23 0 39 -16t16 -39v-207q0 -23 -16 -39t-39 -16h-893q-23 0 -39 16t-16 39v199q0 34 33 72l405 422h-362q-23 0 -39 16t-17 39v207q0 23 16 39t40 16h831q23 0 39 -16t16 -39v-199q0 -26 -28 -59l-416 -435h430zM657 1546h273q39 0 39 -41q0 -14 -11 -24
l-276 -228q-39 -34 -86 -34h-180q-33 0 -33 32q0 16 10 27l189 229q23 27 38 33t37 6z" />
    <glyph glyph-name="Zdotaccent" unicode="&#x17b;" horiz-adv-x="1368" 
d="M1233 328q23 0 39 -16t16 -40v-217q0 -23 -16 -39t-39 -16h-1098q-23 0 -39 16t-16 39v207q0 41 31 72l655 772h-610q-23 0 -39 16t-17 39v217q0 23 16 39t40 17h1056q23 0 39 -16t17 -40v-207q0 -39 -27 -67l-655 -776h647zM854 1591q0 -23 -16 -39t-39 -16h-228
q-23 0 -39 16t-16 39v228q0 23 16 39t39 16h228q23 0 39 -16t16 -39v-228z" />
    <glyph glyph-name="zdotaccent" unicode="&#x17c;" horiz-adv-x="1155" 
d="M1030 317q23 0 39 -16t16 -39v-207q0 -23 -16 -39t-39 -16h-893q-23 0 -39 16t-16 39v199q0 34 33 72l405 422h-362q-23 0 -39 16t-17 39v207q0 23 16 39t40 16h831q23 0 39 -16t16 -39v-199q0 -26 -28 -59l-416 -435h430zM721 1274q0 -23 -16 -39t-39 -16h-228
q-23 0 -39 16t-16 39v227q0 23 16 39t39 16h228q23 0 39 -16t16 -39v-227z" />
    <glyph glyph-name="Zcaron" unicode="&#x17d;" horiz-adv-x="1368" 
d="M1233 328q23 0 39 -16t16 -40v-217q0 -23 -16 -39t-39 -16h-1098q-23 0 -39 16t-16 39v207q0 41 31 72l655 772h-610q-23 0 -39 16t-17 39v217q0 23 16 39t40 17h1056q23 0 39 -16t17 -40v-207q0 -39 -27 -67l-655 -776h647zM584 1536q-40 0 -76 39l-209 229
q-10 10 -10 27q0 33 33 33h147q25 0 63 -23l152 -88l152 88q18 11 30 17t33 6h148q33 0 32 -33q0 -16 -10 -27l-209 -229q-34 -39 -76 -39h-200z" />
    <glyph glyph-name="zcaron" unicode="&#x17e;" horiz-adv-x="1155" 
d="M1030 317q23 0 39 -16t16 -39v-207q0 -23 -16 -39t-39 -16h-893q-23 0 -39 16t-16 39v199q0 34 33 72l405 422h-362q-23 0 -39 16t-17 39v207q0 23 16 39t40 16h831q23 0 39 -16t16 -39v-199q0 -26 -28 -59l-416 -435h430zM477 1219q-40 0 -76 38l-208 230q-10 10 -11 26
q0 33 33 33h137q22 0 64 -22l151 -88l152 88q40 22 63 22h138q33 0 32 -33q0 -16 -10 -26l-209 -230q-33 -38 -76 -38h-180z" />
    <glyph glyph-name="longs" unicode="&#x17f;" horiz-adv-x="727" 
d="M696 1198q-88 0 -88 -88v-1055q0 -23 -16.5 -39t-38.5 -16h-258q-23 0 -39 16.5t-16 38.5v693h-142q-23 0 -39 16t-16 39v207q0 23 16.5 39t38.5 16h142v55q0 186 125 291t321 105h195q23 0 39 -16.5t16 -39.5v-207q0 -23 -16.5 -39t-38.5 -16h-185z" />
    <glyph glyph-name="florin" unicode="&#x192;" horiz-adv-x="995" 
d="M170 -143q88 0 88 98v793h-141q-23 0 -39.5 16t-16.5 39v207q0 23 16.5 39t39.5 16h141v55q0 184 125 290t322 106h194q23 0 39 -16.5t16 -39.5v-207q0 -23 -16 -39t-39 -16h-184q-88 0 -88 -88v-45h252q23 0 39 -16.5t16 -38.5v-207q0 -23 -16.5 -39t-38.5 -16h-252
v-803q0 -189 -121 -297.5t-316 -108.5h-102q-23 0 -39 16.5t-16 38.5v197q0 23 16.5 44.5t38.5 21.5h82z" />
    <glyph glyph-name="AEacute" unicode="&#x1fc;" horiz-adv-x="2076" 
d="M1206 1864h293q39 0 39 -41q0 -14 -10 -25l-277 -227q-40 -35 -86 -35h-200q-33 0 -33 33q0 16 10 26l188 230q23 27 38 33t38 6zM903 539v567h-35l-252 -567h287zM1913 1434q23 0 39 -16t16 -40v-217q0 -23 -16 -39t-39 -16h-631v-221h586q23 -1 39 -17t16 -39v-217
q0 -23 -16 -39t-39 -16h-586v-229h647q23 0 39 -16t17 -40v-217q-1 -23 -17 -39t-39 -16h-971q-22 0 -38 16t-17 39v166h-428l-76 -170q-10 -15 -27 -33t-53 -18h-262q-23 0 -39 16t-16 32t8 32l576 1286q12 24 31 46t61 22h1235z" />
    <glyph glyph-name="aeacute" unicode="&#x1fd;" horiz-adv-x="1902" 
d="M515 256q92 0 153 57t61 140l-188 -29q-123 -22 -123 -98q0 -39 25 -55q26 -15 72 -15zM1282 809q-86 0 -131 -51t-53 -115h368q-8 63 -53 115t-131 51zM166 748q-49 0 -44 58q3 34 40 85q38 51 102 94q153 102 356 101q204 -1 330 -93q134 92 308 92t279 -50
q206 -98 268 -309q30 -99 30 -198v-57q0 -23 -16 -39t-39 -16h-682q0 -160 200 -160q91 0 142 47q23 17 33 23t34 6h267q45 0 45 -45q0 -25 -31 -75q-75 -121 -262 -194q-102 -39 -244 -38q-267 0 -416 153q-153 -153 -388 -153q-321 0 -404 194q-25 59 -25 129
q-1 135 103 223t337 129l240 41q0 49 -27 81t-94 32q-67 -1 -101 -31t-81 -30h-260zM1026 1546h272q39 0 39 -41q0 -14 -10 -24l-276 -228q-39 -34 -86 -34h-181q-33 0 -32 32q0 16 10 27l188 229q23 27 38 33t38 6z" />
    <glyph glyph-name="Oslashacute" unicode="&#x1fe;" horiz-adv-x="1548" 
d="M893 1864h293q39 0 39 -41q0 -14 -11 -25l-276 -227q-40 -35 -86 -35h-201q-33 0 -33 33q0 16 11 26l188 230q23 27 38 33t38 6zM780 307q121 0 183 68q61 68 71 170q6 50 6 155l-520 -198q18 -86 78 -140t182 -55zM774 1126q-181 0 -238 -143q-28 -67 -28 -256l520 201
q-16 86 -76 142t-178 56zM760 1454q370 0 542 -233q52 -72 80 -158l72 29q14 6 28 6t25 -12q12 -12 13 -31v-119q0 -51 -45 -68l-60 -22q19 -364 -52 -528q-92 -212 -323 -295q-117 -43 -253 -43q-248 0 -404 103t-217 282l-72 -27q-16 -6 -28 -6t-25 12q-12 12 -12 31v119
q0 51 45 67l57 23q-19 363 54 531q90 207 322 295q116 44 253 44z" />
    <glyph glyph-name="oslashacute" unicode="&#x1ff;" horiz-adv-x="1339" 
d="M784 1546h273q39 0 39 -41q0 -14 -11 -24l-276 -228q-39 -34 -86 -34h-180q-33 0 -33 32q0 16 10 27l189 229q23 27 37 33t38 6zM660 297q92 0 146 48t54 147l-342 -132q50 -63 142 -63zM677 768q-89 0 -142 -47t-56 -146l338 132q-51 61 -140 61zM111 532q0 48 2 78
q4 200 160 338t397 137q172 -1 298 -69t191 -178l96 36q34 14 50 -2t16 -34v-119q0 -51 -45 -68l-51 -20q4 -12 4 -80t-2 -98q-8 -202 -161 -338q-152 -137 -396 -135q-174 0 -300 68t-192 181l-94 -36q-35 -13 -50 2q-15 16 -16 34v119q0 51 45 68l50 18v19q-2 31 -2 79z
" />
    <glyph glyph-name="Scommaaccent" unicode="&#x218;" horiz-adv-x="1380" 
d="M940 416q0 31 -27 51q-53 39 -176 63q-123 25 -235 50q-211 45 -308 150q-98 105 -98 285t161 310q161 129 413 129q253 0 436 -135q80 -59 125 -131t47 -137q0 -17 -13 -31t-30 -14h-268q-53 0 -108 60q-56 60 -183 60q-198 0 -201 -104q-1 -31 19 -51q37 -38 151 -63
q113 -25 225 -48q233 -48 341 -148t108 -294t-178 -317t-452 -122q-273 1 -455 135q-83 60 -130 136t-49 153q-1 17 13 31t30 15h269q44 -1 64 -19q21 -18 37 -36q75 -84 218 -87q254 0 254 109zM582 -102h252q18 0 34 -17t9 -43l-113 -284q-26 -66 -88 -66h-182
q-18 0 -32 13q-13 13 -13 32v4l45 281q4 28 26 54t62 26z" />
    <glyph glyph-name="scommaaccent" unicode="&#x219;" horiz-adv-x="1150" 
d="M1005 534q85 -95 85 -228t-144 -231q-144 -97 -374 -96q-231 1 -367 93q-135 92 -144 200q-3 23 15 39t41 17h254q23 0 33 -12q50 -60 165 -60q61 0 107 16q45 16 45 47q0 23 -15 35q-14 12 -52 20t-98 17q-60 8 -150 25q-156 28 -240 114t-84 225t133 235q133 97 342 96
q208 -1 356 -92q66 -40 104 -92t41 -89q4 -37 -14 -53t-40 -17h-244q-23 1 -36 11q-69 56 -172 55q-103 0 -101 -57q0 -23 10 -35q10 -11 41 -19t86 -16t145 -23q186 -31 272 -125zM463 -102h235q18 0 32 -14t13 -26q0 -13 -2 -20l-112 -284q-26 -66 -88 -66h-166
q-18 0 -32 13q-13 13 -13 32v4l45 281q3 28 25 54t63 26z" />
    <glyph glyph-name="dotlessj" unicode="&#x237;" horiz-adv-x="731" 
d="M156 -72q88 0 88 99v721h-150q-23 0 -39 16t-16 39v207q0 23 16.5 39t38.5 16h463q23 0 39 -16.5t16 -38.5v-994q0 -188 -120.5 -296.5t-315.5 -108.5h-102q-23 0 -39.5 16.5t-16.5 38.5v197q0 23 16.5 44t39.5 21h82z" />
    <glyph glyph-name="circumflex" unicode="&#x2c6;" horiz-adv-x="995" 
d="M588 1546q40 0 76 -39l208 -229q10 -10 11 -27q0 -33 -33 -32h-137q-22 0 -64 22l-151 88l-152 -88q-40 -22 -63 -22h-138q-33 0 -32 32q0 16 10 27l209 229q34 39 76 39h180z" />
    <glyph glyph-name="caron" unicode="&#x2c7;" horiz-adv-x="1015" 
d="M418 1219q-41 0 -76 38l-209 230q-10 10 -10 26q0 33 33 33h137q23 0 63 -22l152 -88l151 88q40 22 64 22h137q33 0 33 -33q0 -16 -10 -26l-209 -230q-33 -38 -76 -38h-180z" />
    <glyph glyph-name="breve" unicode="&#x2d8;" horiz-adv-x="897" 
d="M745 1546q39 0 39 -55q0 -33 -17 -86t-56 -97t-103.5 -72t-198.5 -28t-215 91t-81 208q0 39 39 39h172q38 0 38 -39t22 -70.5t65 -31.5t64.5 31.5t21.5 59.5q0 50 38 50h172z" />
    <glyph glyph-name="dotaccent" unicode="&#x2d9;" horiz-adv-x="604" 
d="M451 1274q0 -23 -16.5 -39t-39.5 -16h-227q-23 0 -39 16t-16 39v227q0 23 16 39t39 16h227q23 0 39.5 -16t16.5 -39v-227z" />
    <glyph glyph-name="ring" unicode="&#x2da;" horiz-adv-x="614" 
d="M113 1393q0 80 57 132t137 52t137.5 -52t57.5 -132t-57.5 -132.5t-137.5 -52.5t-137 52.5t-57 132.5zM246 1392.5q0 -26.5 17.5 -44t44 -17.5t44 17.5t17.5 44t-17.5 44t-44 17.5t-44 -17.5t-17.5 -44z" />
    <glyph glyph-name="ogonek" unicode="&#x2db;" horiz-adv-x="641" 
d="M444 -451q-149 0 -240 93t-91 243.5t90.5 243t240.5 92.5h39q45 0 45 -45v-131q0 -45 -45 -45h-30q-53 0 -82 -34t-29 -81t28.5 -80.5t82.5 -33.5h30q45 0 45 -45v-132q0 -45 -45 -45h-39z" />
    <glyph glyph-name="tilde" unicode="&#x2dc;" horiz-adv-x="1019" 
d="M868 1526q39 0 39 -54q0 -32 -16.5 -81.5t-47 -89t-72.5 -66.5t-98 -27t-93 14.5t-65 32t-51.5 31.5t-51.5 14t-41 -13t-22 -28.5t-17 -27.5t-25 -12h-155q-39 1 -39 53q0 30 13 80.5t61 117t146 66.5q97 0 148 -31.5t75 -46t52 -14.5t41 12t22 27.5t17 29t25 13.5h155z
" />
    <glyph glyph-name="hungarumlaut" unicode="&#x2dd;" horiz-adv-x="1134" 
d="M752 1546h229q41 0 41 -39q0 -14 -12 -26l-215 -234q-25 -29 -70 -28h-129q-33 0 -33 32q0 16 10 31l103 225q20 39 76 39zM301 1546h229q41 0 41 -39q0 -14 -12 -26l-215 -234q-25 -29 -70 -28h-129q-33 0 -32 32q0 16 10 31l102 225q20 39 76 39z" />
    <glyph glyph-name="uni0400" unicode="&#x400;" horiz-adv-x="1316" 
d="M1169 328q23 0 39 -16t17 -40v-217q-1 -23 -17 -39t-39 -16h-970q-23 0 -39 16t-17 39v1323q1 23 17 39t39 17h954q23 0 39 -16t16 -40v-217q0 -23 -16 -39t-39 -16h-631v-221h586q23 -1 39 -17t16 -39v-217q0 -23 -16 -39t-39 -16h-586v-229h647zM850 1569
q0 -33 -33 -33h-201q-46 0 -86 35l-276 227q-10 10 -10 25q0 41 39 41h292q23 0 38 -6t38 -33l189 -230q10 -10 10 -26z" />
    <glyph glyph-name="afii10023" unicode="&#x401;" horiz-adv-x="1316" 
d="M1106 1591q0 -23 -16 -39t-39 -16h-207q-23 0 -39 16t-17 39v207q0 23 16 39t40 16h207q23 0 39 -16t16 -39v-207zM584 1591q0 -23 -16 -39t-40 -16h-206q-23 0 -39 16t-17 39v207q0 23 16 39t40 16h206q23 0 39 -16t17 -39v-207zM1169 328q23 0 39 -16t17 -40v-217
q-1 -23 -17 -39t-39 -16h-970q-23 0 -39 16t-17 39v1323q1 23 17 39t39 17h954q23 0 39 -16t16 -40v-217q0 -23 -16 -39t-39 -16h-631v-221h586q23 -1 39 -17t16 -39v-217q0 -23 -16 -39t-39 -16h-586v-229h647z" />
    <glyph glyph-name="afii10051" unicode="&#x402;" horiz-adv-x="1632" 
d="M1092 -133q88 0 88 98v463q0 123 -51.5 175t-174.5 52h-227v-600q0 -23 -16.5 -39t-38.5 -16h-269q-23 0 -39 16.5t-16 38.5v1051h-254q-23 0 -39 16.5t-16 38.5v217q0 23 16.5 39.5t38.5 16.5h926q23 0 39 -16.5t16 -39.5v-217q0 -23 -16.5 -39t-38.5 -16h-293v-123h287
q262 0 403.5 -141.5t141.5 -403.5v-473q0 -192 -109 -309t-297 -117h-143q-23 0 -39.5 16.5t-16.5 38.5v218q0 23 16.5 39t39.5 16h82z" />
    <glyph glyph-name="afii10052" unicode="&#x403;" horiz-adv-x="1243" 
d="M1155 1434q23 0 39 -16t16 -40v-217q0 -23 -16 -39t-39 -16h-633v-1051q0 -23 -16 -39t-39 -16h-268q-23 0 -39 16t-17 39v1323q1 23 17 39t39 17h956zM786 1864h293q39 0 39 -41q0 -14 -10 -25l-277 -227q-40 -35 -86 -35h-200q-33 0 -33 33q0 16 10 26l189 230
q23 27 38 33t37 6z" />
    <glyph glyph-name="afii10053" unicode="&#x404;" horiz-adv-x="1423" 
d="M746 307q137 0 212 99q16 18 34 36.5t48 18.5h273q18 0 32.5 -13.5t12.5 -31.5q-4 -70 -49 -146.5t-176 -183t-407 -106.5t-445.5 163t-186.5 402q-27 378 61 575t258.5 265.5t315.5 68.5t260 -42t195 -106.5t125 -141.5t49 -146q2 -18 -12.5 -31.5t-32.5 -13.5h-273
q-31 0 -48 18.5t-34 36.5q-77 98 -212 98q-143 0 -203.5 -68.5t-69.5 -176.5h387q23 0 39 -16.5t16 -39.5v-217q0 -23 -16 -39t-39 -16h-387q14 -170 101 -208t172 -38z" />
    <glyph glyph-name="afii10054" unicode="&#x405;" horiz-adv-x="1380" 
d="M940 416q0 31 -27 51q-53 39 -176 63q-123 25 -235 50q-211 45 -308 150q-98 105 -98 285t161 310q161 129 413 129q253 0 436 -135q80 -59 125 -131t47 -137q0 -17 -13 -31t-30 -14h-268q-53 0 -108 60q-56 60 -183 60q-198 0 -201 -104q-1 -31 19 -51q37 -38 151 -63
q113 -25 225 -48q233 -48 341 -148t108 -294t-178 -317t-452 -122q-273 1 -455 135q-83 60 -130 136t-49 153q-1 17 13 31t30 15h269q44 -1 64 -19q21 -18 37 -36q75 -84 218 -87q254 0 254 109z" />
    <glyph glyph-name="afii10055" unicode="&#x406;" horiz-adv-x="665" 
d="M199 0q-23 0 -39 16t-17 39v1323q1 23 17 39t39 17h268q23 0 39 -16t16 -40v-1323q0 -23 -16 -39t-39 -16h-268z" />
    <glyph glyph-name="afii10056" unicode="&#x407;" horiz-adv-x="665" 
d="M199 0q-23 0 -39 16t-17 39v1323q1 23 17 39t39 17h268q23 0 39 -16t16 -40v-1323q0 -23 -16 -39t-39 -16h-268zM750 1591q0 -23 -16 -39t-40 -16h-207q-23 0 -39 16t-16 39v207q0 23 16 39t39 16h207q23 0 39 -16t17 -39v-207zM227 1591q0 -23 -16 -39t-39 -16h-207
q-23 0 -39 16t-16 39v207q0 23 16 39t39 16h207q23 0 39 -16t16 -39v-207z" />
    <glyph glyph-name="afii10057" unicode="&#x408;" horiz-adv-x="1402" 
d="M662 307q233 0 233 228v571h-700q-23 0 -39 16t-17 39v217q1 23 17 39t39 17h1022q23 0 39 -16t16 -40v-856q0 -256 -175 -400t-438 -143t-434 132q-170 131 -174 352q-1 17 13 31t32 14h262q40 0 52 -12t30 -64t71 -89q52 -36 151 -36z" />
    <glyph glyph-name="afii10058" unicode="&#x409;" horiz-adv-x="2174" 
d="M1747 446q0 119 -139 119h-262v-237h262q80 0 109.5 34.5t29.5 83.5zM1290 1434q23 0 39.5 -16.5t16.5 -39.5v-485h333q211 0 329 -129.5t118 -317t-118 -317t-329 -129.5h-657q-23 0 -39 16.5t-16 38.5v1051h-328v-614q0 -247 -138.5 -379.5t-379.5 -132.5h-33
q-23 0 -39 16t-16 39v217q0 23 16.5 39t38.5 16q92 0 132 43t40 142v886q0 23 16.5 39.5t38.5 16.5h975z" />
    <glyph glyph-name="afii10059" unicode="&#x40a;" horiz-adv-x="2140" 
d="M1712 446q0 119 -139 119h-262v-237h262q80 0 109.5 34.5t29.5 83.5zM932 1378q0 23 16.5 39.5t38.5 16.5h268q23 0 39.5 -16.5t16.5 -39.5v-485h334q210 0 328 -128.5t118 -318t-118 -318t-328 -128.5h-658q-23 0 -39 16.5t-16 38.5v502h-410v-502q0 -23 -16.5 -39
t-38.5 -16h-268q-23 0 -39.5 15.5t-16.5 39.5v1323q0 23 16.5 39.5t39.5 16.5h268q23 0 39 -16.5t16 -39.5v-493h410v493z" />
    <glyph glyph-name="afii10060" unicode="&#x40b;" horiz-adv-x="1632" 
d="M1180 428q0 123 -51.5 175t-174.5 52h-227v-600q0 -23 -16.5 -39t-38.5 -16h-269q-23 0 -39 16.5t-16 38.5v1051h-254q-23 0 -39 16.5t-16 38.5v217q0 23 16.5 39.5t38.5 16.5h926q23 0 39 -16.5t16 -39.5v-217q0 -23 -16.5 -39t-38.5 -16h-293v-123h287
q262 0 403.5 -141.5t141.5 -403.5v-383q0 -23 -16.5 -39t-39.5 -16h-268q-23 0 -39 16.5t-16 38.5v373z" />
    <glyph glyph-name="afii10061" unicode="&#x40c;" horiz-adv-x="1378" 
d="M858 1864h293q39 0 39 -41q0 -14 -10 -25l-277 -227q-40 -35 -86 -35h-201q-33 0 -32 33q0 16 10 26l188 230q23 27 38 33t38 6zM1364 44q0 -16 -13 -30t-32 -14h-326q-45 0 -84 47l-387 488v-480q0 -23 -16 -39t-39 -16h-268q-23 0 -39 16t-17 39v1323q1 23 17 39t39 17
h268q23 0 39 -16t16 -40v-432l361 443q10 12 26 28t56 17h319q18 0 32 -14t13 -29q0 -16 -6 -25l-506 -618l541 -680q6 -8 6 -24z" />
    <glyph glyph-name="uni040D" unicode="&#x40d;" horiz-adv-x="1486" 
d="M1075 0q-35 0 -57 18t-27 29l-469 701v-693q0 -23 -16 -39t-39 -16h-268q-23 0 -39 16t-17 39v1323q1 23 17 39t39 17h213q34 0 56 -18t28 -30l469 -700v692q0 23 16 39t39 17h268q23 0 39 -16t16 -40v-1323q0 -23 -16 -39t-39 -16h-213zM895 1569q0 -33 -33 -33h-200
q-47 0 -87 35l-276 227q-10 10 -10 25q0 41 39 41h293q23 0 37 -6t38 -33l189 -230q10 -10 10 -26z" />
    <glyph glyph-name="afii10062" unicode="&#x40e;" horiz-adv-x="1370" 
d="M168 0q-23 0 -39 16t-16 39v217q0 23 16 39t39 17h149q47 0 93 41q45 41 98 139l-465 854q-8 14 -8 30t13 28q13 13 32 14h282q42 0 62 -20t25 -32l256 -503l260 503q4 10 24 30t62 22h280q17 0 31 -14t14 -28q0 -15 -8 -30l-512 -946q-109 -204 -219 -299
q-134 -117 -320 -117h-149zM1069 1915q39 0 39 -44q0 -112 -81 -203t-255 -91t-262 99q-72 81 -74 200q0 39 39 39h172q39 0 39 -39t22 -71q22 -31 64 -31t65 32q22 32 21 70q0 39 39 39h172z" />
    <glyph glyph-name="afii10145" unicode="&#x40f;" horiz-adv-x="1460" 
d="M920 0v-170q0 -23 -16.5 -39t-39.5 -16h-268q-23 0 -39 16t-16 39v170h-342q-23 0 -39.5 16.5t-16.5 38.5v1323q0 23 16.5 39.5t39.5 16.5h268q23 0 39 -16.5t16 -39.5v-1050h416v1050q0 23 16.5 39.5t38.5 16.5h269q23 0 39 -16.5t16 -39.5v-1323q0 -23 -16.5 -39
t-38.5 -16h-342z" />
    <glyph glyph-name="afii10017" unicode="&#x410;" 
d="M569 539h332l-166 491zM901 1434q41 0 63 -23t29 -45l447 -1290q8 -20 8 -34t-13 -28t-32 -14h-258q-41 0 -59 17t-21 34l-57 170h-545l-57 -170q-4 -15 -22 -33t-58 -18h-258q-18 0 -32 13q-13 13 -13 27t8 36l446 1290q8 24 30 46t62 22h332z" />
    <glyph glyph-name="afii10018" unicode="&#x411;" horiz-adv-x="1361" 
d="M924 446q0 119 -140 119h-262v-237h262q80 0 110 34.5t30 83.5zM856 893q210 0 328.5 -129t118.5 -317.5t-118.5 -317.5t-328.5 -129h-657q-23 0 -39.5 16.5t-16.5 38.5v1323q0 23 16.5 39.5t39.5 16.5h936q23 0 39 -16.5t16 -39.5v-217q0 -23 -16.5 -39t-38.5 -16h-613
v-213h334z" />
    <glyph glyph-name="afii10019" unicode="&#x412;" horiz-adv-x="1458" 
d="M522 317h338q61 0 98 36t37 89t-37 89t-98 36h-338v-250zM965 999q0 53 -32 85t-93 32h-318v-233h318q61 -1 93 31t32 85zM199 0q-23 0 -39 16t-17 39v1323q1 23 17 39t39 17h659q256 0 382 -137q106 -114 106 -289q0 -103 -46 -180q-27 -47 -69 -80q79 -55 111 -128
q32 -72 32 -166q0 -310 -252 -416q-90 -38 -221 -38h-702z" />
    <glyph glyph-name="afii10020" unicode="&#x413;" horiz-adv-x="1243" 
d="M1155 1434q23 0 39 -16.5t16 -39.5v-217q0 -23 -16 -39t-39 -16h-633v-1051q0 -23 -16.5 -39t-38.5 -16h-268q-23 0 -39.5 16.5t-16.5 38.5v1323q0 23 16.5 39.5t39.5 16.5h956z" />
    <glyph glyph-name="afii10021" unicode="&#x414;" horiz-adv-x="1607" 
d="M631 518q0 -147 -37 -190h430v778h-393v-588zM104 -225q-23 0 -39 16t-16 39v442q0 23 16.5 39.5t38.5 16.5h13q76 0 105.5 52t29.5 161v837q0 23 16.5 39.5t38.5 16.5h1041q23 0 39 -16.5t16 -39.5v-1050h65q23 0 39.5 -16.5t16.5 -39.5v-442q0 -23 -16.5 -39t-39.5 -16
h-268q-23 0 -39 16t-16 39v170h-717v-170q0 -23 -16.5 -39t-38.5 -16h-269z" />
    <glyph glyph-name="afii10022" unicode="&#x415;" horiz-adv-x="1316" 
d="M1169 328q23 0 39 -16t17 -40v-217q-1 -23 -17 -39t-39 -16h-970q-23 0 -39 16t-17 39v1323q1 23 17 39t39 17h954q23 0 39 -16t16 -40v-217q0 -23 -16 -39t-39 -16h-631v-221h586q23 -1 39 -17t16 -39v-217q0 -23 -16 -39t-39 -16h-586v-229h647z" />
    <glyph glyph-name="afii10024" unicode="&#x416;" horiz-adv-x="1785" 
d="M1698 1434q18 0 31.5 -13.5t13.5 -27.5t-6 -27l-453 -637l473 -661q6 -12 6 -26t-13 -28t-32 -14h-311q-41 0 -56.5 14.5t-27.5 32.5l-240 336v-328q0 -23 -16 -39t-39 -16h-268q-23 0 -39 16.5t-16 38.5v330l-242 -338q-12 -18 -27.5 -32.5t-56.5 -14.5h-311
q-18 0 -31.5 13.5t-13.5 27.5t6 27l473 661l-453 637q-6 12 -6 26t13.5 28t31.5 14h309q41 0 59.5 -20.5t26.5 -31.5l222 -311v307q0 23 16 39.5t39 16.5h268q23 0 39 -16.5t16 -39.5v-303l220 307q8 10 26.5 31t59.5 21h309z" />
    <glyph glyph-name="afii10025" unicode="&#x417;" horiz-adv-x="1370" 
d="M1118 735q172 -117 172 -307t-162 -319t-443 -129t-452.5 124t-175.5 281q0 18 13.5 31.5t31.5 13.5h273q33 0 49 -19.5t61.5 -61.5t181.5 -42t190 35t54 88t-54 89t-183 36h-154q-23 0 -39 16.5t-16 38.5v217q0 23 16.5 39.5t38.5 16.5h133q121 0 169 34.5t48 86t-48 87
t-167 35.5t-150.5 -37t-40.5 -49q-29 -39 -67 -39h-274q-18 0 -32.5 13.5t-12.5 32.5q9 155 163.5 281t424.5 126t427.5 -128.5t157.5 -307.5t-133 -283z" />
    <glyph glyph-name="afii10026" unicode="&#x418;" horiz-adv-x="1486" 
d="M412 0h-213q-23 0 -39 16t-17 39v1323q1 23 17 39t39 17h268q23 0 39 -16t16 -40v-692l469 700q6 10 28 28t56 20h213q23 0 39 -16t16 -40v-1323q0 -23 -16 -39t-39 -16h-268q-23 0 -39 16t-16 39v693l-469 -701q-6 -11 -28 -29t-56 -18z" />
    <glyph glyph-name="afii10027" unicode="&#x419;" horiz-adv-x="1486" 
d="M608 1864q39 0 39 -50q0 -28 25 -60q26 -32 72 -32t71 32t25 70t39 40h172q37 0 38 -44t-17 -98q-40 -115 -169 -169q-66 -27 -160 -27q-172 0 -267 99q-77 80 -79 200q0 37 39 39h172zM412 0h-213q-23 0 -39 16t-17 39v1323q1 23 17 39t39 17h268q23 0 39 -16t16 -40
v-692l469 700q6 10 28 28t56 20h213q23 0 39 -16t16 -40v-1323q0 -23 -16 -39t-39 -16h-268q-23 0 -39 16t-16 39v693l-469 -701q-6 -11 -28 -29t-56 -18z" />
    <glyph glyph-name="afii10028" unicode="&#x41a;" horiz-adv-x="1378" 
d="M1364 44q0 -16 -13 -30t-32 -14h-326q-45 0 -84 47l-387 488v-480q0 -23 -16 -39t-39 -16h-268q-23 0 -39 16t-17 39v1323q1 23 17 39t39 17h268q23 0 39 -16t16 -40v-432l361 443q10 12 26 28t56 17h319q18 0 32 -14t13 -29q0 -16 -6 -25l-506 -618l541 -680q6 -8 6 -24
z" />
    <glyph glyph-name="afii10029" unicode="&#x41b;" horiz-adv-x="1544" 
d="M639 1106v-614q0 -247 -138.5 -379.5t-379.5 -132.5h-33q-23 0 -39 16t-16 39v217q0 23 16.5 39t38.5 16q92 0 132 43t40 142v886q0 23 16.5 39.5t38.5 16.5h1031q23 0 39 -16.5t16 -39.5v-1323q0 -23 -16.5 -39t-38.5 -16h-269q-23 0 -39 16.5t-16 38.5v1051h-383z" />
    <glyph glyph-name="afii10030" unicode="&#x41c;" horiz-adv-x="1712" 
d="M791 344q-46 0 -76 51l-193 338v-678q0 -23 -16 -39t-39 -16h-268q-23 0 -39 16t-17 39v1323q1 23 17 39t39 17h237q54 0 88 -56l332 -567l332 567q34 56 88 56h237q23 0 39 -16t17 -40v-1323q-1 -23 -17 -39t-39 -16h-268q-23 0 -39 16t-16 39v678l-193 -338
q-32 -51 -75 -51h-131z" />
    <glyph glyph-name="afii10031" unicode="&#x41d;" horiz-adv-x="1499" 
d="M1300 1434q23 0 39 -16t17 -40v-1323q0 -23 -16 -39t-40 -16h-268q-23 0 -39 16t-16 39v502h-455v-502q0 -23 -16 -39t-39 -16h-268q-23 0 -39 15t-17 40v1323q1 23 17 39t39 17h268q23 0 39 -16t16 -40v-493h455v493q0 23 16 39t39 17h268z" />
    <glyph glyph-name="afii10032" unicode="&#x41e;" 
d="M735 1126q-258 0 -264 -282q-2 -78 -2 -161t6 -138q9 -102 71 -170t189 -68t189 68q61 68 71 170q6 111 6 175t-5 142q-17 264 -261 264zM1192 1297q169 -157 182 -398q4 -88 4 -184q0 -95 -5 -195t-49 -202q-92 -213 -323 -295q-117 -43 -267 -43q-289 0 -457 157
t-181 398q-4 84 -4 180q0 95 5 197t49 203t125 176q176 163 464 163t457 -157z" />
    <glyph glyph-name="afii10033" unicode="&#x41f;" horiz-adv-x="1540" 
d="M1341 1434q23 0 39.5 -16.5t16.5 -39.5v-1323q0 -23 -16.5 -39t-39.5 -16h-268q-23 0 -39 16.5t-16 38.5v1051h-496v-1051q0 -23 -16.5 -39t-38.5 -16h-268q-23 0 -39.5 16.5t-16.5 38.5v1323q0 23 16.5 39.5t39.5 16.5h1142z" />
    <glyph glyph-name="afii10034" unicode="&#x420;" horiz-adv-x="1404" 
d="M774 793q197 0 199 161q-1 86 -57 124t-142 38h-252v-323h252zM784 1434q409 0 528 -271q40 -90 40 -210q0 -236 -153 -358t-415 -122h-262v-418q0 -23 -16 -39t-39 -16h-268q-23 0 -39 16t-17 39v1323q1 23 17 39t39 17h585z" />
    <glyph glyph-name="afii10035" unicode="&#x421;" horiz-adv-x="1437" 
d="M1057 528h268q17 0 31 -13t14 -32q-4 -212 -189 -359q-185 -146 -459 -145t-445 158t-183 398q-4 84 -4 180q0 97 4 197t49 201t126 177q175 164 451 164t461 -145t189 -359q0 -18 -13 -31t-32 -14h-268q-35 -1 -47 13t-29 65t-53 81q-76 62 -202 62q-125 0 -184 -65
q-60 -65 -69 -172q-4 -54 -4 -172q0 -119 4 -169q5 -50 19 -93q49 -145 239 -148q120 0 189 57q44 37 61 87q17 51 29 64t47 13z" />
    <glyph glyph-name="afii10036" unicode="&#x422;" horiz-adv-x="1292" 
d="M1196 1434q23 0 39 -16t16 -40v-217q0 -23 -16 -39t-39 -16h-360v-1051q0 -23 -16 -39t-40 -16h-268q-23 0 -39 16t-16 39v1051h-361q-23 0 -39 16t-16 39v217q0 23 16 39t39 17h1100z" />
    <glyph glyph-name="afii10037" unicode="&#x423;" horiz-adv-x="1370" 
d="M317 0h-149q-23 0 -39 16.5t-16 38.5v217q0 23 16 39.5t39 16.5h149q47 0 92.5 41t98.5 139l-465 854q-8 14 -8 30t13 29t32 13h282q41 0 61.5 -20.5t25.5 -31.5l256 -503l260 503q4 10 24.5 31t61.5 21h280q18 0 31.5 -13.5t13.5 -28.5t-8 -30l-512 -946
q-107 -201 -230 -308.5t-309 -107.5z" />
    <glyph glyph-name="afii10038" unicode="&#x424;" horiz-adv-x="1632" 
d="M1204 666.5q0 132.5 -44.5 192t-153.5 81.5v-446q198 40 198 172.5zM428 766.5q0 -133.5 46 -192.5t153 -80v446q-199 -40 -199 -173.5zM1420.5 338q-162.5 -137 -414.5 -172v-152q0 -23 -16.5 -39t-39.5 -16h-268q-23 0 -39 16.5t-16 38.5v152q-253 35 -415.5 172
t-162.5 378.5t161.5 378t416.5 173.5v151q0 23 16 39.5t39 16.5h268q23 0 39.5 -16.5t16.5 -39.5v-151q251 -34 414 -172t163 -379.5t-162.5 -378.5z" />
    <glyph glyph-name="afii10039" unicode="&#x425;" horiz-adv-x="1456" 
d="M379 0h-311q-18 0 -32 13q-13 13 -13 27t6 28l473 661l-453 637q-6 12 -6 26t13 28q13 13 32 14h309q41 0 59 -20t27 -32l248 -346l240 346q8 10 26 30t60 22h313q18 0 32 -14t13 -27q0 -14 -6 -27l-455 -645l469 -653q16 -32 -2 -50t-37 -18h-311q-41 0 -56 14t-28 33
l-264 369l-262 -369q-11 -19 -27 -33t-57 -14z" />
    <glyph glyph-name="afii10040" unicode="&#x426;" horiz-adv-x="1558" 
d="M1315 328h125q23 0 39 -16.5t16 -39.5v-442q0 -23 -16.5 -39t-38.5 -16h-228q-23 0 -39 16t-16 39v170h-958q-23 0 -39.5 16.5t-16.5 38.5v1323q0 23 16.5 39.5t39.5 16.5h268q23 0 39 -16.5t16 -39.5v-1050h414v1050q0 23 16.5 39.5t38.5 16.5h269q23 0 39 -16.5
t16 -39.5v-1050z" />
    <glyph glyph-name="afii10041" unicode="&#x427;" horiz-adv-x="1423" 
d="M449 1038q0 -123 51 -175t174 -52h227v567q0 23 16.5 39.5t38.5 16.5h269q23 0 39 -16.5t16 -39.5v-1323q0 -23 -16.5 -39t-38.5 -16h-269q-23 0 -39 16.5t-16 38.5v428h-287q-262 0 -403 141.5t-141 403.5v350q0 23 16 39.5t39 16.5h268q23 0 39.5 -16.5t16.5 -39.5
v-340z" />
    <glyph glyph-name="afii10042" unicode="&#x428;" horiz-adv-x="1918" 
d="M199 0q-23 0 -39.5 16.5t-16.5 38.5v1323q0 23 16.5 39.5t39.5 16.5h268q23 0 39 -16.5t16 -39.5v-1050h248v1050q0 23 16.5 39.5t38.5 16.5h269q23 0 39 -16.5t16 -39.5v-1050h248v1050q0 23 16.5 39.5t38.5 16.5h268q23 0 39.5 -16.5t16.5 -39.5v-1323q0 -23 -16.5 -39
t-39.5 -16h-1521z" />
    <glyph glyph-name="afii10043" unicode="&#x429;" horiz-adv-x="2019" 
d="M199 0q-23 0 -39.5 16.5t-16.5 38.5v1323q0 23 16.5 39.5t39.5 16.5h268q23 0 39 -16.5t16 -39.5v-1050h248v1050q0 23 16.5 39.5t38.5 16.5h269q23 0 39 -16.5t16 -39.5v-1050h248v1050q0 23 16.5 39.5t38.5 16.5h268q23 0 39.5 -16.5t16.5 -39.5v-1050h127
q23 0 39 -16.5t16 -39.5v-442q0 -23 -16.5 -39t-38.5 -16h-228q-23 0 -39 16t-16 39v170h-1421z" />
    <glyph glyph-name="afii10044" unicode="&#x42a;" horiz-adv-x="1531" 
d="M1104 447q0 50 -30 84t-109 34h-263v-237h263q80 0 109.5 34.5t29.5 84.5zM41 1378q0 23 16.5 39.5t38.5 16.5h551q23 0 39 -16.5t16 -39.5v-485h334q211 0 329 -129.5t118 -317t-118 -317t-329 -129.5h-657q-23 0 -39 16.5t-16 38.5v1051h-228q-23 0 -39 16.5t-16 38.5
v217z" />
    <glyph glyph-name="afii10045" unicode="&#x42b;" horiz-adv-x="1906" 
d="M1708 1434q23 0 39 -16.5t16 -39.5v-1323q0 -23 -16 -39t-39 -16h-268q-23 0 -39.5 16.5t-16.5 38.5v1323q0 23 16.5 39.5t39.5 16.5h268zM924 446q0 119 -140 119h-262v-237h262q80 0 110 34.5t30 83.5zM143 1378q0 23 16.5 39.5t39.5 16.5h268q23 0 39 -16.5t16 -39.5
v-485h334q210 0 328.5 -129t118.5 -317.5t-118.5 -317.5t-328.5 -129h-657q-23 0 -39.5 16.5t-16.5 38.5v1323z" />
    <glyph glyph-name="afii10046" unicode="&#x42c;" horiz-adv-x="1351" 
d="M924 446q0 119 -140 119h-262v-237h262q80 0 110 34.5t30 83.5zM143 1378q0 23 16.5 39.5t39.5 16.5h268q23 0 39 -16.5t16 -39.5v-485h334q210 0 328.5 -129t118.5 -317.5t-118.5 -317.5t-328.5 -129h-657q-23 0 -39.5 16.5t-16.5 38.5v1323z" />
    <glyph glyph-name="afii10047" unicode="&#x42d;" horiz-adv-x="1423" 
d="M677 307q206 0 237.5 99.5t35.5 146.5h-387q-23 0 -39 16.5t-16 38.5v217q0 23 16.5 39.5t38.5 16.5h387q-14 169 -101 207t-172 38q-135 0 -212 -98q-16 -18 -33.5 -36.5t-48.5 -18.5h-272q-18 0 -33 13t-12 32q4 70 49 146.5t176.5 183t406.5 106.5t444.5 -163
t186.5 -402q26 -380 -60 -575.5t-257.5 -264.5t-317.5 -69t-260.5 41.5t-194 106.5t-124.5 141.5t-49 146.5q-2 18 12 31.5t33 13.5h272q31 0 48.5 -18.5t33.5 -36.5q78 -99 212 -99z" />
    <glyph glyph-name="afii10048" unicode="&#x42e;" horiz-adv-x="2146" 
d="M1223.5 1060.5q-64.5 -65.5 -72.5 -171.5q-6 -52 -6 -170.5t6 -173.5q8 -102 70.5 -170t189.5 -68t188.5 68t71.5 170q6 111 6 175t-5 142t-22.5 121t-66.5 93t-172 50t-187.5 -65.5zM1867.5 1298q169.5 -156 182.5 -399q4 -88 4 -184.5t-5 -195.5t-49 -200.5t-171 -220
t-418 -118.5q-290 0 -458 159t-181 418h-250v-502q0 -23 -16.5 -39t-38.5 -16h-268q-23 0 -39.5 16.5t-16.5 38.5v1323q0 23 16.5 39.5t39.5 16.5h268q23 0 39 -16.5t16 -39.5v-493h250q12 249 180.5 409t456.5 160q289 0 458.5 -156z" />
    <glyph glyph-name="afii10049" unicode="&#x42f;" horiz-adv-x="1423" 
d="M901 813v303h-231q-86 0 -142 -33t-57 -119q0 -86 56 -118q56 -33 143 -33h231zM670 1434h555q23 0 39 -16t16 -40v-1323q0 -23 -16 -39t-39 -16h-269q-22 0 -38 16t-17 39v439h-188l-228 -439q-10 -19 -27 -37t-59 -18h-278q-18 0 -32 13q-13 13 -13 27t6 28l254 487
q-242 110 -244 410q0 348 336 440q107 29 242 29z" />
    <glyph glyph-name="afii10065" unicode="&#x430;" horiz-adv-x="1206" 
d="M515 256q92 0 153 57t61 140l-188 -29q-123 -22 -123 -98q0 -39 25 -55q26 -15 72 -15zM166 748q-49 0 -44 58q3 34 40 85q38 51 102 94q153 102 346 100q240 0 364 -111t124 -298v-621q0 -23 -16 -39t-40 -16h-258q-23 0 -39 16t-16 39v58q-108 -135 -313 -133
q-174 0 -270 90q-97 90 -97 229q-1 139 103 227t337 129l240 41q0 49 -27 81t-94 32q-67 -1 -101 -31t-81 -30h-260z" />
    <glyph glyph-name="afii10066" unicode="&#x431;" horiz-adv-x="1208" 
d="M442 471q0 -72 33 -123t123 -51t123 51t33 123t-33 123t-123 51t-123 -51t-33 -123zM74 499q0 345 138 506.5t187.5 218t82 107.5t32.5 91t16.5 56.5t38.5 16.5h258q23 0 39.5 -16.5t16.5 -38.5q0 -112 -70 -205.5t-121 -150t-98 -121.5q231 0 390 -128.5t159 -363.5
t-156 -363t-384.5 -128t-378.5 129t-150 390z" />
    <glyph glyph-name="afii10067" unicode="&#x432;" horiz-adv-x="1282" 
d="M1206 318q0 -154 -114 -236t-306 -82h-626q-16 0 -28.5 12.5t-12.5 28.5v983q0 16 12 28.5t29 12.5h596q184 0 307 -82.5t123 -217.5q0 -134 -88 -214q59 -41 83.5 -96.5t24.5 -136.5zM512 266h199q47 0 68.5 23.5t21.5 52.5t-21.5 52.5t-68.5 23.5h-199v-152zM780 725
q0 25 -19.5 49.5t-66.5 24.5h-182v-148h182q47 0 66.5 24.5t19.5 49.5z" />
    <glyph glyph-name="afii10068" unicode="&#x433;" horiz-adv-x="1036" 
d="M950 1065q23 0 39.5 -16.5t16.5 -38.5v-207q0 -23 -16.5 -39t-39.5 -16h-463v-693q0 -23 -16 -39t-39 -16h-258q-23 0 -39 16.5t-16 38.5v955q0 23 16.5 39t38.5 16h776z" />
    <glyph glyph-name="afii10069" unicode="&#x434;" horiz-adv-x="1316" 
d="M750 317v431h-144v-330q0 -51 -16 -101h160zM924 -211q-23 0 -39.5 16.5t-16.5 38.5v156h-446v-156q0 -23 -16.5 -39t-38.5 -16h-258q-23 0 -39.5 16.5t-16.5 38.5v418q0 23 16.5 39t39.5 16h61q41 0 54.5 33t13.5 86v574q0 23 16 39t39 16h770q23 0 39 -16.5t16 -38.5
v-693h64q23 0 39 -16t16 -39v-418q0 -23 -16.5 -39t-38.5 -16h-258z" />
    <glyph glyph-name="afii10070" unicode="&#x435;" horiz-adv-x="1243" 
d="M623 809q-86 0 -131 -51t-54 -115h369q-8 63 -53 115t-131 51zM438 416q0 -160 200 -160q93 0 142 47q23 17 33 23t35 6h266q45 0 45 -45q0 -25 -31 -75q-75 -121 -262 -194q-102 -38 -239 -38q-271 1 -415 147t-143 400q1 253 147 405t415 153q268 0 419 -180
q126 -150 126 -377v-57q0 -23 -16 -39t-40 -16h-682z" />
    <glyph glyph-name="afii10072" unicode="&#x436;" horiz-adv-x="1626" 
d="M1534 1065q20 0 34.5 -14.5t14.5 -31.5t-8 -30l-352 -448l362 -465q8 -12 8 -30t-14 -32t-35 -14h-313q-27 0 -42 14.5t-24 24.5l-168 215v-199q0 -23 -16 -39t-39 -16h-258q-23 0 -39 16.5t-16 38.5v199l-168 -215q-31 -39 -66 -39h-313q-20 0 -34.5 14.5t-14.5 31.5
t8 30l362 465l-352 448q-8 11 -8 29t14.5 32.5t34.5 14.5h318q34 0 65 -39l154 -199v183q0 23 16.5 39t38.5 16h258q23 0 39 -16.5t16 -38.5v-183l154 199q31 39 66 39h317z" />
    <glyph glyph-name="afii10073" unicode="&#x437;" horiz-adv-x="1175" 
d="M715 741q0 47 -140 47q-82 0 -110.5 -23.5t-45 -33.5t-46.5 -10h-248q-23 0 -40 16t-15 52t37.5 90.5t101 100.5t158 75.5t263.5 29.5t312 -106t141 -254q0 -59 -18 -100t-57 -84q96 -92 96 -201q0 -148 -147.5 -254t-372.5 -106t-340 74.5t-154 128t-41 89.5t15.5 52
t39.5 16h248q31 0 81.5 -32t130.5 -32q81 0 126 12.5t45 51.5q0 66 -160 66h-63q-23 0 -39 16t-16 39v145q0 23 16 39.5t39 16.5h63q61 0 100.5 16t39.5 63z" />
    <glyph glyph-name="afii10074" unicode="&#x438;" horiz-adv-x="1331" 
d="M899 0q-23 0 -39 16.5t-16 38.5v451l-387 -483q-18 -23 -47 -23h-238q-23 0 -38 16.5t-15 38.5v955q0 23 16.5 39t38.5 16h258q23 0 39 -16.5t16 -38.5v-453l387 485q18 23 46 23h237q23 0 39 -16.5t16 -38.5v-955q0 -23 -16 -39t-39 -16h-258z" />
    <glyph glyph-name="afii10075" unicode="&#x439;" horiz-adv-x="1331" 
d="M899 0q-23 0 -39 16t-16 39v451l-387 -483q-18 -23 -47 -23h-238q-23 0 -38 16t-15 39v955q0 23 16 39t39 16h258q23 0 39 -16t16 -39v-453l387 485q18 23 46 23h237q23 0 39 -16t16 -39v-955q0 -23 -16 -39t-39 -16h-258zM963 1546q38 0 38 -44t-17 -97
q-37 -116 -160 -169q-64 -28 -158 -28q-174 0 -255 91t-81 208q0 39 39 39h172q37 0 38 -39t23 -71t64 -31q42 0 64 32q22 33 22 71t39 38h172z" />
    <glyph glyph-name="afii10076" unicode="&#x43a;" horiz-adv-x="1243" 
d="M852 1065h293q20 0 34.5 -14.5t14.5 -29.5t-3 -22.5t-20 -23.5l-372 -432l415 -455q21 -24 21 -42q0 -17 -14.5 -31.5t-34.5 -14.5h-307q-55 0 -84 35l-308 336v-316q0 -23 -16 -39t-39 -16h-258q-23 0 -39 16.5t-16 38.5v955q0 23 16.5 39t38.5 16h258q23 0 39 -16.5
t16 -38.5v-295l285 315q35 35 80 35z" />
    <glyph glyph-name="afii10077" unicode="&#x43b;" horiz-adv-x="1294" 
d="M612 748v-334q0 -219 -129 -326.5t-358 -107.5h-33q-23 0 -39 16t-16 39v207q0 23 16.5 39t38.5 16q88 0 120 23.5t32 103.5v586q0 23 16 39t39 16h821q23 0 39.5 -16.5t16.5 -38.5v-955q0 -23 -16.5 -39t-39.5 -16h-258q-23 0 -39 16.5t-16 38.5v693h-195z" />
    <glyph glyph-name="afii10078" unicode="&#x43c;" 
d="M1061 1065h235q23 0 39.5 -16.5t16.5 -38.5v-955q0 -23 -16.5 -39t-39.5 -16h-258q-23 0 -39 16.5t-16 38.5v389l-141 -225q-28 -45 -66 -45h-82q-37 0 -65 45l-142 225v-389q0 -23 -16 -39t-39 -16h-258q-23 0 -39 16.5t-16 38.5v955q0 23 16.5 39t38.5 16h236
q41 0 56 -15.5t21 -25.5l248 -395l248 395q25 41 78 41z" />
    <glyph glyph-name="afii10079" unicode="&#x43d;" horiz-adv-x="1331" 
d="M1157 1065q23 0 39 -16.5t16 -38.5v-955q0 -23 -16 -39t-39 -16h-258q-23 0 -39 16.5t-16 38.5v314h-357v-314q0 -23 -16 -39t-39 -16h-258q-23 0 -39 15.5t-16 39.5v955q0 23 16.5 39t38.5 16h258q23 0 39 -16.5t16 -38.5v-324h357v324q0 23 16.5 39t38.5 16h258z" />
    <glyph glyph-name="afii10080" unicode="&#x43e;" horiz-adv-x="1261" 
d="M631 297q82 0 132 44t56 122q4 31 4 69t-4 70q-6 78 -56 122t-132 44t-132 -44t-57 -122q-4 -32 -4 -70t4 -69q6 -78 56 -122t133 -44zM1190 531q0 -48 -2 -78q-8 -202 -161 -338q-152 -137 -398 -136t-396 137q-151 136 -159 337q-2 31 -2 79t2 78q4 200 160 338
t398 138q242 -1 395 -137t161 -339q2 -31 2 -79z" />
    <glyph glyph-name="afii10081" unicode="&#x43f;" horiz-adv-x="1331" 
d="M1157 1065q23 0 39 -16.5t16 -38.5v-955q0 -23 -16 -39t-39 -16h-258q-23 0 -39 16.5t-16 38.5v693h-357v-693q0 -23 -16 -39t-39 -16h-258q-23 0 -39 16.5t-16 38.5v955q0 23 16.5 39t38.5 16h983z" />
    <glyph glyph-name="afii10082" unicode="&#x440;" horiz-adv-x="1298" 
d="M670 768q-121 0 -166 -104q-21 -51 -21 -133q1 -83 17 -121q49 -113 170 -113q96 0 137 53q63 82 47 240q-6 72 -47 125t-137 53zM487 -334q0 -23 -16 -39t-39 -16h-258q-23 0 -39 16t-16 39v1344q0 23 16 39t39 16h248q23 0 39 -16t16 -39v-47q57 63 91 82q75 40 180 40
q317 0 431 -260q44 -101 44 -291t-41 -285q-116 -269 -420 -269q-180 0 -275 122v-436z" />
    <glyph glyph-name="afii10083" unicode="&#x441;" horiz-adv-x="1232" 
d="M440 532q0 -41 4 -71q6 -74 56 -119t124 -45t110 19t52 45t30 38q13 12 36 13h268q23 0 40 -16q18 -16 16 -45q-2 -28 -27 -91q-25 -64 -86 -126q-151 -155 -432 -154q-233 0 -390 128t-165 343q-2 31 -2 81t2 82q8 215 167 344t388 127q278 0 432 -154q61 -61 86 -125
t27 -92t-16 -44t-40 -17h-268q-33 0 -58 38q-24 37 -60 57t-110 20t-124 -45t-56 -119q-4 -31 -4 -72z" />
    <glyph glyph-name="afii10084" unicode="&#x442;" horiz-adv-x="1150" 
d="M1065 1065q23 0 39 -16.5t16 -38.5v-207q0 -23 -16.5 -39t-38.5 -16h-305v-693q0 -23 -16.5 -39t-38.5 -16h-259q-23 0 -39 16.5t-16 38.5v693h-305q-23 0 -39 16t-16 39v207q0 23 16 39t39 16h979z" />
    <glyph glyph-name="afii10085" unicode="&#x443;" horiz-adv-x="1282" 
d="M39 1020q0 16 14.5 30.5t34.5 14.5h270q36 0 60 -49l225 -531l225 531q18 49 60 49h270q20 0 34.5 -14.5t14.5 -29.5t-2 -22l-405 -948q-105 -232 -212 -336t-288 -104h-133q-23 0 -39 16.5t-16 38.5v207q0 23 16 39t39 16h88q66 0 99.5 26t60.5 87l-414 958q-2 5 -2 21z
" />
    <glyph glyph-name="afii10086" unicode="&#x444;" horiz-adv-x="1865" 
d="M1112 552.5q0 -60.5 12.5 -158t145.5 -97.5q74 0 120.5 69.5t30.5 223.5q-6 72 -42 125t-123 53t-115.5 -77.5t-28.5 -138zM754 501q0 204 -57.5 235.5t-94.5 31.5q-80 0 -127 -70t-31 -223q6 -72 42 -125t110 -53q158 0 158 204zM76 602.5q0 120.5 80 301.5t350 181
q90 0 152.5 -39.5t91.5 -82.5v436q0 23 16 39t39 16h256q23 0 39 -16.5t16 -38.5v-436q29 43 91.5 82.5t145.5 39.5q175 0 301.5 -122t133.5 -347q2 -31 2 -151.5t-42 -215.5t-130.5 -182t-254.5 -87t-247 122v-436q0 -23 -16.5 -39t-38.5 -16h-256q-23 0 -39 16.5t-16 38.5
v436q-81 -122 -247 -122t-292 123.5t-133 347.5q-2 31 -2 151.5z" />
    <glyph glyph-name="afii10087" unicode="&#x445;" horiz-adv-x="1261" 
d="M1227 46q-1 -18 -15 -32t-34 -14h-314q-37 0 -65 39l-170 215l-168 -215q-31 -39 -66 -39h-313q-20 0 -35 14q-14 14 -14 32t8 30l362 465l-352 448q-8 11 -8 29t14 32t35 15h318q37 0 65 -39l158 -203l158 203q31 39 65 39h318q20 0 34 -14q29 -29 6 -62l-354 -457
l359 -456q8 -12 8 -30z" />
    <glyph glyph-name="afii10088" unicode="&#x446;" horiz-adv-x="1380" 
d="M782 317v693q0 23 16.5 39t39.5 16h258q23 0 39 -16.5t16 -38.5v-693h104q23 0 39.5 -16t16.5 -39v-432q0 -23 -16.5 -39t-39.5 -16h-206q-23 0 -39.5 16t-16.5 39v170h-819q-23 0 -39 16.5t-16 38.5v955q0 23 16.5 39t38.5 16h258q23 0 39 -16.5t16 -38.5v-693h295z" />
    <glyph glyph-name="afii10089" unicode="&#x447;" horiz-adv-x="1271" 
d="M428 776q0 -92 35 -127t127 -35h194v396q0 23 16.5 39t39.5 16h258q23 0 39 -16.5t16 -38.5v-955q0 -23 -16.5 -39t-38.5 -16h-258q-23 0 -39.5 16.5t-16.5 38.5v242h-256q-231 0 -350 119t-119 350v244q0 23 16.5 39t39.5 16h258q23 0 39 -16.5t16 -38.5v-234z" />
    <glyph glyph-name="afii10090" unicode="&#x448;" horiz-adv-x="1687" 
d="M432 1065q23 0 39 -16.5t16 -38.5v-693h172v693q0 23 16.5 39t39.5 16h258q23 0 39 -16.5t16 -38.5v-693h172v693q0 23 16.5 39t38.5 16h258q23 0 39.5 -16.5t16.5 -38.5v-955q0 -23 -16.5 -39t-39.5 -16h-1339q-23 0 -39 16.5t-16 38.5v955q0 23 16.5 39t38.5 16h258z
" />
    <glyph glyph-name="afii10091" unicode="&#x449;" horiz-adv-x="1794" 
d="M432 1065q23 0 39 -16.5t16 -38.5v-693h172v693q0 23 16.5 39t39.5 16h258q23 0 39 -16.5t16 -38.5v-693h172v693q0 23 16.5 39t38.5 16h258q23 0 39.5 -16.5t16.5 -38.5v-693h104q23 0 39.5 -16t16.5 -39v-432q0 -23 -16.5 -39t-39.5 -16h-207q-23 0 -39 16t-16 39v170
h-1237q-23 0 -39 16.5t-16 38.5v955q0 23 16.5 39t38.5 16h258z" />
    <glyph glyph-name="afii10092" unicode="&#x44a;" horiz-adv-x="1392" 
d="M840 317q139 0 139 112t-139 112h-168v-224h168zM1214 119q-134 -119 -337 -119h-519q-23 0 -39 16.5t-16 38.5v693h-213q-23 0 -39 16t-16 39v207q0 23 16.5 39t38.5 16h526q23 0 39.5 -16.5t16.5 -38.5v-152h205q203 0 337 -119t134 -310t-134 -310z" />
    <glyph glyph-name="afii10093" unicode="&#x44b;" horiz-adv-x="1732" 
d="M655 317q140 0 140 112t-140 112h-168v-224h168zM1029.5 118.5q-133.5 -118.5 -337.5 -118.5h-518q-23 0 -39 16.5t-16 38.5v955q0 23 16.5 39t38.5 16h258q23 0 39 -16.5t16 -38.5v-152h205q204 0 337.5 -118.5t133.5 -310.5t-133.5 -310.5zM1245 1010q0 23 16.5 39
t38.5 16h259q23 0 39 -16.5t16 -38.5v-955q0 -23 -16.5 -39t-38.5 -16h-259q-23 0 -39 16.5t-16 38.5v955z" />
    <glyph glyph-name="afii10094" unicode="&#x44c;" horiz-adv-x="1208" 
d="M655 317q140 0 140 112t-140 112h-168v-224h168zM1029.5 118.5q-133.5 -118.5 -337.5 -118.5h-518q-23 0 -39 16.5t-16 38.5v955q0 23 16.5 39t38.5 16h258q23 0 39 -16.5t16 -38.5v-152h205q204 0 337.5 -118.5t133.5 -310.5t-133.5 -310.5z" />
    <glyph glyph-name="afii10095" unicode="&#x44d;" horiz-adv-x="1234" 
d="M448 704q-16 -26 -29 -38.5t-36 -12.5h-268q-23 0 -40.5 16.5t-15.5 44.5t27 91t131 171.5t387 108.5q235 0 391 -128.5t164 -342.5q2 -31 2 -82t-2 -81q-8 -214 -164 -342.5t-391 -128.5q-281 0 -387 108.5t-131 172t-27 91.5t15.5 44t40.5 16h268q33 0 58 -38
q24 -38 60.5 -57.5t102.5 -19.5q133 0 174 109h-196q-23 0 -39.5 16t-16.5 39v145q0 23 16.5 39.5t39.5 16.5h194q-39 106 -162 106q-124 0 -166 -64z" />
    <glyph glyph-name="afii10096" unicode="&#x44e;" horiz-adv-x="1900" 
d="M1270 297q82 0 132 44t56 122q4 31 4 69.5t-4 69.5q-6 78 -56 122t-132 44t-132.5 -44t-56.5 -122q-4 -31 -4 -69.5t4 -69.5q6 -78 56.5 -122t132.5 -44zM1829 531q0 -48 -2 -78q-8 -201 -159.5 -337t-383.5 -136t-378.5 109.5t-182.5 279.5h-236v-314q0 -23 -16 -39
t-39 -16h-258q-23 0 -39 15.5t-16 39.5v955q0 23 16.5 39t38.5 16h258q23 0 39 -16.5t16 -38.5v-324h234q33 173 180 286t379 113t385.5 -135.5t161.5 -339.5q2 -31 2 -79z" />
    <glyph glyph-name="afii10097" unicode="&#x44f;" horiz-adv-x="1230" 
d="M743 748h-176q-51 0 -77.5 -18.5t-26.5 -66t26.5 -66.5t77.5 -19h176v170zM240 352q-146 111 -146 304q0 194 128 301.5t343 107.5h492q23 0 39 -16.5t16 -38.5v-955q0 -23 -16.5 -39t-38.5 -16h-258q-23 0 -39.5 16.5t-16.5 38.5v205h-139l-141 -221q-23 -39 -66 -39
h-295q-20 0 -34.5 14.5t-14.5 31.5t8 30z" />
    <glyph glyph-name="uni0450" unicode="&#x450;" horiz-adv-x="1243" 
d="M786 1251q0 -33 -32 -32h-181q-45 0 -86 34l-276 228q-10 10 -10 24q0 41 39 41h272q23 0 38 -6t38 -33l188 -229q10 -10 10 -27zM623 809q-86 0 -131 -51t-54 -115h369q-8 63 -53 115t-131 51zM438 416q0 -160 200 -160q93 0 142 47q23 17 33 23t35 6h266q45 0 45 -45
q0 -25 -31 -75q-75 -121 -262 -194q-102 -38 -239 -38q-271 1 -415 147t-143 400q1 253 147 405t415 153q268 0 419 -180q126 -150 126 -377v-57q0 -23 -16 -39t-40 -16h-682z" />
    <glyph glyph-name="afii10071" unicode="&#x451;" horiz-adv-x="1243" 
d="M1012 1274q0 -23 -16 -39t-40 -16h-206q-23 0 -39 16t-17 39v207q0 23 16 39t40 16h206q23 0 39 -16t17 -39v-207zM551 1274q0 -23 -16 -39t-39 -16h-207q-23 0 -39 16t-17 39v207q1 23 17 39t39 16h207q23 0 39 -16t16 -39v-207zM623 809q-86 0 -131 -51t-54 -115h369
q-8 63 -53 115t-131 51zM438 416q0 -160 200 -160q93 0 142 47q23 17 33 23t35 6h266q45 0 45 -45q0 -25 -31 -75q-75 -121 -262 -194q-102 -38 -239 -38q-271 1 -415 147t-143 400q1 253 147 405t415 153q268 0 419 -180q126 -150 126 -377v-57q0 -23 -16 -39t-40 -16h-682
z" />
    <glyph glyph-name="afii10099" unicode="&#x452;" horiz-adv-x="1318" 
d="M754 -143q88 0 88 98v618q0 88 -43 141.5t-177.5 53.5t-134.5 -195v-518q0 -23 -16 -39t-39 -16h-258q-23 0 -39 16.5t-16 38.5v1065h-109q-23 0 -39 16.5t-16 39.5v88q0 23 16.5 39t38.5 16h109v80q0 23 16.5 39t38.5 16h258q23 0 39 -16.5t16 -38.5v-80h109
q23 0 39 -16.5t16 -38.5v-88q0 -23 -16.5 -39.5t-38.5 -16.5h-109v-157q35 43 109 82.5t171 39.5q205 0 324 -117t119 -350v-673q0 -189 -120.5 -297.5t-315.5 -108.5h-102q-23 0 -39.5 16.5t-16.5 38.5v197q0 23 16.5 44.5t39.5 21.5h82z" />
    <glyph glyph-name="afii10100" unicode="&#x453;" horiz-adv-x="1036" 
d="M950 1065q23 0 39 -16t17 -39v-207q0 -23 -16 -39t-40 -16h-463v-693q0 -23 -16 -39t-39 -16h-258q-23 0 -39 16t-16 39v955q0 23 16 39t39 16h776zM684 1546h272q39 0 39 -41q0 -14 -10 -24l-276 -228q-39 -34 -86 -34h-181q-33 0 -32 32q0 16 10 27l188 229
q23 27 38 33t38 6z" />
    <glyph glyph-name="afii10101" unicode="&#x454;" horiz-adv-x="1232" 
d="M786 362q16 26 29.5 38t36.5 12h268q23 0 40.5 -16.5t15.5 -44.5t-27 -91t-132 -171.5t-386 -108.5q-235 0 -391 128.5t-164 342.5q-2 31 -2 82t2 81q8 214 164 342.5t391 128.5q279 0 386 -108.5t132 -171.5t27 -91t-15.5 -44.5t-40.5 -16.5h-268q-33 0 -58 38
q-24 38 -60 57.5t-102 19.5q-134 0 -173 -106h194q23 0 39.5 -16.5t16.5 -39.5v-145q0 -23 -16.5 -39t-39.5 -16h-196q43 -109 165 -109q122 1 164 65z" />
    <glyph glyph-name="afii10102" unicode="&#x455;" horiz-adv-x="1150" 
d="M1005 534q85 -95 85 -228t-144 -231q-144 -97 -374 -96q-231 1 -367 93q-135 92 -144 200q-3 23 15 39t41 17h254q23 0 33 -12q50 -60 165 -60q61 0 107 16q45 16 45 47q0 23 -15 35q-14 12 -52 20t-98 17q-60 8 -150 25q-156 28 -240 114t-84 225t133 235q133 97 342 96
q208 -1 356 -92q66 -40 104 -92t41 -89q4 -37 -14 -53t-40 -17h-244q-23 1 -36 11q-69 56 -172 55q-103 0 -101 -57q0 -23 10 -35q10 -11 41 -19t86 -16t145 -23q186 -31 272 -125z" />
    <glyph glyph-name="afii10103" unicode="&#x456;" horiz-adv-x="606" 
d="M487 1233q0 -23 -16 -39t-39 -16h-258q-23 0 -39 16t-16 39v207q0 23 16 39t39 16h258q23 0 39 -16t16 -39v-207zM487 55q0 -23 -16 -39t-39 -16h-258q-23 0 -39 16t-16 39v955q0 23 16 39t39 16h258q23 0 39 -16t16 -39v-955z" />
    <glyph glyph-name="afii10104" unicode="&#x457;" horiz-adv-x="606" 
d="M487 55q0 -23 -16 -39t-39 -16h-258q-23 0 -39 16t-16 39v955q0 23 16 39t39 16h258q23 0 39 -16t16 -39v-955zM692 1274q0 -23 -16 -39t-39 -16h-207q-23 0 -39 16t-16 39v207q0 23 16 39t39 16h207q23 0 39 -16t16 -39v-207zM231 1274q0 -23 -16 -39t-39 -16h-207
q-23 0 -39 16t-16 39v207q0 23 16 39t39 16h207q23 0 39 -16t16 -39v-207z" />
    <glyph glyph-name="afii10105" unicode="&#x458;" horiz-adv-x="628" 
d="M53 -72q88 0 88 99v983q1 23 17 39t39 16h258q23 0 39 -16t16 -39v-994q0 -189 -121 -297t-315 -108h-103q-23 0 -39 16t-16 39v197q0 23 16 45t39 20h82zM510 1233q0 -23 -16 -39t-39 -16h-258q-23 0 -39 16t-17 39v207q1 23 17 39t39 16h258q23 0 39 -16t16 -39v-207z
" />
    <glyph glyph-name="afii10106" unicode="&#x459;" horiz-adv-x="1947" 
d="M1395 317q139 0 139 112t-139 112h-168v-224h168zM1769 119q-134 -119 -337 -119h-519q-23 0 -39 16.5t-16 38.5v693h-246v-334q0 -219 -129 -326.5t-358 -107.5h-33q-23 0 -39 16t-16 39v207q0 23 16.5 39t38.5 16q88 0 120 23.5t32 103.5v586q0 23 16 39t39 16h872
q23 0 39.5 -16.5t16.5 -38.5v-152h205q203 0 337 -119t134 -310t-134 -310z" />
    <glyph glyph-name="afii10107" unicode="&#x45a;" horiz-adv-x="1904" 
d="M1352 317q139 0 139 112t-139 112h-168v-224h168zM1726 119q-134 -119 -337 -119h-519q-23 0 -39 16.5t-16 38.5v314h-328v-314q0 -23 -16 -39t-39 -16h-258q-23 0 -39 15.5t-16 39.5v955q0 23 16.5 39t38.5 16h258q23 0 39 -16.5t16 -38.5v-324h328v324q0 23 16.5 39
t38.5 16h258q23 0 39.5 -16.5t16.5 -38.5v-152h205q203 0 337 -119t134 -310t-134 -310z" />
    <glyph glyph-name="afii10108" unicode="&#x45b;" horiz-adv-x="1318" 
d="M621.5 768q-134.5 0 -134.5 -195v-518q0 -23 -16 -39t-39 -16h-258q-23 0 -39 16.5t-16 38.5v1065h-109q-23 0 -39 16.5t-16 39.5v88q0 23 16.5 39t38.5 16h109v80q0 23 16.5 39t38.5 16h258q23 0 39 -16.5t16 -38.5v-80h109q23 0 39 -16.5t16 -38.5v-88
q0 -23 -16.5 -39.5t-38.5 -16.5h-109v-157q35 43 109 82.5t171 39.5q205 0 324 -117t119 -350v-563q0 -23 -16 -39t-39 -16h-258q-23 0 -39 16.5t-16 38.5v518q0 88 -43 141.5t-177.5 53.5z" />
    <glyph glyph-name="afii10109" unicode="&#x45c;" horiz-adv-x="1243" 
d="M852 1065h293q21 0 35 -14q14 -13 14 -29t-3 -24t-20 -23l-372 -432l415 -455q21 -24 21 -42t-14 -32t-35 -14h-307q-55 0 -84 35l-308 336v-316q0 -23 -16 -39t-39 -16h-258q-23 0 -39 16t-16 39v955q0 23 16 39t39 16h258q23 0 39 -16t16 -39v-295l285 315q35 35 80 35
zM735 1546h273q39 0 39 -41q0 -14 -11 -24l-276 -228q-39 -34 -86 -34h-180q-33 0 -33 32q0 16 10 27l188 229q23 27 38 33t38 6z" />
    <glyph glyph-name="uni045D" unicode="&#x45d;" horiz-adv-x="1331" 
d="M899 0q-23 0 -39 16t-16 39v451l-387 -483q-18 -23 -47 -23h-238q-23 0 -38 16t-15 39v955q0 23 16 39t39 16h258q23 0 39 -16t16 -39v-453l387 485q18 23 46 23h237q23 0 39 -16t16 -39v-955q0 -23 -16 -39t-39 -16h-258zM827 1251q0 -33 -32 -32h-181q-45 0 -86 34
l-276 228q-10 10 -10 24q0 41 39 41h272q23 0 38 -6t38 -33l188 -229q10 -10 10 -27z" />
    <glyph glyph-name="afii10110" unicode="&#x45e;" horiz-adv-x="1282" 
d="M39 1020q0 16 14 30t35 15h270q25 0 38 -16t22 -33l225 -531l225 531q18 49 60 49h270q20 0 34 -14q14 -13 15 -29q0 -16 -2 -23l-405 -948q-105 -232 -200 -324q-120 -116 -300 -116h-133q-23 0 -39 16t-16 39v207q0 23 16 39t39 16h88q65 0 99 26t61 87l-414 958
q-2 5 -2 21zM979 1546q39 0 39 -44t-18 -97q-38 -116 -159 -169q-65 -28 -159 -28q-176 0 -262 100q-72 81 -74 199q0 39 39 39h172q39 0 39 -39t22 -71t64 -31q42 0 64 32q22 33 22 71t39 38h172z" />
    <glyph glyph-name="afii10193" unicode="&#x45f;" horiz-adv-x="1208" 
d="M764 0v-170q0 -23 -16.5 -39t-38.5 -16h-207q-23 0 -39.5 16t-16.5 39v170h-272q-23 0 -39 16.5t-16 38.5v955q0 23 16.5 39t38.5 16h258q23 0 39 -16.5t16 -38.5v-693h234v693q0 23 16.5 39t38.5 16h258q23 0 39.5 -16.5t16.5 -38.5v-955q0 -23 -16.5 -39t-39.5 -16
h-270z" />
    <glyph glyph-name="afii10050" unicode="&#x490;" horiz-adv-x="1245" 
d="M522 1106v-1051q0 -23 -16.5 -39t-38.5 -16h-268q-23 0 -39.5 16.5t-16.5 38.5v1323q0 23 16.5 39.5t39.5 16.5h632v170q0 23 16.5 39t39.5 16h268q23 0 39 -16.5t16 -38.5v-443q0 -23 -16 -39t-39 -16h-633z" />
    <glyph glyph-name="afii10098" unicode="&#x491;" horiz-adv-x="1062" 
d="M676 1065v170q0 23 16.5 39t38.5 16h248q23 0 39 -16.5t16 -38.5v-422q0 -23 -16.5 -39t-38.5 -16h-502v-703q0 -23 -16.5 -39t-38.5 -16h-248q-23 0 -39 16.5t-16 38.5v955q0 23 16.5 39t38.5 16h502z" />
    <glyph glyph-name="alefhebrew" unicode="&#x5d0;" horiz-adv-x="1239" 
d="M1139 817q0 -135 -51.5 -242.5t-143.5 -175.5l209 -329q6 -10 6 -26t-14.5 -30t-34.5 -14h-295q-34 0 -65 49l-265 416q-16 -49 -16 -107v-303q0 -23 -16.5 -39t-38.5 -16h-258q-23 0 -39.5 16.5t-16.5 38.5v314q0 133 49.5 239.5t137.5 173.5l-201 318q-6 6 -6 23
t14.5 31.5t34.5 14.5h299q25 0 38 -15t23 -32l259 -409q23 51 22 116v285q0 23 16.5 39t38.5 16h258q23 0 39.5 -16t16.5 -39v-297z" />
    <glyph glyph-name="bethebrew" unicode="&#x5d1;" horiz-adv-x="1228" 
d="M147 852q-23 0 -39 16.5t-16 38.5v207q0 23 16.5 39t38.5 16h365q258 0 405.5 -133.5t147.5 -367.5v-351h29q23 0 39 -16t16 -39v-207q0 -23 -16.5 -39t-38.5 -16h-967q-23 0 -39 16.5t-16 38.5v207q0 23 16 39t39 16h569v340q0 195 -194 195h-355z" />
    <glyph glyph-name="gimelhebrew" unicode="&#x5d2;" horiz-adv-x="1153" 
d="M53 80q0 213 129 358.5t355 145.5h20v94q0 94 -42 144t-136 50h-211q-23 0 -39 16.5t-16 39.5v207q0 23 16 39t39 16h211q272 0 409.5 -138.5t137.5 -373.5v-168l190 -447q2 -6 2 -20t-14 -28.5t-35 -14.5h-272q-42 0 -60 49l-92 217h-47q-78 0 -127 -54t-49 -132v-25
q0 -23 -16.5 -39t-38.5 -16h-258q-23 0 -39.5 16.5t-16.5 38.5v25z" />
    <glyph glyph-name="dalethebrew" unicode="&#x5d3;" horiz-adv-x="1083" 
d="M989 1169q23 0 39 -16t16 -39v-207q0 -23 -16 -39t-39 -16h-133v-797q0 -23 -16.5 -39t-38.5 -16h-258q-23 0 -39.5 16.5t-16.5 38.5v797h-403q-23 0 -39 16.5t-16 38.5v207q0 23 16 39t39 16h905z" />
    <glyph glyph-name="hehebrew" unicode="&#x5d4;" horiz-adv-x="1331" 
d="M492 55q0 -23 -16.5 -39t-39.5 -16h-258q-23 0 -39 16.5t-16 38.5v658q0 23 16.5 39t38.5 16h258q23 0 39.5 -16.5t16.5 -38.5v-658zM123 1114q0 23 16.5 39t38.5 16h484q283 0 421 -122.5t138 -384.5v-607q0 -23 -16.5 -39t-39.5 -16h-258q-23 0 -39 16.5t-16 38.5v596
q0 104 -46 152.5t-155 48.5h-473q-23 0 -39 16.5t-16 38.5v207z" />
    <glyph glyph-name="vavhebrew" unicode="&#x5d5;" horiz-adv-x="614" 
d="M492 55q0 -23 -16.5 -39t-39.5 -16h-258q-23 0 -39 16.5t-16 38.5v1059q0 23 16.5 39t38.5 16h258q23 0 39.5 -16t16.5 -39v-1059z" />
    <glyph glyph-name="zayinhebrew" unicode="&#x5d6;" horiz-adv-x="989" 
d="M387 698q0 119 41 154h-342q-23 0 -39 16.5t-16 38.5v207q0 23 16 39t39 16h809q23 0 39 -16t16 -39v-207q0 -23 -16 -39t-39 -16h-51q-88 0 -88 -98v-699q0 -23 -16.5 -39t-39.5 -16h-258q-23 0 -39 16.5t-16 38.5v643z" />
    <glyph glyph-name="hethebrew" unicode="&#x5d7;" horiz-adv-x="1353" 
d="M692 1169q551 0 551 -499v-615q0 -23 -16.5 -39t-38.5 -16h-258q-23 0 -39.5 16.5t-16.5 38.5v594q0 203 -192 203h-190v-797q0 -23 -16.5 -39t-39.5 -16h-258q-23 0 -39 16.5t-16 38.5v1059q0 23 16.5 39t38.5 16h514z" />
    <glyph glyph-name="tethebrew" unicode="&#x5d8;" horiz-adv-x="1329" 
d="M611 -20q-210 0 -355 134t-145 365v635q0 23 16 39t39 16h258q23 0 39 -16t16 -39v-625q0 -98 44 -145t154 -47t152.5 38t47.5 134q2 47 2 105.5t-2 109.5q-4 107 -46.5 147.5t-158.5 40.5h-29q-23 0 -39 16.5t-16 39.5v207q0 23 16.5 39t38.5 16h29q287 0 425 -119
t148 -371l1 -30l-1 -211q-13 -348 -218.5 -413.5t-415.5 -65.5z" />
    <glyph glyph-name="yodhebrew" unicode="&#x5d9;" horiz-adv-x="614" 
d="M492 547q0 -23 -16.5 -39t-39.5 -16h-258q-23 0 -39 16t-16 39v567q0 23 16.5 39t38.5 16h258q23 0 39.5 -16t16.5 -39v-567z" />
    <glyph glyph-name="finalkafhebrew" unicode="&#x5da;" horiz-adv-x="1091" 
d="M989 1169q23 0 39 -16t16 -39v-207q0 -23 -16 -39t-39 -16h-123v-1051q0 -23 -16 -39t-39 -16h-258q-23 0 -39 16.5t-16 38.5v1051h-414q-23 0 -39 16.5t-16 38.5v207q0 23 16 39t39 16h905z" />
    <glyph glyph-name="kafhebrew" unicode="&#x5db;" horiz-adv-x="1110" 
d="M481 1169q263 0 409 -146t146 -507t-210 -438.5t-345 -77.5h-344q-23 0 -39 16.5t-16 38.5v207q0 23 16.5 39t38.5 16h334q100 0 148.5 52.5t48.5 215.5t-48.5 215t-148.5 52h-334q-23 0 -39 16.5t-16 38.5v207q0 23 16.5 39t38.5 16h344z" />
    <glyph glyph-name="lamedhebrew" unicode="&#x5dc;" horiz-adv-x="1120" 
d="M549 297q88 0 88 88v467h-551q-23 0 -39 16.5t-16 38.5v492q0 23 16 39t39 16h258q23 0 39 -16.5t16 -38.5v-230h551q23 0 39.5 -16t16.5 -39v-739q0 -179 -114 -287t-302 -108h-92q-23 0 -39.5 16t-16.5 39v207q0 23 16.5 39t39.5 16h51z" />
    <glyph glyph-name="finalmemhebrew" unicode="&#x5dd;" horiz-adv-x="1290" 
d="M492 317h319v342q0 100 -46 146.5t-147 46.5h-126v-535zM629 1169q250 0 400.5 -135t150.5 -364v-615q0 -23 -16.5 -39t-39.5 -16h-946q-23 0 -39 16.5t-16 38.5v1059q0 23 16.5 39t38.5 16h451z" />
    <glyph glyph-name="memhebrew" unicode="&#x5de;" horiz-adv-x="1421" 
d="M942 317v342q0 100 -46 146.5t-146 46.5h-23l-285 -803q-18 -49 -59 -49h-264q-20 0 -34.5 14.5t-14.5 28.5t2 20l278 789h-205q-23 0 -39 16.5t-16 38.5v207q0 23 16.5 39t38.5 16h615q268 0 409.5 -127t141.5 -372v-615q0 -23 -16.5 -39t-39.5 -16h-411
q-23 0 -39.5 16.5t-16.5 38.5v207q0 23 16.5 39t39.5 16h98z" />
    <glyph glyph-name="finalnunhebrew" unicode="&#x5df;" horiz-adv-x="614" 
d="M492 -199q0 -23 -16.5 -39t-39.5 -16h-258q-23 0 -39 16.5t-16 38.5v1313q0 23 16.5 39t38.5 16h258q23 0 39.5 -16t16.5 -39v-1313z" />
    <glyph glyph-name="nunhebrew" unicode="&#x5e0;" horiz-adv-x="935" 
d="M250 1190q290 0 431.5 -117t141.5 -385v-633q0 -23 -16 -39t-39 -16h-639q-23 0 -39 16.5t-16 38.5v207q0 23 16 39t39 16h326v361q0 110 -46 152t-169 42h-90q-23 0 -39.5 16.5t-16.5 39.5v207q0 23 16.5 39t39.5 16h100z" />
    <glyph glyph-name="samekhhebrew" unicode="&#x5e1;" horiz-adv-x="1247" 
d="M631 852h-152v-363q0 -109 20.5 -138t51.5 -41.5t109 -12.5t112 44.5t23 317.5q-4 119 -22.5 147t-51.5 37t-90 9zM511.5 -20q-400.5 0 -400.5 499v635q0 23 16 39t39 16h475q269 0 391.5 -122.5t130.5 -376.5q2 -47 2 -105.5t-3 -137.5t-31.5 -168t-123.5 -184
t-495.5 -95z" />
    <glyph glyph-name="ayinhebrew" unicode="&#x5e2;" horiz-adv-x="1351" 
d="M406 1169q42 0 59 -49l272 -801q78 12 106.5 57.5t28.5 133.5v604q0 23 16.5 39t39.5 16h258q23 0 39 -16t16 -39v-614q0 -234 -147 -367t-404 -133h-565q-23 0 -39 16.5t-16 38.5v207q0 23 16 39t39 16h237l-266 787q-2 6 -2 21t14.5 29.5t34.5 14.5h263z" />
    <glyph glyph-name="finalpehebrew" unicode="&#x5e3;" horiz-adv-x="1222" 
d="M580 1169q252 0 391 -122.5t139 -346.5v-899q0 -23 -16.5 -39t-38.5 -16h-258q-23 0 -39.5 16.5t-16.5 38.5v889q0 86 -37.5 124t-123.5 38h-138v-162q0 -72 72 -72h39q23 0 39 -16t16 -39v-207q0 -23 -16.5 -39t-38.5 -16h-49q-207 0 -318.5 96.5t-111.5 282.5v434
q0 23 16 39t39 16h451z" />
    <glyph glyph-name="pehebrew" unicode="&#x5e4;" horiz-adv-x="1259" 
d="M631 1169q262 0 408.5 -144.5t146.5 -507t-210 -440t-345 -77.5h-344q-23 0 -39.5 16.5t-16.5 38.5v207q0 23 16.5 39t39.5 16h334q100 0 148 52t48 215.5t-48 215.5t-148 52h-189v-39q0 -72 72 -72h39q23 0 39 -16t16 -39v-207q0 -23 -16.5 -39t-38.5 -16h-39
q-215 0 -328 96t-113 283v311q0 23 16.5 39t39.5 16h512z" />
    <glyph glyph-name="finaltsadihebrew" unicode="&#x5e5;" horiz-adv-x="1159" 
d="M1106 872q0 -210 -106 -349t-291 -165l213 -548q2 -6 2 -20t-14.5 -29t-35.5 -15h-268q-41 0 -59 49l-510 1311q-2 6 -2 20t14 28.5t35 14.5h268q43 0 60 -49l174 -444q74 0 112.5 54t38.5 153v231q0 23 16.5 39t39.5 16h258q23 0 39 -16t16 -39v-242z" />
    <glyph glyph-name="tsadihebrew" unicode="&#x5e6;" horiz-adv-x="1277" 
d="M821 883v231q0 23 16.5 39t39.5 16h258q23 0 39 -16t16 -39v-242q0 -285 -170 -417l96 -119q33 -38 33 -72v-209q0 -23 -16.5 -39t-38.5 -16h-957q-23 0 -39 16.5t-16 38.5v207q0 23 16.5 39t38.5 16h535l-619 773q-12 14 -12 32t14.5 32.5t34.5 14.5h328q28 0 53 -34
l309 -383q41 47 41 131z" />
    <glyph glyph-name="qofhebrew" unicode="&#x5e7;" horiz-adv-x="1396" 
d="M436 768q23 0 39.5 -16.5t16.5 -38.5v-1049q0 -23 -16.5 -39t-39.5 -16h-258q-23 0 -39 16.5t-16 38.5v1049q0 23 16.5 39t38.5 16h258zM123 1114q0 23 16.5 39t38.5 16h1049q23 0 39 -16t16 -39v-756q0 -186 -111.5 -282t-318.5 -96h-131q-23 0 -39 16t-16 39v207
q0 23 16 39t39 16h121q72 0 71 72v483h-735q-23 0 -39 16.5t-16 38.5v207z" />
    <glyph glyph-name="reshhebrew" unicode="&#x5e8;" horiz-adv-x="1073" 
d="M29 1114q0 23 16 39t39 16h328q276 0 413.5 -130t137.5 -369v-615q0 -23 -16.5 -39t-39.5 -16h-258q-23 0 -39 16.5t-16 38.5v604q0 100 -46 146.5t-147 46.5h-317q-23 0 -39 16.5t-16 38.5v207z" />
    <glyph glyph-name="shinhebrew" unicode="&#x5e9;" horiz-adv-x="1722" 
d="M1008 573q0 -205 -123 -276h272q37 0 59.5 22.5t22.5 59.5v735q0 23 16.5 39t38.5 16h258q23 0 39.5 -16t16.5 -39v-735q0 -201 -112 -300t-318 -99h-633q-207 0 -318.5 96t-111.5 282v756q0 23 16 39t39 16h258q23 0 39 -16t16 -39v-674q86 0 121 44t35 130v500
q0 23 16.5 39t38.5 16h258q23 0 39.5 -16t16.5 -39v-541z" />
    <glyph glyph-name="tavhebrew" unicode="&#x5ea;" horiz-adv-x="1484" 
d="M256 317v535h-109q-23 0 -39 16.5t-16 38.5v207q0 23 16.5 39t38.5 16h676q256 0 403.5 -133.5t147.5 -365.5v-615q0 -23 -16.5 -39t-38.5 -16h-258q-23 0 -39 16.5t-16 38.5v604q0 100 -46.5 146.5t-146.5 46.5h-188v-797q0 -23 -16.5 -39t-39.5 -16h-422
q-23 0 -39 16.5t-16 38.5v207q0 23 16.5 39t38.5 16h109z" />
    <glyph glyph-name="afii57718" unicode="&#x5f2;" horiz-adv-x="1146" 
d="M492 547q0 -23 -16 -39t-40 -16h-258q-23 0 -39 16t-16 39v567q0 23 16 39t39 16h258q23 0 39 -16t17 -39v-567zM1024 547q0 -23 -16 -39t-39 -16h-258q-23 0 -39 16t-17 39v567q1 23 17 39t39 16h258q23 0 39 -16t16 -39v-567z" />
    <glyph glyph-name="Wgrave" unicode="&#x1e80;" horiz-adv-x="1703" 
d="M1602 1434q18 0 33 -16t10 -46l-265 -1294q-4 -30 -32 -54t-70 -24h-170q-41 0 -67 25t-35 53l-154 463l-154 -463q-10 -30 -36 -54t-66 -24h-170q-41 0 -70 25t-32 53l-265 1294q-2 10 -2 22q-1 12 13 26q14 13 32 14h269q52 0 63 -56l131 -692l121 371q4 14 18 37
t52 22h192q37 0 51 -22t19 -37l121 -371l131 692q10 53 63 56h269zM973 1536h-201q-46 0 -86 35l-276 227q-10 10 -11 25q0 41 39 41h293q23 0 38 -6t38 -33l188 -230q10 -10 11 -26q0 -33 -33 -33z" />
    <glyph glyph-name="wgrave" unicode="&#x1e81;" horiz-adv-x="1773" 
d="M983 1065q50 0 70 -49l151 -465l152 465q18 49 69 49h254q20 0 39 -18t8 -48l-325 -948q-17 -51 -68 -51h-233q-31 0 -45 16t-23 35l-145 430l-146 -430q-23 -51 -67 -51h-234q-51 0 -67 51l-326 948q-2 9 -2 23t14 28t35 15h254q50 0 70 -49l151 -465l152 465
q18 49 70 49h192zM1036 1251q0 -33 -32 -32h-181q-45 0 -86 34l-276 228q-10 10 -10 24q0 41 38 41h273q23 0 38 -6t38 -33l188 -229q10 -10 10 -27z" />
    <glyph glyph-name="Wacute" unicode="&#x1e82;" horiz-adv-x="1703" 
d="M1602 1434q18 0 33 -16t10 -46l-265 -1294q-4 -30 -32 -54t-70 -24h-170q-41 0 -67 25t-35 53l-154 463l-154 -463q-10 -30 -36 -54t-66 -24h-170q-41 0 -70 25t-32 53l-265 1294q-2 10 -2 22q-1 12 13 26q14 13 32 14h269q52 0 63 -56l131 -692l121 371q4 14 18 37
t52 22h192q37 0 51 -22t19 -37l121 -371l131 692q10 53 63 56h269zM977 1864h293q39 0 39 -41q0 -14 -11 -25l-276 -227q-40 -35 -86 -35h-201q-33 0 -33 33q0 16 11 26l188 230q23 27 38 33t38 6z" />
    <glyph glyph-name="wacute" unicode="&#x1e83;" horiz-adv-x="1773" 
d="M983 1065q50 0 70 -49l151 -465l152 465q18 49 69 49h254q20 0 39 -18t8 -48l-325 -948q-17 -51 -68 -51h-233q-31 0 -45 16t-23 35l-145 430l-146 -430q-23 -51 -67 -51h-234q-51 0 -67 51l-326 948q-2 9 -2 23t14 28t35 15h254q50 0 70 -49l151 -465l152 465
q18 49 70 49h192zM1018 1546h272q39 0 39 -41q0 -14 -10 -24l-277 -228q-39 -34 -86 -34h-180q-33 0 -33 32q0 16 11 27l188 229q23 27 38 33t38 6z" />
    <glyph glyph-name="Wdieresis" unicode="&#x1e84;" horiz-adv-x="1703" 
d="M1602 1434q18 0 33 -16t10 -46l-265 -1294q-4 -30 -32 -54t-70 -24h-170q-41 0 -67 25t-35 53l-154 463l-154 -463q-10 -30 -36 -54t-66 -24h-170q-41 0 -70 25t-32 53l-265 1294q-2 10 -2 22q-1 12 13 26q14 13 32 14h269q52 0 63 -56l131 -692l121 371q4 14 18 37
t52 22h192q37 0 51 -22t19 -37l121 -371l131 692q10 53 63 56h269zM1272 1591q0 -23 -16 -39t-39 -16h-207q-23 0 -39 16t-17 39v207q0 23 16 39t40 16h207q23 0 39 -16t16 -39v-207zM750 1591q0 -23 -16 -39t-40 -16h-207q-23 0 -39 16t-16 39v207q0 23 16 39t39 16h207
q23 0 39 -16t17 -39v-207z" />
    <glyph glyph-name="wdieresis" unicode="&#x1e85;" horiz-adv-x="1773" 
d="M983 1065q50 0 70 -49l151 -465l152 465q18 49 69 49h254q20 0 39 -18t8 -48l-325 -948q-17 -51 -68 -51h-233q-31 0 -45 16t-23 35l-145 430l-146 -430q-23 -51 -67 -51h-234q-51 0 -67 51l-326 948q-2 9 -2 23t14 28t35 15h254q50 0 70 -49l151 -465l152 465
q18 49 70 49h192zM1276 1274q0 -23 -16 -39t-39 -16h-207q-23 0 -39 16t-17 39v207q0 23 16 39t40 16h207q23 0 39 -16t16 -39v-207zM815 1274q0 -23 -16 -39t-39 -16h-207q-23 0 -39 16t-16 39v207q0 23 16 39t39 16h207q23 0 39 -16t16 -39v-207z" />
    <glyph glyph-name="Ygrave" unicode="&#x1ef2;" horiz-adv-x="1406" 
d="M893 55q0 -23 -16 -39t-39 -16h-269q-23 0 -39 16t-16 39v437l-473 870q-8 14 -8 30t13 28q13 13 32 14h280q42 0 62 -20t24 -32l258 -503l261 503q4 10 24 30t62 22h280q17 0 31 -14t14 -28q0 -15 -8 -30l-473 -870v-437zM848 1536h-201q-46 0 -86 35l-276 227
q-10 10 -11 25q0 41 39 41h293q23 0 38 -6t38 -33l188 -230q10 -10 11 -26q0 -33 -33 -33z" />
    <glyph glyph-name="ygrave" unicode="&#x1ef3;" horiz-adv-x="1282" 
d="M346 -389q-20 0 -35 14q-14 15 -14 29t2 20l156 367l-414 960q-2 7 -2 21t14 28t35 15h268q40 0 60 -49l227 -533l225 533q18 49 60 49h270q20 0 34 -14q14 -15 15 -29q0 -14 -2 -21l-571 -1341q-18 -49 -60 -49h-268zM586 1219q-45 0 -86 34l-277 228q-10 10 -10 24
q0 41 39 41h272q23 0 38 -6t38 -33l188 -229q10 -10 11 -27q0 -33 -33 -32h-180z" />
    <glyph glyph-name="endash" unicode="&#x2013;" horiz-adv-x="1165" 
d="M168 457q-23 0 -39 16t-16 39v207q0 23 16 39t39 16h829q23 0 39.5 -16.5t16.5 -38.5v-207q0 -23 -16.5 -39t-39.5 -16h-829z" />
    <glyph glyph-name="emdash" unicode="&#x2014;" horiz-adv-x="1554" 
d="M168 457q-23 0 -39 16t-16 39v207q0 23 16 39t39 16h1218q23 0 39.5 -16.5t16.5 -38.5v-207q0 -23 -16.5 -39t-39.5 -16h-1218z" />
    <glyph glyph-name="quoteleft" unicode="&#x2018;" horiz-adv-x="579" 
d="M358 922h-252q-18 0 -31.5 13t-13.5 27t2 19l160 408q26 65 88 65h154q18 0 31.5 -13.5t13.5 -31.5v-4l-64 -404q-4 -29 -25.5 -54t-62.5 -25z" />
    <glyph glyph-name="quoteright" unicode="&#x2019;" horiz-adv-x="567" 
d="M233 1454h252q18 0 31.5 -13.5t13.5 -26.5t-2 -19l-159 -408q-26 -65 -88 -65h-154q-18 0 -31.5 13t-13.5 32v4l63 403q4 29 26 54.5t62 25.5z" />
    <glyph glyph-name="quotesinglbase" unicode="&#x201a;" horiz-adv-x="587" 
d="M211 379h252q18 0 31.5 -13.5t13.5 -26.5t-2 -20l-160 -407q-26 -66 -88 -66h-154q-18 0 -31.5 13.5t-13.5 31.5v5l64 403q4 29 25.5 54.5t62.5 25.5z" />
    </font>
</defs>
</svg>
